<?xml version="1.0" standalone="no"?>
<!DOCTYPE svg PUBLIC "-//W3C//DTD SVG 1.1//EN" "http://www.w3.org/Graphics/SVG/1.1/DTD/svg11.dtd" >
<svg xmlns="http://www.w3.org/2000/svg">
<metadata>
Created by FontPrep 20130207 at Fri Dec 11 18:45:39 2015
 By prBigBrother
Joe Prince (c)2015. All Rights Reserved.
</metadata>
<defs>
<font id="f6d1f27f0a60663d13390a52b38d2f93" horiz-adv-x='1024' >
  <font-face 
    font-family="MajestiBanner-Light"
    font-weight="300"
    font-stretch="normal"
    units-per-em="2048"
    panose-1="2 0 0 0 0 0 0 0 0 0"
    ascent="1536"
    descent="-512"
    x-height="819"
    cap-height="1266"
    bbox="-1855.01 -1012 2552 1968"
    underline-thickness="102"
    underline-position="-102"
    unicode-range="U+0020-FB06"
  />
<missing-glyph horiz-adv-x="563" 
 />
    <glyph glyph-name="fi" unicode="fi" horiz-adv-x="1134" 
d="M51 0v14q92 0 128 20t36 91v676h-178v18h178v156q0 178 111 276q111 99 256 99t239 -66t94 -149q-1 -43 -27 -71t-66 -28t-66 28t-27 69q0 74 68 94q-66 111 -209 110q-117 0 -174 -86t-58 -223v-209h346l236 21v-715q0 -72 36 -91t128 -20v-14h-469v14q92 0 128 20
t36 91v565q0 66 -31 88t-102 23h-308v-676q0 -72 36 -91t128 -20v-14h-469z" />
    <glyph glyph-name="fl" unicode="fl" horiz-adv-x="1134" 
d="M51 0v14q92 0 128 20t36 91v676h-178v18h178v156q0 178 111 276q111 99 258 99t245 -72l103 90h6v-1243q0 -72 36 -91t128 -20v-14h-469v14q92 0 128 20t36 91v913q-68 20 -68 94t68 95q-66 111 -209 110q-117 0 -174 -86t-58 -223v-209h228v-18h-228v-676q0 -72 36 -91
t128 -20v-14h-469z" />
    <glyph glyph-name="f_j" unicode="fj" horiz-adv-x="1099" 
d="M51 0v14q92 0 128 20t36 91v676h-178v18h178v156q0 178 111 276q111 99 256 99t239 -66t94 -149q-1 -43 -27 -71t-66 -28t-66 28t-27 69q0 74 68 94q-66 111 -209 110q-117 0 -174 -86t-58 -223v-209h346l236 21v-830q0 -143 -79 -231t-234 -139l-9 6q63 37 112 83
q69 64 69 253v708q0 66 -31 88t-102 23h-308v-676q0 -72 36 -91t128 -20v-14h-469z" />
    <glyph glyph-name="f_y" unicode="fy" horiz-adv-x="1515" 
d="M51 0v14q92 0 128 20t36 91v676h-178v18h178v176q0 175 94 265q95 90 215 90t190 -56t70 -135q0 -47 -26 -75t-67 -28t-67 28t-26 66q0 80 72 97q-39 90 -135 90q-178 0 -179 -288v-230h678v-14q-128 0 -158 -47t13 -133l192 -480l78 195q125 311 125 377q0 88 -143 88
v14h397v-14q-141 0 -205 -109q-18 -29 -157 -364l-185 -445q-39 -94 -107 -169q-68 -74 -147 -74q-80 0 -80 65q0 76 145 104q56 11 117 48q60 37 87 98l8 21l-260 618q-52 123 -98 163t-152 40h-148v-676q0 -72 36 -91t128 -20v-14h-469z" />
    <glyph glyph-name=".notdef" horiz-adv-x="563" 
 />
    <glyph glyph-name=".null" horiz-adv-x="0" 
 />
    <glyph glyph-name="nonmarkingreturn" horiz-adv-x="681" 
 />
    <glyph glyph-name="space" unicode=" " horiz-adv-x="489" 
 />
    <glyph glyph-name="exclam" unicode="!" horiz-adv-x="432" 
d="M217 -14q-43 0 -73 30t-29 72q0 43 29 72q30 28 73 28t72 -28t29 -72q0 -43 -29 -73q-29 -29 -72 -29zM123 1190q0 34 24 67q25 33 68 33t69 -33t26 -67t-41 -291q-40 -258 -44 -541h-18q-4 283 -44 541q-40 257 -40 291z" />
    <glyph glyph-name="quotedbl" unicode="&#x22;" horiz-adv-x="702" 
d="M426 1200q0 36 26 64q26 26 62 26t63 -26q25 -26 25 -64q0 -36 -36 -154t-44 -233h-16q-8 115 -44 233t-36 154zM100 1200q0 36 26 64q26 26 62 26t63 -26q25 -26 25 -64q0 -36 -36 -154t-43 -233h-17q-8 115 -44 233t-36 154z" />
    <glyph glyph-name="numbersign" unicode="#" horiz-adv-x="1089" 
d="M291 393h424l106 484h-424zM74 373v20h194l107 484h-205v20h211l82 369h22l-82 -369h424l82 369h23l-82 -369h168v-20h-174l-107 -484h185v-20h-191l-82 -373h-22l82 373h-424l-82 -373h-23l82 373h-188z" />
    <glyph glyph-name="dollar" unicode="$" horiz-adv-x="1050" 
d="M236 1022q0 -106 71 -168q72 -61 207 -113v537q-130 -6 -204 -78t-74 -178zM846 272q0 116 -79 178t-232 121v-581q145 6 228 86t83 196zM514 -215v190q-190 7 -312 95t-122 194q0 53 34 88t79 35t79 -34t33 -77q1 -44 -27 -76t-69 -38q25 -66 101 -119t204 -53v590
q-203 80 -272 131q-123 91 -123 241t108 242q109 92 287 96v135h21v-135q171 -2 279 -82t108 -184q0 -59 -34 -91t-80 -32t-79 33t-33 78t29 78t70 36q-68 152 -260 152v-543q211 -80 286 -133q143 -102 143 -260t-110 -262q-111 -104 -319 -105v-190h-21z" />
    <glyph glyph-name="percent" unicode="%" horiz-adv-x="1390" 
d="M356 639q88 0 130 91q42 92 42 234t-47 228q-35 31 -59 61q-29 18 -66 19q-88 0 -130 -90t-42 -226t42 -226q42 -91 130 -91zM1030 -6q88 0 130 91t42 226t-42 225t-130 91q-88 0 -130 -90q-42 -89 -42 -225t42 -227t130 -91zM1030 -20q-127 0 -206 94t-79 237t79 237
t206 93q127 0 206 -93q79 -92 79 -236t-79 -238t-206 -94zM356 625q-128 0 -206 94t-78 237q0 142 79 236t205 94q166 0 242 -149q86 -33 196 -33t279 82q8 18 21 50q12 32 21 44t24 12q33 0 32 -35q0 -45 -79 -77l-828 -1196l-16 10l807 1165q-143 -72 -256 -72t-191 29
q33 -76 33 -160q0 -143 -79 -237t-206 -94z" />
    <glyph glyph-name="ampersand" unicode="&#x26;" horiz-adv-x="1433" 
d="M620 1276q-104 0 -166 -68t-63 -174q0 -145 144 -282l36 -37q121 57 187 130t66 188t-51 179q-50 64 -153 64zM592 0q215 0 354 158l-504 483q-164 -100 -163 -311q0 -114 52 -209q29 -55 97 -88t164 -33zM549 -25q-188 1 -310 91t-122 233t81 218t230 138l-29 27
q-150 143 -149 301q0 131 106 219t264 88t250 -75t93 -193q1 -57 -23 -102q-52 -101 -225 -166q-112 -42 -133 -49l444 -422q57 123 57 228t-41 133t-147 28v14h432v-14q-95 0 -151 -31q-34 -17 -56 -93q-4 -18 -24 -112t-54 -168l134 -127q80 -75 124 -101t111 -26v-14
h-299l-151 145q-156 -170 -412 -170z" />
    <glyph glyph-name="quotesingle" unicode="'" horiz-adv-x="376" 
d="M100 1200q0 36 26 64q26 26 62 26t63 -26q25 -26 25 -64q0 -36 -36 -154t-43 -233h-17q-8 115 -44 233t-36 154z" />
    <glyph glyph-name="parenleft" unicode="(" horiz-adv-x="634" 
d="M84 536q0 530 547 910l6 -10q-143 -108 -262 -310q-66 -110 -106 -264t-40 -326q0 -455 276 -774q65 -74 132 -124l-6 -11q-547 379 -547 909z" />
    <glyph glyph-name="parenright" unicode=")" horiz-adv-x="634" 
d="M406 537q0 455 -276 774q-65 74 -132 125l6 10q547 -380 547 -910t-547 -909l-6 11q145 108 262 309q66 111 106 265t40 325z" />
    <glyph glyph-name="asterisk" unicode="*" horiz-adv-x="827" 
d="M694 1137q33 -55 -20 -86q-12 -9 -100 -23t-144 -49l-4 6q59 33 116 101q56 69 72 78q16 10 41 4t39 -31zM217 786q-53 -28 -85 27t22 84q12 9 99 23t144 49l4 -8q-59 -33 -115 -101t-69 -74zM694 811q-14 -25 -39 -31t-41 3t-72 77t-116 101l4 8q57 -35 144 -49t100 -23
q53 -31 20 -86zM154 1051q-54 29 -22 84t85 26q13 -6 69 -75t115 -101l-4 -6q-57 35 -144 49t-99 23zM414 649q-29 -1 -46 17q-18 18 -18 38t31 103q31 82 29 149h8q-2 -68 28 -150t31 -102q0 -20 -17 -38t-46 -17zM414 1298q29 0 46 -17t17 -37t-31 -103q-31 -82 -28 -150
h-8q2 68 -29 150q-31 83 -31 103t18 37t46 17z" />
    <glyph glyph-name="plus" unicode="+" horiz-adv-x="1093" 
d="M537 45v447h-445v20h445v446h20v-446h444v-20h-444v-447h-20z" />
    <glyph glyph-name="comma" unicode="," horiz-adv-x="462" 
d="M216 -2q-36 0 -64 28t-27 68q0 40 29 68q28 26 76 26t77 -38t29 -111q0 -74 -64 -157t-200 -134l-9 12q96 33 156 106q59 73 55 148q-22 -16 -58 -16z" />
    <glyph glyph-name="hyphen" unicode="-" horiz-adv-x="802" 
d="M131 442v64h541v-64h-541z" />
    <glyph glyph-name="period" unicode="." horiz-adv-x="452" 
d="M227 -14q-43 0 -73 30t-29 72q0 43 30 72q31 28 73 28t71 -28t29 -72q0 -42 -29 -72t-72 -30z" />
    <glyph glyph-name="slash" unicode="/" horiz-adv-x="913" 
d="M74 -344l-19 8l785 1759l20 -8z" />
    <glyph glyph-name="zero" unicode="0" horiz-adv-x="1165" 
d="M584 -10q150 0 230 185t81 457q0 272 -81 458q-80 186 -230 186t-231 -185t-81 -457t81 -458t231 -186zM583 -25q-222 -1 -347 189t-125 469t125 468t347 189t348 -190t126 -466t-126 -468q-126 -191 -348 -191z" />
    <glyph glyph-name="one" unicode="1" horiz-adv-x="702" 
d="M104 0v14q123 0 164 39t41 137v857q0 47 -18 71t-70 25h-151v12q240 12 374 113l9 -2v-1076q0 -98 41 -137t163 -39v-14h-553z" />
    <glyph glyph-name="two" unicode="2" horiz-adv-x="1050" 
d="M752 998q0 112 -60 195t-196 83q-199 0 -285 -186q51 0 84 -33t33 -80t-32 -79t-80 -32t-79 38t-31 89q0 105 114 201t290 96t290 -89t113 -228q0 -96 -61 -175q-62 -79 -156 -136q-94 -56 -194 -110q-254 -136 -330 -282q-29 -53 -35 -118q33 135 185 135q84 0 223 -67
t215 -66q156 0 155 165q0 39 -10 87h19q14 -68 14 -160t-46 -174t-142 -82t-185 97q-37 40 -73 81q-90 100 -178 99q-87 -1 -129 -53t-42 -116t13 -98h-21q-49 145 18 274t274 267q79 53 155 113t123 146t47 198z" />
    <glyph glyph-name="three" unicode="3" horiz-adv-x="1077" 
d="M539 657q176 1 304 -79t128 -247q1 -167 -137 -261t-318 -95q-180 0 -298 82t-118 187q0 53 32 88t76 35t76 -33t32 -79t-32 -79q-30 -33 -73 -35q27 -61 97 -107t181 -46q162 0 241 97t79 251t-92 234t-236 79q-77 -3 -108 -12q-31 -8 -41 -8t-23 9q-12 9 -12 21
q0 33 39 33l39 -12q39 -14 104 -12q131 2 209 90t78 220t-66 216t-198 84q-176 0 -258 -154q42 -6 68 -38t26 -76t-32 -76q-32 -33 -76 -33t-76 32t-31 87q0 106 115 188q116 82 280 82t287 -80t123 -222t-106 -230t-283 -94h-2v-7h2z" />
    <glyph glyph-name="four" unicode="4" horiz-adv-x="1034" 
d="M420 0v14q123 0 164 39t41 137v146h-580l-4 14l223 262q66 78 126 197t61 242q0 180 -134 233q158 0 243 -60t85 -145t-111 -215q-40 -45 -122 -130t-121 -130l-223 -250h557v264l133 146h10v-410q74 2 116 14t44 11q39 0 39 -33q0 -12 -16 -24t-56 1t-127 13v-146
q0 -98 41 -137t164 -39v-14h-553z" />
    <glyph glyph-name="five" unicode="5" horiz-adv-x="1050" 
d="M496 -25q-190 0 -302 82t-112 187q0 55 32 89t76 34t77 -33q32 -33 32 -80t-32 -80t-77 -33q74 -154 279 -153q94 0 162 34q163 82 165 356q1 158 -91 246q-93 88 -235 89q-142 0 -261 -56q-8 -72 -49 -71q-29 0 -29 30t62 54l63 596q20 0 72 -2q310 -12 400 5
q89 17 111 31q23 13 35 27q39 -57 39 -117q0 -117 -161 -116q-121 0 -394 63q-90 20 -94 23l-55 -506q141 57 285 57q215 0 340 -104q124 -104 124 -267t-136 -274t-326 -111z" />
    <glyph glyph-name="six" unicode="6" horiz-adv-x="1138" 
d="M580 -10q135 0 214 112q78 112 78 279q0 168 -68 274q-69 107 -205 107t-228 -100t-88 -257t83 -286t214 -129zM590 -25q-130 1 -230 61t-151 158q-102 197 -100 418q0 276 141 478t377 200q152 0 249 -81t97 -183q0 -57 -32 -92t-77 -35t-77 33t-31 80q0 47 32 80
q33 33 80 32q-49 154 -223 154q-104 0 -181 -55t-113 -141q-85 -204 -81 -396q2 -100 2 -182q25 131 126 211t241 80q174 0 285 -121q110 -121 110 -289t-124 -289t-320 -121z" />
    <glyph glyph-name="seven" unicode="7" horiz-adv-x="919" 
d="M688 1024q-68 0 -206 43t-208 43q-106 0 -142 -58t-36 -151h-18v365h14l4 -269h2q12 137 52 208t133 71q61 0 121 -36t100 -78q111 -115 211 -113q77 0 115 53t38 123q0 12 -4 41h17q4 -20 4 -43q0 -76 -74 -213q-157 -295 -223 -511t-86 -499h-187q15 122 49 234
q70 225 384 709q84 128 96 155l-2 2q-49 -76 -154 -76z" />
    <glyph glyph-name="eight" unicode="8" horiz-adv-x="1126" 
d="M563 1276q-139 0 -204 -90t-65 -211t66 -213q64 -92 203 -92t204 92t64 213q0 121 -64 211q-65 90 -204 90zM860 317q0 118 -56 221q-30 54 -92 87t-150 33t-148 -34q-144 -77 -148 -307q0 -118 62 -223q62 -104 234 -104q232 0 285 218q13 52 13 109zM562 -25
q-204 1 -329 97t-125 244t106 240q105 91 282 108q-164 14 -258 97t-94 217t118 223q119 89 301 89t301 -89t119 -222t-94 -217t-258 -98q176 -16 281 -108q106 -92 106 -240t-126 -244t-330 -97z" />
    <glyph glyph-name="nine" unicode="9" horiz-adv-x="1138" 
d="M561 1276q-129 0 -209 -113t-80 -281t65 -273t200 -105t228 97t93 259q0 214 -126 344q-71 72 -171 72zM502 -25q-164 0 -261 80t-98 183q0 57 32 93t77 36t77 -33q31 -33 31 -80t-32 -80t-78 -33q66 -154 244 -153q104 0 180 55t112 140q88 202 82 396q-2 99 -2 181
q-25 -129 -123 -209t-239 -80q-176 0 -285 119t-109 292q0 172 126 290q125 118 319 118q131 0 229 -58t148 -154q99 -190 99 -392q-1 -202 -59 -356t-182 -254t-288 -101z" />
    <glyph glyph-name="colon" unicode=":" horiz-adv-x="464" 
d="M233 631q-43 -1 -73 29t-29 73q0 43 30 72q31 29 73 29t71 -29t29 -72t-29 -73t-72 -29zM233 -14q-43 0 -73 30t-29 72q0 43 30 72q31 28 73 28t71 -28t29 -72q0 -42 -29 -72t-72 -30z" />
    <glyph glyph-name="semicolon" unicode=";" horiz-adv-x="514" 
d="M248 -2q-36 0 -63 28t-27 68t28 68q29 26 77 26t77 -38t29 -111q0 -74 -65 -157t-200 -134l-8 12q96 33 156 106q59 73 55 148q-23 -16 -59 -16zM262 631q-43 -1 -73 29t-29 73q0 43 29 72q30 29 73 29t72 -29q28 -29 28 -72t-28 -73q-29 -29 -72 -29z" />
    <glyph glyph-name="less" unicode="&#x3c;" horiz-adv-x="974" 
d="M860 96l-794 398v16l794 397v-20l-770 -385l770 -385v-21z" />
    <glyph glyph-name="equal" unicode="=" horiz-adv-x="1189" 
d="M139 281v20h912v-20h-912zM139 705v20h912v-20h-912z" />
    <glyph glyph-name="greater" unicode="&#x3e;" horiz-adv-x="974" 
d="M115 96v21l770 385l-770 385v20l794 -397v-16z" />
    <glyph glyph-name="question" unicode="?" horiz-adv-x="956" 
d="M449 -14q-43 0 -73 30t-30 72q0 43 30 72q30 28 73 28t71 -28t29 -72q-1 -42 -29 -72t-71 -30zM719 938q0 150 -67 245t-206 95q-170 0 -253 -141q41 -6 67 -38t27 -76q0 -44 -32 -77t-76 -33t-77 32t-32 85q0 104 119 182q120 78 280 78t286 -94t126 -254
q0 -274 -420 -371l-6 -213h-13l-6 224q283 70 283 356z" />
    <glyph glyph-name="at" unicode="@" horiz-adv-x="1665" 
d="M788 156q111 0 222 127v8q0 27 4 47l63 307q-39 154 -161 154t-206 -130q-85 -130 -85 -288q1 -105 43 -165t120 -60zM721 113q-106 0 -165 72q-58 73 -58 196q0 184 118 308q120 124 274 124t218 -94l111 80l6 -4l-97 -461q-6 -31 -6 -60q0 -127 121 -127
q121 -1 202 105t81 283q0 264 -180 449t-462 185t-488 -220t-206 -537q0 -274 162 -462t422 -188t457 152l8 -10q-205 -164 -477 -164t-468 192t-196 484q0 217 115 399q115 181 298 283t384 102q285 0 472 -196t187 -469q0 -187 -91 -303t-249 -115q-184 0 -204 143
q-135 -147 -289 -147z" />
    <glyph glyph-name="A" unicode="A" 
d="M354 467h496l-250 600zM-59 0v14q108 0 175 57t98 119t91 218l357 864h12l411 -977q57 -137 119 -209t170 -72v-14h-577v14q244 0 137 252l-76 180h-512l-22 -57q-110 -268 -51 -321q58 -52 155 -54v-14h-487z" />
    <glyph glyph-name="B" unicode="B" horiz-adv-x="1259" 
d="M426 662h207q165 0 241 78t76 206q0 129 -77 216t-240 87h-207v-587zM426 16h244q154 0 238 92t83 232q0 141 -89 223t-257 82h-219v-629zM66 0v14q135 0 170 37t34 139v885q0 102 -34 139q-35 37 -170 37v15h569q477 0 477 -316q0 -130 -86 -202t-278 -91v-4
q215 -14 310 -94t95 -225q0 -334 -479 -334h-608z" />
    <glyph glyph-name="C" unicode="C" horiz-adv-x="1347" 
d="M770 -25q-295 -1 -483 185q-189 186 -189 472t193 472t489 186q56 0 150 -9t140 -10t140 15l35 -385h-12q-82 193 -190 284q-109 91 -275 91t-281 -90q-213 -167 -215 -559q0 -279 119 -458t361 -179q334 0 508 389h12l-68 -342q-80 -25 -210 -43t-224 -19z" />
    <glyph glyph-name="D" unicode="D" horiz-adv-x="1466" 
d="M426 16h236q262 0 396 169t134 448t-134 447t-396 169h-236v-1233zM66 0v14q135 0 170 37t34 139v885q0 102 -34 139q-35 37 -170 37v15h596q319 0 512 -173q192 -173 192 -459t-192 -460t-512 -174h-596z" />
    <glyph glyph-name="E" unicode="E" horiz-adv-x="1251" 
d="M66 0v14q135 0 170 37t34 139v885q0 102 -34 139q-35 37 -170 37v15h1024l24 -359l-12 -2q-29 131 -73 199q-94 145 -454 145h-149v-610h33q227 0 307 46t104 208h13v-524h-13q-25 162 -104 208q-80 46 -307 46h-33v-607h176q298 0 400 106q54 56 78 111t48 152l15 -2
l-39 -383h-1038z" />
    <glyph glyph-name="F" unicode="F" horiz-adv-x="1175" 
d="M66 0v14q135 0 170 37t34 139v885q0 102 -34 139q-35 37 -170 37v15h1024l24 -387l-12 -2q-23 100 -50 160q-70 150 -236 190q-95 23 -241 22h-149v-622h33q221 0 304 54t107 220h13v-565h-13q-25 166 -107 220q-83 54 -304 54h-33v-420q0 -102 35 -139t170 -37v-14h-565
z" />
    <glyph glyph-name="G" unicode="G" horiz-adv-x="1531" 
d="M860 -23q-405 0 -593 208q-169 189 -169 460t202 458t501 187q53 0 153 -9t150 -10t147 15l35 -385h-12q-80 187 -198 281t-288 94q-248 0 -382 -183t-134 -461t130 -460q130 -180 389 -180q188 0 368 108v285q0 102 -40 144t-179 42v15h565v-15q-129 1 -159 -33
t-31 -135v-337q-238 -89 -455 -89z" />
    <glyph glyph-name="H" unicode="H" horiz-adv-x="1554" 
d="M66 0v14q135 0 170 37t34 139v885q0 102 -34 139q-35 37 -170 37v15h565v-15q-135 0 -170 -37t-35 -139v-420h702v420q0 102 -34 139q-35 37 -170 37v15h565v-15q-135 0 -170 -37t-35 -139v-885q0 -102 35 -139t170 -37v-14h-565v14q135 0 170 37t34 139v447h-702v-447
q0 -102 35 -139t170 -37v-14h-565z" />
    <glyph glyph-name="I" unicode="I" horiz-adv-x="696" 
d="M66 0v14q135 0 170 37t34 139v885q0 102 -34 139q-35 37 -170 37v15h565v-15q-135 0 -170 -37t-35 -139v-885q0 -102 35 -139t170 -37v-14h-565z" />
    <glyph glyph-name="J" unicode="J" horiz-adv-x="667" 
d="M256 18v1057q0 102 -35 139t-170 37v15h565v-15q-135 0 -170 -37t-34 -139v-1024q0 -145 -100 -243t-265 -150l-6 10q215 109 215 350z" />
    <glyph glyph-name="K" unicode="K" horiz-adv-x="1380" 
d="M66 0v14q135 0 170 37t34 139v885q0 102 -34 139q-35 37 -170 37v15h565v-15q-135 0 -170 -37t-35 -139v-543l397 406q156 158 156 229q0 84 -166 84v15h565v-15q-156 0 -297 -98q-80 -59 -245 -227l-142 -146l434 -590q76 -102 143 -140t144 -38v-12h-338l-491 670
l-160 -164v-316q0 -102 35 -139t170 -37v-14h-565z" />
    <glyph glyph-name="L" unicode="L" horiz-adv-x="1169" 
d="M66 0v14q135 0 170 37t34 139v885q0 102 -34 139q-35 37 -170 37v15h565v-15q-135 0 -170 -37t-35 -139v-1059h139q285 0 392 109q56 57 84 119t51 166l12 -2l-25 -408h-1013z" />
    <glyph glyph-name="M" unicode="M" horiz-adv-x="1794" 
d="M23 0v14q67 0 103 6t72 39t53 81t36 167t41 559l4 86q8 160 -49 230t-201 69v15h371l485 -1018l412 1018h352v-15q-135 0 -173 -49t-32 -155l37 -846q4 -107 47 -147t166 -40v-14h-565v14q125 0 164 45t32 142l-47 970l-450 -1114h-15l-510 1043l-10 -234
q-28 -563 -12 -687t86 -150q37 -14 115 -15v-14h-512z" />
    <glyph glyph-name="N" unicode="N" horiz-adv-x="1486" 
d="M55 0v14q176 0 211 125t35 660v153q0 166 -47 233t-199 66v15h348l783 -1006v139q0 529 -20 663t-99 169q-43 20 -127 20v15h512v-15q-176 0 -211 -125t-35 -659v-471l-12 -4l-872 1122v-248q0 -528 20 -662t98 -169q43 -20 127 -21v-14h-512z" />
    <glyph glyph-name="O" unicode="O" horiz-adv-x="1499" 
d="M750 -4q127 0 222 52t149 143t80 202t26 240t-26 239q-94 397 -451 398q-128 0 -224 -52t-149 -144q-105 -181 -105 -443t106 -440q54 -91 150 -143t222 -52zM750 -25q-285 -1 -468 191q-184 192 -184 468t184 466t468 190q285 0 468 -190t183 -466t-183 -467
q-183 -192 -468 -192z" />
    <glyph glyph-name="P" unicode="P" horiz-adv-x="1175" 
d="M66 0v14q135 0 170 37t34 139v885q0 102 -34 139q-35 37 -170 37v15h544q510 0 510 -354t-510 -355h-63v16h57q170 1 261 93t91 246t-91 245q-91 92 -261 92h-178v-1059q0 -102 35 -139t170 -37v-14h-565z" />
    <glyph glyph-name="Q" unicode="Q" horiz-adv-x="1499" 
d="M750 -4q127 0 222 52t149 143t80 202t26 240t-26 239q-94 397 -451 398q-128 0 -224 -52t-149 -144q-105 -181 -105 -443t106 -440q54 -91 150 -143t222 -52zM98 636q0 272 184 464q184 190 468 190q285 0 468 -190t183 -460t-167 -456q-167 -188 -431 -207
q86 -10 180 -71q94 -62 177 -118t153 -56q123 0 215 159l14 -8q-123 -225 -307 -225q-97 0 -195 62t-187 124t-161 62q-123 0 -217 -160l-14 8q31 55 58 92q28 37 84 79t122 52q-275 7 -451 197t-176 462z" />
    <glyph glyph-name="R" unicode="R" 
d="M426 631h176q188 0 290 84q101 84 101 230t-100 225t-291 79h-176v-618zM1157 942q0 -298 -479 -319v-7q163 -4 238 -47q40 -23 73 -51t55 -98q23 -70 39 -129t42 -132t67 -110t129 -37v-12h-301q-58 142 -70 184t-30 112q-50 196 -94 236q-66 63 -117 72q-50 10 -105 10
h-178v-424q0 -102 35 -139t170 -37v-14h-565v14q135 0 170 37t34 139v885q0 102 -34 139q-35 37 -170 37v15h542q258 0 404 -81t145 -243z" />
    <glyph glyph-name="S" unicode="S" horiz-adv-x="1118" 
d="M543 -25q-143 0 -396 56l-24 379l14 2q7 -18 23 -70q56 -175 113 -236q78 -81 147 -98q69 -18 137 -18q160 0 242 77t82 193q0 149 -147 230q-65 36 -213 90t-223 101q-157 97 -157 273q1 144 101 240t309 96q55 0 135 -9t120 -12t122 9l28 -375l-12 -2q-2 4 -14 38
q-42 122 -66 154q-24 31 -48 63t-77 66q-84 54 -206 54q-121 0 -195 -73t-74 -178t77 -173t185 -106t218 -80q108 -42 185 -128q77 -84 77 -226t-110 -240t-353 -97z" />
    <glyph glyph-name="T" unicode="T" horiz-adv-x="1273" 
d="M354 0v14q135 0 170 37t35 139v1059h-12q-131 1 -216 -27t-134 -97t-67 -115t-32 -106t-16 -64l-14 2l38 424h1061l39 -424l-14 -2q-45 186 -88 254q-100 156 -377 155h-12v-1059q0 -102 35 -139t170 -37v-14h-566z" />
    <glyph glyph-name="U" unicode="U" horiz-adv-x="1409" 
d="M246 418v657q0 102 -35 139t-170 37v15h565v-15q-135 0 -170 -37t-35 -139v-657q0 -418 342 -418q182 0 284 112q101 112 101 300v37q0 549 -34 675t-209 127v15h506v-15q-174 0 -208 -122t-34 -631v-86q-1 -209 -117 -323t-311 -114t-327 92q-69 48 -108 138
q-40 90 -40 213z" />
    <glyph glyph-name="V" unicode="V" horiz-adv-x="1312" 
d="M-27 1266h568v-15q-127 0 -159 -56t21 -191l320 -807l227 587q106 272 107 355q0 113 -176 112v15h487v-15q-150 0 -225 -108q-63 -90 -172 -367l-305 -782h-13l-399 985q-56 139 -114 206t-167 66v15z" />
    <glyph glyph-name="W" unicode="W" horiz-adv-x="1947" 
d="M-31 1266h568v-15q-127 0 -159 -56t21 -191l320 -807l266 692l-31 90q-47 133 -110 203t-166 69v15h561v-15q-125 0 -156 -55t19 -192l276 -795l211 582q88 246 88 346q0 115 -168 114v15h490v-15q-158 0 -234 -108q-43 -61 -155 -363l-293 -786h-12l-308 860l-335 -860
h-13l-399 985q-56 139 -114 206t-167 66v15z" />
    <glyph glyph-name="X" unicode="X" horiz-adv-x="1327" 
d="M592 1251q-141 0 -135 -83q4 -73 75 -183l181 -289l45 68q109 164 151 244q43 80 43 137q0 106 -149 106v15h563v-15q-170 0 -299 -122t-297 -377l-47 -72l215 -338q98 -156 186 -242t197 -86v-14h-565v14q72 0 106 22q76 49 -45 240l-203 314l-45 -70
q-162 -250 -184 -307t-23 -92q0 -106 150 -107v-14h-563v14q170 0 297 121t307 393l51 78l-190 299q-121 188 -183 248q-98 98 -206 98v15h567v-15z" />
    <glyph glyph-name="Y" unicode="Y" horiz-adv-x="1329" 
d="M387 0v14q68 0 134 25q22 8 36 32q13 25 21 35q14 19 14 93v327l-262 445q-51 86 -89 137t-103 97t-136 46v15h573v-15q-125 0 -149 -58t49 -181l252 -428h6l68 112q131 220 178 312t47 143q0 100 -172 100v15h541v-15q-182 0 -289 -123q-49 -53 -291 -444l-67 -109v-376
q0 -72 10 -88q10 -17 24 -41t36 -31q65 -23 134 -25v-14h-565z" />
    <glyph glyph-name="Z" unicode="Z" horiz-adv-x="1189" 
d="M440 1247q-130 0 -202 -94t-119 -266h-13l25 379h950l4 -4l-825 -1242h506q105 0 165 62q32 33 61 71t54 113q25 76 44 137h12l-39 -403h-989l-2 4l823 1243h-455z" />
    <glyph glyph-name="bracketleft" unicode="[" horiz-adv-x="559" 
d="M145 -344v1761h400v-14h-193q-96 0 -96 -88v-1557q0 -88 96 -88h193v-14h-400z" />
    <glyph glyph-name="backslash" unicode="\" horiz-adv-x="913" 
d="M840 -344l-787 1759l21 8l784 -1759z" />
    <glyph glyph-name="bracketright" unicode="]" horiz-adv-x="559" 
d="M14 -344v14h193q96 0 96 88v1557q0 88 -96 88h-193v14h400v-1761h-400z" />
    <glyph glyph-name="asciicircum" unicode="^" horiz-adv-x="995" 
d="M109 702l-9 5l389 593h17l389 -593l-8 -5l-389 404z" />
    <glyph glyph-name="underscore" unicode="_" horiz-adv-x="1056" 
d="M0 -119v19h1057v-19h-1057z" />
    <glyph glyph-name="grave" unicode="`" horiz-adv-x="598" 
d="M485 963q-53 35 -172 107t-151 99q-61 57 -12 111q20 23 51 24t59 -24t109 -143q81 -117 120 -170z" />
    <glyph glyph-name="a" unicode="a" horiz-adv-x="980" 
d="M412 8q127 0 233 139v230q-117 35 -190 35q-215 0 -215 -207q0 -97 47 -147t125 -50zM360 -23q-122 -1 -196 61t-74 170t90 167t220 59t245 -41v199q0 115 -45 175t-149 60q-141 0 -205 -112q33 -8 53 -35q20 -28 20 -64q1 -36 -27 -64t-69 -28t-69 33t-27 78
q0 82 93 144q92 63 232 63t237 -69t97 -210v-463q0 -84 62 -84q51 0 90 47t55 89l15 -9q-74 -160 -207 -159q-61 0 -105 35q-43 36 -51 102q-107 -144 -285 -144z" />
    <glyph glyph-name="b" unicode="b" horiz-adv-x="1048" 
d="M518 -6q137 0 211 122t74 292t-70 280t-202 109q-132 0 -228 -117v-559q78 -127 215 -127zM528 -23q-143 0 -252 78l-106 -78l-8 5v1224q0 72 -36 91t-128 20v12l305 41v-661q115 133 281 133t270 -123t104 -309t-124 -310q-124 -123 -306 -123z" />
    <glyph glyph-name="c" unicode="c" horiz-adv-x="903" 
d="M475 -23q-174 0 -279 117q-106 118 -106 310t124 315t294 123q129 0 220 -73t91 -163q-1 -47 -27 -82t-69 -35t-70 28t-27 68q0 39 26 67q24 28 63 32q-55 141 -189 141q-134 1 -207 -119t-73 -304t72 -286q72 -104 188 -104q118 0 196 62t117 166l15 -7
q-44 -109 -132 -183t-227 -73z" />
    <glyph glyph-name="d" unicode="d" horiz-adv-x="1073" 
d="M516 20q135 0 223 132v473q0 80 -60 140t-153 60q-124 1 -202 -115t-78 -292q0 -226 114 -336q64 -62 156 -62zM462 -23q-165 0 -268 125q-104 125 -104 311q0 185 120 307t287 122t242 -101v465q0 72 -36 91t-128 20v12l306 41v-1245q-1 -72 35 -91t128 -20v-14h-305
v125q-112 -148 -277 -148z" />
    <glyph glyph-name="e" unicode="e" horiz-adv-x="944" 
d="M492 825q-102 0 -167 -94t-77 -246h448q-5 340 -204 340zM485 -23q-184 0 -289 129q-106 129 -106 317q0 187 118 303t276 116t266 -96t106 -279h-610q-10 -209 62 -331t218 -122q113 0 195 68t121 156l14 -7q-44 -102 -136 -178t-235 -76z" />
    <glyph glyph-name="f" unicode="f" horiz-adv-x="618" 
d="M51 0v14q92 0 128 20t36 91v676h-178v18h178v176q0 175 94 265q95 90 215 90t190 -56t70 -135q0 -47 -26 -75t-67 -28t-67 28t-26 66q0 80 72 97q-39 90 -135 90q-178 0 -179 -288v-230h228v-18h-228v-676q0 -72 36 -91t128 -20v-14h-469z" />
    <glyph glyph-name="g" unicode="g" horiz-adv-x="890" 
d="M442 -342q148 0 230 61t82 141t-102 110q-78 22 -184 32t-140 14q-84 -14 -136 -59t-53 -123q0 -78 77 -127q78 -49 226 -49zM436 827q-100 1 -146 -79t-46 -202t46 -202t146 -80t147 80q46 80 46 202t-46 202q-47 79 -147 79zM856 -94q0 -122 -114 -192t-304 -70
t-301 50t-111 138t86 132q85 44 187 56q-154 29 -154 115q0 94 146 137q-94 35 -149 107q-54 72 -54 166q0 129 97 213t251 84q104 0 191 -43q50 91 78 149t50 72q21 14 43 14t44 -19t20 -48q0 -29 -23 -53t-99 -64q-76 -41 -101 -57q145 -86 145 -248q0 -129 -97 -212
t-251 -83q-72 0 -129 18q-61 -24 -61 -62t62 -54t152 -22t181 -21t153 -65t62 -138z" />
    <glyph glyph-name="h" unicode="h" horiz-adv-x="1075" 
d="M29 0v14q92 0 128 20t36 91v1081q0 72 -36 91t-128 20v12l305 41v-713q178 184 330 185q98 0 164 -65t65 -195v-457q0 -72 36 -91t128 -20v-14h-469v14q92 0 128 20t36 91v457q0 195 -162 194q-119 0 -256 -141v-510q0 -72 36 -91t128 -20v-14h-469z" />
    <glyph glyph-name="i" unicode="i" horiz-adv-x="552" 
d="M51 0v14q92 0 128 20t36 91v551q0 72 -36 91t-128 19v13l305 41v-715q0 -72 36 -91t128 -20v-14h-469zM270 1028q-42 0 -72 28t-30 70t30 70q30 27 72 27t72 -27q29 -27 29 -70q0 -42 -29 -70t-72 -28z" />
    <glyph glyph-name="j" unicode="j" horiz-adv-x="497" 
d="M250 1028q-43 0 -73 28t-30 70t30 70q30 27 73 27t72 -27q28 -27 28 -70q0 -42 -28 -70t-72 -28zM195 676q0 72 -36 91t-128 19v13l305 41v-830q0 -143 -78 -231t-235 -139l-9 6q63 37 113 84t63 153q4 35 5 99v694z" />
    <glyph glyph-name="k" unicode="k" horiz-adv-x="1017" 
d="M29 0v14q92 0 128 20t36 91v1081q0 72 -36 91t-128 20v12l305 41v-1020l219 223q106 109 106 160q0 72 -127 72v14h453v-14q-113 0 -209 -65t-213 -181l-35 -35l267 -379q92 -131 233 -131v-14h-297l-303 422l-94 -94v-203q0 -72 36 -91t128 -20v-14h-469z" />
    <glyph glyph-name="l" unicode="l" horiz-adv-x="534" 
d="M33 0v14q92 0 128 20t36 91v1081q0 72 -36 91t-128 20v12l305 41v-1245q0 -72 36 -91t128 -20v-14h-469z" />
    <glyph glyph-name="m" unicode="m" horiz-adv-x="1619" 
d="M47 0v14q92 0 128 20t36 91v551q0 72 -36 91t-128 19v13l305 41v-172q168 174 320 174q80 0 138 -45t77 -135q174 180 327 180q98 0 160 -65t64 -195v-457q0 -72 36 -91t128 -20v-14h-469v14q92 0 128 20t35 91v457q0 195 -155 194q-119 0 -250 -135q4 -37 4 -59v-457
q0 -72 36 -91t128 -20v-14h-469v14q92 0 128 20t36 91v457q0 195 -156 194q-119 0 -246 -131v-520q0 -72 36 -91t128 -20v-14h-469z" />
    <glyph glyph-name="n" unicode="n" horiz-adv-x="1093" 
d="M47 0v14q92 0 128 20t36 91v551q0 72 -36 91t-128 19v13l305 41v-183q178 184 330 185q98 0 164 -65t65 -195v-457q0 -72 36 -91t128 -20v-14h-469v14q92 0 128 20t36 91v457q0 195 -162 194q-119 0 -256 -141v-510q0 -72 36 -91t128 -20v-14h-469z" />
    <glyph glyph-name="o" unicode="o" horiz-adv-x="1015" 
d="M508 -4q132 0 196 114t64 300t-65 300t-195 114t-196 -114q-64 -114 -64 -300t64 -300t196 -114zM508 -23q-162 0 -290 115t-128 318q0 204 128 318t290 114t290 -115t128 -317t-128 -318q-128 -115 -290 -115z" />
    <glyph glyph-name="p" unicode="p" horiz-adv-x="1075" 
d="M560 799q-136 0 -224 -133v-471q0 -81 60 -141t153 -60q127 0 204 116t77 284t-67 286q-67 119 -203 119zM31 -334v15q92 0 128 19t36 91v885q0 72 -36 91t-128 19v13l305 41v-148q112 150 276 150t268 -127t105 -310q0 -183 -114 -305t-289 -123q-175 0 -246 99v-285
q0 -72 36 -91t128 -19v-15h-469z" />
    <glyph glyph-name="q" unicode="q" horiz-adv-x="1044" 
d="M528 825q-135 0 -209 -122q-73 -121 -73 -291t70 -280t200 -110q131 0 225 111v572q-78 120 -213 120zM578 -334v15q92 0 128 19t35 91v313q-117 -127 -279 -127t-267 123q-105 124 -105 310t124 309t291 123t273 -84l92 80h13v-1047q0 -72 36 -91t128 -19v-15h-469z" />
    <glyph glyph-name="r" unicode="r" horiz-adv-x="763" 
d="M47 0v14q92 0 128 20t36 91v551q0 72 -36 91t-128 19v13l305 41v-238q45 100 119 171q73 71 137 71t92 -31t29 -74q0 -43 -30 -73q-31 -30 -73 -29q-42 0 -72 37t-19 82q-115 -31 -183 -181v-450q0 -72 36 -91t128 -20v-14h-469z" />
    <glyph glyph-name="s" unicode="s" horiz-adv-x="833" 
d="M737 202q-1 -95 -83 -160t-224 -65t-313 37l-17 250l13 2q48 -114 89 -169q81 -109 214 -107q96 0 150 50t54 116t-50 109q-52 42 -126 69l-148 56t-126 84q-51 56 -51 148t74 156t223 64q41 0 98 -6t85 -8t87 8l19 -256l-13 -2q-73 175 -171 226q-51 26 -121 26
t-120 -48q-50 -47 -50 -111q-1 -112 179 -175q75 -27 149 -57q179 -72 179 -237z" />
    <glyph glyph-name="t" unicode="t" horiz-adv-x="645" 
d="M401 -18q-89 0 -147 56q-57 56 -57 159v604h-164v18h164v215l141 21v-236h260v-18h-260v-608q0 -172 127 -173q90 0 176 113l10 -8q-51 -67 -106 -105t-144 -38z" />
    <glyph glyph-name="u" unicode="u" horiz-adv-x="1077" 
d="M414 -23q-98 0 -164 65t-66 196v438q0 72 -36 91t-128 19v13l306 41v-602q0 -195 161 -195q119 0 256 141v492q0 72 -35 91q-36 19 -128 19v13l305 41v-715q0 -72 36 -91t128 -20v-14h-306v160q-175 -183 -329 -183z" />
    <glyph glyph-name="v" unicode="v" horiz-adv-x="978" 
d="M-25 805v14h527v-14q-127 0 -158 -47t12 -133l193 -473l90 225q109 270 109 340q0 88 -144 88v14h397v-14q-141 0 -204 -109q-25 -41 -144 -329l-155 -385h-17l-260 616q-51 119 -101 163t-145 44z" />
    <glyph glyph-name="w" unicode="w" horiz-adv-x="1456" 
d="M-27 805v14h506v-14q-207 0 -125 -180l193 -471l180 456q-40 110 -81 152q-42 43 -118 43v14h486v-14q-123 0 -155 -46t7 -134l176 -467l93 245q90 238 90 310q0 92 -144 92v14h398v-14q-143 0 -205 -109q-10 -18 -121 -301l-164 -413h-16l-234 596l-243 -596h-17
l-260 616q-51 119 -101 163t-145 44z" />
    <glyph glyph-name="x" unicode="x" horiz-adv-x="989" 
d="M6 0v14q125 0 205 80q29 29 174 228l51 69l-145 221q-72 109 -129 151t-154 42v14h496v-14q-90 0 -115 -40t25 -118l121 -184l40 57q109 152 109 201t-33 66t-98 18v14h408v-14q-125 0 -205 -80q-33 -33 -168 -217l-43 -59l155 -234q78 -119 136 -160t159 -41v-14h-503
v14q96 0 118 44t-26 114l-138 205l-47 -66q-117 -160 -117 -211t34 -68q32 -17 98 -18v-14h-408z" />
    <glyph glyph-name="y" unicode="y" horiz-adv-x="985" 
d="M207 -356q-80 0 -80 65q0 76 144 104q56 11 117 48q60 37 87 98l8 21l-260 618q-51 119 -101 163t-145 44v14h527v-14q-127 0 -158 -47t12 -133l193 -480l78 195q125 311 125 377q0 88 -144 88v14h398v-14q-141 0 -205 -109q-18 -29 -158 -364l-184 -445
q-39 -95 -107 -169t-147 -74z" />
    <glyph glyph-name="z" unicode="z" horiz-adv-x="880" 
d="M350 805q-100 0 -158 -87t-81 -198h-13l29 299h647l6 -8l-528 -793h274q176 0 256 275h13l-31 -293h-676l-6 8l528 797h-260z" />
    <glyph glyph-name="braceleft" unicode="{" horiz-adv-x="636" 
d="M602 -356q-198 0 -264 57t-66 158q0 53 21 165q20 112 20 187q0 172 -79 245t-242 72v17q164 1 242 73t79 244q0 76 -20 188t-21 164q0 100 67 158t263 58v-15q-160 -2 -216 -41t-56 -123t60 -251t60 -232q1 -128 -114 -173q-92 -37 -256 -56v-4q282 -32 343 -122
q28 -42 28 -108q-1 -67 -61 -233t-60 -250t56 -123t216 -41v-14z" />
    <glyph glyph-name="bar" unicode="|" horiz-adv-x="311" 
d="M145 -344v1761h21v-1761h-21z" />
    <glyph glyph-name="braceright" unicode="}" horiz-adv-x="636" 
d="M307 -178q0 84 -60 251q-61 167 -61 232q-1 128 115 173q89 36 256 57v4q-282 32 -343 121q-28 42 -28 108t60 232t61 251q0 84 -56 123t-216 41v15q197 0 263 -58t67 -158q-1 -52 -21 -164t-20 -188q0 -172 78 -245t243 -72v-17q-164 0 -243 -72t-78 -245q0 -75 20 -187
t21 -165q0 -99 -67 -157t-263 -58v14q160 2 216 41t56 123z" />
    <glyph glyph-name="asciitilde" unicode="~" horiz-adv-x="995" 
d="M705 481q104 0 141 164l12 -4q-26 -117 -68 -189t-120 -71q-78 0 -197 83t-178 83q-102 0 -141 -164l-13 4q41 186 117 238q35 23 80 22q72 0 190 -83t177 -83z" />
    <glyph glyph-name="exclamdown" unicode="&#xa1;" horiz-adv-x="403" 
d="M201 834q43 0 73 -30t29 -73q0 -43 -30 -72q-31 -29 -73 -29t-71 30q-29 28 -29 71t29 73t72 30zM203 -471q-43 0 -69 33q-26 32 -26 66t40 292t45 541h18q4 -283 44 -541t40 -292q-1 -34 -25 -66q-24 -33 -67 -33z" />
    <glyph glyph-name="cent" unicode="&#xa2;" horiz-adv-x="935" 
d="M506 41v186q-186 0 -296 116q-110 115 -110 307t120 315t286 127v168h20v-168q127 -2 215 -75t88 -161q-1 -47 -27 -82t-69 -35t-69 28t-27 68q0 39 25 67t63 32q-55 141 -189 141t-206 -120q-74 -120 -74 -303t72 -286q72 -104 189 -104t195 62t117 165l15 -6
q-94 -233 -318 -254v-188h-20z" />
    <glyph glyph-name="sterling" unicode="&#xa3;" horiz-adv-x="1146" 
d="M244 2q66 0 108 53t41 154q-53 18 -117 18q-162 0 -161 -114q0 -45 31 -78q32 -33 98 -33zM242 -14q-72 0 -109 36t-37 93t49 93t113 36t133 -15q-8 92 -39 180t-96 250h-139v19h133q-57 154 -57 256q0 158 117 257q118 99 294 99t286 -81t109 -183q-1 -57 -33 -89
t-77 -32t-77 33t-32 79t31 79t76 34q-72 145 -246 146q-145 0 -217 -94t-72 -218t66 -286h436v-19h-430q74 -189 74 -289t-19 -163q18 -4 140 -40t214 -36q93 -1 149 63t58 164h13q-8 -377 -240 -376q-68 0 -123 28t-120 83q-65 54 -101 77q-65 -184 -227 -184z" />
    <glyph glyph-name="yen" unicode="&#xa5;" horiz-adv-x="1419" 
d="M408 0v14q65 0 134 25q22 8 36 32q14 25 21 35q13 20 13 93v204h-348v19h348v119l-67 123h-281v18h271l-158 289q-68 122 -134 201t-180 79v15h551v-15q-118 0 -144 -55t40 -186l223 -426h6l117 202q156 270 156 363q0 102 -172 102v15h518v-15q-164 0 -266 -123
q-33 -39 -220 -354l-55 -92h297v-18h-309l-60 -103v-139h369v-19h-369v-204q1 -69 11 -87t24 -42t36 -31q65 -23 134 -25v-14h-542z" />
    <glyph glyph-name="brokenbar" unicode="&#xa6;" horiz-adv-x="327" 
d="M154 700v717h20v-717h-20zM154 -344v819h20v-819h-20z" />
    <glyph glyph-name="section" unicode="&#xa7;" horiz-adv-x="905" 
d="M346 799q-117 -61 -117 -163t73 -153q73 -52 154 -87q82 -36 111 -50q117 63 117 165t-71 150q-71 49 -154 87q-84 37 -113 51zM758 109q0 -109 -82 -181t-224 -73q-142 0 -240 64q-97 65 -97 149q1 44 29 74t70 30t71 -30t29 -70q-1 -84 -76 -101q63 -104 198 -104
q100 0 158 52q57 52 57 125t-55 125t-133 86t-156 70t-133 95t-55 141t52 138t161 108q-166 88 -166 229q0 109 81 182q81 72 217 72t218 -60t82 -145q0 -47 -27 -75t-69 -29q-42 0 -69 29q-28 28 -28 68t24 69t60 33q-63 98 -167 98t-160 -53t-56 -125t54 -123t131 -85
t153 -71t130 -97t54 -141t-50 -137q-52 -56 -160 -108q174 -88 174 -229z" />
    <glyph glyph-name="dieresis" unicode="&#xa8;" horiz-adv-x="942" 
d="M629 1006q-43 0 -73 30t-30 74q0 43 30 74q30 30 73 30t73 -30t31 -74q-1 -44 -31 -74t-73 -30zM294 1006q-42 0 -73 30t-31 74q0 43 30 74q30 30 73 30t74 -30t31 -73q0 -44 -31 -75q-31 -30 -73 -30z" />
    <glyph glyph-name="copyright" unicode="&#xa9;" horiz-adv-x="1515" 
d="M795 989q-129 0 -193 -101t-63 -254q0 -153 61 -254t188 -101q182 0 283 233l8 -2l-39 -205q-112 -35 -245 -35q-184 0 -292 102t-108 262q0 161 112 262t286 101l170 -10q27 0 79 8l21 -225h-6q-92 219 -262 219zM758 -4q262 0 448 187t186 451t-186 449
q-186 187 -448 187t-448 -186t-187 -450q0 -263 186 -451q187 -187 449 -187zM758 -25q-272 0 -465 193t-193 465t193 465q193 192 465 192t465 -192t193 -465q0 -272 -194 -465q-192 -193 -464 -193z" />
    <glyph glyph-name="ordfeminine" unicode="&#xaa;" horiz-adv-x="1003" 
d="M129 436v17h737v-17h-737zM418 598q111 0 198 119v186q-94 29 -161 29q-182 0 -183 -170q0 -82 40 -123t106 -41zM381 575q-97 -1 -159 51t-62 139t73 136t177 49t206 -32v163q0 197 -161 197q-117 0 -172 -94q25 -4 42 -27t17 -53t-22 -52t-54 -22t-54 27t-22 63
q0 68 76 119t189 51t189 -57t77 -170v-385q0 -74 51 -74q43 0 76 40t47 75l10 -6q-51 -131 -166 -131q-49 0 -84 28t-41 84q-79 -119 -233 -119z" />
    <glyph glyph-name="guillemotleft" unicode="&#xab;" horiz-adv-x="1212" 
d="M1128 47l-591 410v4l591 409l7 -10l-461 -401l461 -402zM649 47l-592 410v4l592 409l6 -10l-460 -401l460 -402z" />
    <glyph glyph-name="uni00AD" unicode="&#xad;" horiz-adv-x="714" 
d="M98 461v18h518v-18h-518z" />
    <glyph glyph-name="registered" unicode="&#xae;" horiz-adv-x="854" 
d="M377 1014h41q86 0 86 76t-86 75h-41v-151zM270 856v6q31 0 39 8t8 35v217q0 27 -8 35t-39 8v6h158q139 0 139 -81q0 -74 -129 -78v-2q65 0 80 -16q14 -16 18 -21q4 -6 11 -33q6 -27 10 -37q12 -41 51 -41v-6h-96q-4 6 -21 68t-31 72q-14 11 -44 12h-39v-103q0 -27 9 -35
t38 -8v-6h-154zM427 711q126 0 214 89t88 214t-88 214t-214 89t-215 -89t-89 -214t89 -214t215 -89zM745 1014q0 -132 -93 -226t-225 -94t-226 93q-95 93 -95 227t94 226q94 93 227 93q132 0 225 -93t93 -226z" />
    <glyph glyph-name="macron" unicode="&#xaf;" horiz-adv-x="829" 
d="M150 1024v59h526v-59h-526z" />
    <glyph glyph-name="degree" unicode="&#xb0;" horiz-adv-x="727" 
d="M212 1060q0 -240 151 -239q151 0 151 240t-152 239q-150 0 -150 -240zM92 1062q0 118 84 184t187 67q103 0 187 -67q84 -68 85 -186q-1 -118 -85 -184t-187 -67q-103 0 -187 67q-84 68 -84 186z" />
    <glyph glyph-name="plusminus" unicode="&#xb1;" horiz-adv-x="1191" 
d="M141 0v20h912v-20h-912zM586 209v446h-445v21h445v446h20v-446h445v-21h-445v-446h-20z" />
    <glyph glyph-name="twosuperior" unicode="&#xb2;" horiz-adv-x="700" 
d="M477 1301q0 75 -38 125t-120 51q-119 0 -169 -111q32 -2 54 -25t22 -55t-22 -54t-56 -22t-55 26q-22 26 -21 60q0 70 74 130q75 60 192 60q118 0 192 -54t74 -136t-56 -138t-129 -89q-218 -98 -286 -190q-29 -39 -37 -91q27 88 135 89q51 0 139 -36t134 -36
q102 0 102 104q0 25 -6 52h10q30 -137 -19 -228q-30 -55 -84 -55q-87 0 -160 88t-146 88q-49 0 -76 -33t-27 -77t8 -58h-12q-29 94 18 177t217 195q58 38 103 102t45 141z" />
    <glyph glyph-name="threesuperior" unicode="&#xb3;" horiz-adv-x="712" 
d="M348 1092q121 0 205 -50t84 -152t-88 -160t-208 -58t-196 50t-75 118q0 36 22 60t52 24q32 0 55 -23t23 -55t-21 -54q-20 -22 -49 -26q41 -86 150 -86t158 59q48 59 48 155t-55 144q-55 49 -146 49q-35 0 -63 -6l-29 -6q-25 -1 -25 19t25 20q2 0 30 -8t60 -8q84 0 131 56
t47 139t-41 133q-42 50 -134 50t-138 -85q27 -4 45 -27q18 -24 18 -54q-1 -30 -23 -53t-52 -23t-54 24q-23 22 -22 59q0 68 75 119t187 51t190 -51q78 -52 78 -142t-72 -144t-192 -54h-4v-4h4z" />
    <glyph glyph-name="acute" unicode="&#xb4;" horiz-adv-x="598" 
d="M123 963l-4 4q39 53 117 167t109 142q32 29 63 28t51 -24q49 -53 -13 -111q-38 -34 -154 -102q-116 -69 -169 -104z" />
    <glyph glyph-name="mu" unicode="&#xb5;" horiz-adv-x="1091" 
d="M258 -389q-121 0 -119 338v856l142 24v-591q0 -195 161 -195q119 0 256 141v621l142 24v-677q0 -129 90 -129q41 0 94 38l4 -12q-80 -66 -176 -65q-154 0 -154 176q-176 -182 -334 -182t-208 147v-100q0 -126 122 -275q40 -49 39 -82q0 -57 -59 -57z" />
    <glyph glyph-name="paragraph" unicode="&#xb6;" horiz-adv-x="987" 
d="M483 -121v737q-195 0 -305 92t-110 231q0 138 113 232q114 94 292 95h432v-17h-121v-1370h-18v1370h-262v-1370h-21z" />
    <glyph glyph-name="periodcentered" unicode="&#xb7;" horiz-adv-x="460" 
d="M231 352q-43 0 -73 30t-29 73q0 43 30 71q31 28 73 29q42 0 71 -29q29 -30 29 -72t-29 -72t-72 -30z" />
    <glyph glyph-name="cedilla" unicode="&#xb8;" horiz-adv-x="641" 
d="M512 -268q0 -74 -68 -113t-174 -39t-196 64l6 10q72 -45 148 -45t118 35t43 89q0 54 -31 87t-80 33t-85 -17l-5 4l111 142h20l-90 -117q37 12 107 12t123 -36q53 -35 53 -109z" />
    <glyph glyph-name="onesuperior" unicode="&#xb9;" horiz-adv-x="446" 
d="M59 686v8q74 0 103 26t28 91v516q0 61 -57 62h-92v8q166 12 260 76l4 -3v-661q0 -67 27 -91t100 -24v-8h-373z" />
    <glyph glyph-name="ordmasculine" unicode="&#xba;" horiz-adv-x="1011" 
d="M137 436v17h737v-17h-737zM506 590q104 0 156 94q51 94 51 250t-51 250q-52 94 -156 94t-156 -94t-51 -250q-1 -156 51 -250t156 -94zM506 575q-135 1 -243 97q-107 96 -107 263t106 261t244 94t244 -94t106 -261t-108 -263t-242 -97z" />
    <glyph glyph-name="guillemotright" unicode="&#xbb;" horiz-adv-x="1212" 
d="M563 47l-6 10l461 402l-461 401l6 10l592 -409v-4zM84 47l-6 10l461 402l-461 401l6 10l592 -409v-4z" />
    <glyph glyph-name="onequarter" unicode="&#xbc;" horiz-adv-x="1538" 
d="M1098 0v8q76 0 104 26t27 91v82h-371l-4 8l133 147q43 47 81 123t38 152q0 119 -88 160q106 2 172 -37t66 -90q0 -52 -34 -96t-111 -114t-107 -102l-132 -139h357v154l108 110h6v-264q47 0 74 7t29 7q23 0 22 -20q0 -18 -22 -18l-29 6q-29 6 -74 6v-84q0 -67 27 -91
t100 -24v-8h-372zM311 -20l-14 10l940 1292l14 -8zM106 481v8q74 0 103 26t29 91v516q0 61 -58 62h-92v8q166 12 260 76l4 -2v-662q0 -66 27 -90t100 -25v-8h-373z" />
    <glyph glyph-name="onehalf" unicode="&#xbd;" horiz-adv-x="1605" 
d="M305 -20l-14 10l940 1292l14 -8zM100 481v8q74 0 103 26t28 91v516q0 61 -57 62h-92v8q166 12 260 76l4 -2v-662q0 -66 27 -90t100 -25v-8h-373zM1374 614q0 76 -38 126t-119 51q-119 0 -170 -111q33 -2 55 -25t20 -55q0 -32 -22 -54t-54 -22q-34 0 -56 26t-21 60
q0 70 74 130q75 60 192 60t191 -54q74 -56 75 -137q0 -81 -56 -137t-129 -89q-218 -98 -286 -190q-29 -39 -37 -91q27 88 135 88q50 0 138 -36t135 -35q102 0 102 104q0 23 -6 51h10q30 -137 -19 -227q-30 -55 -84 -55q-89 0 -161 88t-145 88q-49 0 -76 -33t-27 -77t9 -58
h-13q-29 94 18 177t217 195q58 38 103 102t45 140z" />
    <glyph glyph-name="threequarters" unicode="&#xbe;" horiz-adv-x="1650" 
d="M1210 0v8q76 0 104 26t27 91v82h-370l-4 8l133 147q43 47 81 123t38 152q0 119 -89 160q106 2 172 -37t66 -90q0 -52 -34 -96t-110 -114t-108 -102l-131 -139h356v154l109 110h6v-264q47 0 74 7t29 7q23 0 22 -20q0 -18 -22 -18q-2 0 -31 6t-72 6v-84q0 -67 27 -91
t100 -24v-8h-373zM424 -20l-14 10l940 1292l14 -8zM371 887q121 0 205 -49q84 -48 83 -152q0 -104 -88 -162t-208 -57q-119 0 -195 50t-76 118q0 35 22 59t54 25q32 0 54 -23q22 -22 22 -54t-20 -54t-50 -27q40 -86 150 -86q110 -1 158 59t48 155t-55 145t-145 49
q-35 0 -64 -6l-28 -7q-25 0 -25 20t25 19q2 0 30 -8t60 -8q84 0 131 56q47 55 47 139t-41 134t-121 50q-106 0 -151 -86q27 -4 45 -27t18 -53t-23 -54q-23 -22 -53 -22t-54 23q-22 23 -22 59q0 68 75 119t187 51t190 -51t79 -141q0 -90 -73 -145q-73 -54 -191 -54h-4v-4h4z
" />
    <glyph glyph-name="questiondown" unicode="&#xbf;" horiz-adv-x="935" 
d="M498 834q42 0 72 -30t30 -73t-30 -72t-72 -29t-72 30q-29 28 -29 71t29 73t72 30zM477 -471q-160 0 -286 94t-125 254q0 274 419 371l7 213h12l6 -223q-283 -70 -283 -357q0 -150 67 -245t206 -95q170 0 254 142q-41 5 -68 37t-27 76t32 77t76 33t77 -32t33 -85
q0 -104 -120 -182t-280 -78z" />
    <glyph glyph-name="Agrave" unicode="&#xc0;" 
d="M825 1372q-53 35 -171 106t-152 101q-61 57 -13 111q19 24 51 24t57 -22t57 -66t84 -121q52 -76 91 -129zM354 467h496l-250 600zM-59 0v14q108 0 175 57t98 119t91 218l357 864h12l411 -977q57 -137 119 -209t170 -72v-14h-577v14q244 0 137 252l-76 180h-512l-22 -57
q-110 -268 -51 -321q58 -52 155 -54v-14h-487z" />
    <glyph glyph-name="Aacute" unicode="&#xc1;" 
d="M514 1372l-4 4q39 53 118 168t109 143q31 29 62 27t51 -24q49 -53 -12 -111q-33 -29 -152 -100q-119 -72 -172 -107zM354 467h496l-250 600zM-59 0v14q108 0 175 57t98 119t91 218l357 864h12l411 -977q57 -137 119 -209t170 -72v-14h-577v14q244 0 137 252l-76 180h-512
l-22 -57q-110 -268 -51 -321q58 -52 155 -54v-14h-487z" />
    <glyph glyph-name="Acircumflex" unicode="&#xc2;" 
d="M381 1372l-4 4l225 271q25 31 60 31t59 -31l225 -271l-4 -4l-280 158zM354 467h496l-250 600zM-59 0v14q108 0 175 57t98 119t91 218l357 864h12l411 -977q57 -137 119 -209t170 -72v-14h-577v14q244 0 137 252l-76 180h-512l-22 -57q-110 -268 -51 -321q58 -52 155 -54
v-14h-487z" />
    <glyph glyph-name="Atilde" unicode="&#xc3;" 
d="M512 1667q53 0 163 -62q110 -63 156 -63t75 26t36 105h10q-23 -254 -153 -254q-53 1 -163 63t-156 62t-68 -20t-31 -45q-8 -25 -12 -66h-11q23 254 154 254zM354 467h496l-250 600zM-59 0v14q108 0 175 57t98 119t91 218l357 864h12l411 -977q57 -137 119 -209t170 -72
v-14h-577v14q244 0 137 252l-76 180h-512l-22 -57q-110 -268 -51 -321q58 -52 155 -54v-14h-487z" />
    <glyph glyph-name="Adieresis" unicode="&#xc4;" 
d="M821 1415q-43 0 -73 31t-29 74q0 44 30 74q31 30 73 30t73 -31t31 -73t-31 -74q-31 -31 -74 -31zM486 1415q-42 0 -72 31t-31 74q0 44 30 74q31 30 73 30t73 -30t31 -74t-31 -74q-31 -31 -73 -31zM354 467h496l-250 600zM-59 0v14q108 0 175 57t98 119t91 218l357 864h12
l411 -977q57 -137 119 -209t170 -72v-14h-577v14q244 0 137 252l-76 180h-512l-22 -57q-110 -268 -51 -321q58 -52 155 -54v-14h-487z" />
    <glyph glyph-name="Aring" unicode="&#xc5;" 
d="M656 1370q96 0 96 177t-96 177t-95 -177q0 -177 95 -177zM657 1360q-82 0 -140 52t-58 134t58 135t140 53q83 0 141 -52q58 -54 58 -136t-58 -134t-141 -52zM354 467h496l-250 600zM-59 0v14q108 0 175 57t98 119t91 218l357 864h12l411 -977q57 -137 119 -209t170 -72
v-14h-577v14q244 0 137 252l-76 180h-512l-22 -57q-110 -268 -51 -321q58 -52 155 -54v-14h-487z" />
    <glyph glyph-name="AE" unicode="&#xc6;" horiz-adv-x="1980" 
d="M999 467v608q0 102 -30 135l-504 -743h534zM-74 0v14q166 0 292 143q100 113 181 251l555 815q-47 29 -159 28v15h1024l24 -359l-12 -2q-29 131 -73 199q-94 145 -453 145h-150v-610h33q227 0 307 46t104 208h13v-524h-13q-25 162 -104 208q-80 46 -307 46h-33v-607h176
q297 0 401 106q54 56 77 111q24 55 49 152l14 -2l-39 -383h-1038v14q135 0 170 37t34 139v259h-546l-39 -60q-180 -265 -104 -340q36 -35 124 -35v-14h-508z" />
    <glyph glyph-name="Ccedilla" unicode="&#xc7;" horiz-adv-x="1347" 
d="M950 -268q0 -74 -68 -113t-174 -39t-196 64l6 10q72 -45 148 -45t118 35t43 89q0 54 -30 87q-31 33 -80 33t-86 -17l-4 4l106 137q-281 11 -458 195t-177 465t193 467t489 186q56 0 150 -9t140 -10t140 15l35 -385h-12q-82 193 -190 284q-109 91 -275 91t-281 -90
q-213 -167 -215 -559q0 -279 119 -458t361 -179q334 0 508 389h12l-68 -342q-197 -61 -450 -62l-86 -110q36 12 106 12t123 -36q53 -35 53 -109z" />
    <glyph glyph-name="Egrave" unicode="&#xc8;" horiz-adv-x="1251" 
d="M791 1372q-53 35 -171 105t-153 102q-61 57 -12 111q20 24 51 24t62 -28t109 -142q78 -115 118 -168zM66 0v14q135 0 170 37t34 139v885q0 102 -34 139q-35 37 -170 37v15h1024l24 -359l-12 -2q-29 131 -73 199q-94 145 -454 145h-149v-610h33q227 0 307 46t104 208h13
v-524h-13q-25 162 -104 208q-80 46 -307 46h-33v-607h176q298 0 400 106q54 56 78 111t48 152l15 -2l-39 -383h-1038z" />
    <glyph glyph-name="Eacute" unicode="&#xc9;" horiz-adv-x="1251" 
d="M541 1372l-4 4q39 53 118 168t109 143q32 29 62 27t51 -24q49 -53 -13 -111q-35 -31 -152 -101q-118 -71 -171 -106zM66 0v14q135 0 170 37t34 139v885q0 102 -34 139q-35 37 -170 37v15h1024l24 -359l-12 -2q-29 131 -73 199q-94 145 -454 145h-149v-610h33
q227 0 307 46t104 208h13v-524h-13q-25 162 -104 208q-80 46 -307 46h-33v-607h176q298 0 400 106q54 56 78 111t48 152l15 -2l-39 -383h-1038z" />
    <glyph glyph-name="Ecircumflex" unicode="&#xca;" horiz-adv-x="1251" 
d="M360 1372l-4 4l226 271q26 31 60 31t58 -31l226 -271l-4 -4l-281 158zM66 0v14q135 0 170 37t34 139v885q0 102 -34 139q-35 37 -170 37v15h1024l24 -359l-12 -2q-29 131 -73 199q-94 145 -454 145h-149v-610h33q227 0 307 46t104 208h13v-524h-13q-25 162 -104 208
q-80 46 -307 46h-33v-607h176q298 0 400 106q54 56 78 111t48 152l15 -2l-39 -383h-1038z" />
    <glyph glyph-name="Edieresis" unicode="&#xcb;" horiz-adv-x="1251" 
d="M823 1415q-43 0 -73 31t-29 74q0 44 30 74q31 30 73 30t73 -31t31 -73t-31 -74q-31 -31 -74 -31zM488 1415q-42 0 -72 31t-31 74q0 44 30 74q31 30 73 30t73 -30t31 -74t-31 -74q-31 -31 -73 -31zM66 0v14q135 0 170 37t34 139v885q0 102 -34 139q-35 37 -170 37v15h1024
l24 -359l-12 -2q-29 131 -73 199q-94 145 -454 145h-149v-610h33q227 0 307 46t104 208h13v-524h-13q-25 162 -104 208q-80 46 -307 46h-33v-607h176q298 0 400 106q54 56 78 111t48 152l15 -2l-39 -383h-1038z" />
    <glyph glyph-name="Igrave" unicode="&#xcc;" horiz-adv-x="696" 
d="M514 1372q-53 35 -169 105t-155 102q-61 57 -12 111q20 24 51 24t57 -22t57 -66q32 -44 84 -121q52 -76 91 -129zM66 0v14q135 0 170 37t34 139v885q0 102 -34 139q-35 37 -170 37v15h565v-15q-135 0 -170 -37t-35 -139v-885q0 -102 35 -139t170 -37v-14h-565z" />
    <glyph glyph-name="Iacute" unicode="&#xcd;" horiz-adv-x="696" 
d="M180 1372l-4 4q39 53 118 168t109 143q31 29 62 27t51 -24q49 -53 -12 -111q-33 -29 -152 -100q-119 -72 -172 -107zM66 0v14q135 0 170 37t34 139v885q0 102 -34 139q-35 37 -170 37v15h565v-15q-135 0 -170 -37t-35 -139v-885q0 -102 35 -139t170 -37v-14h-565z" />
    <glyph glyph-name="Icircumflex" unicode="&#xce;" horiz-adv-x="696" 
d="M68 1372l-5 4l226 271q25 31 59 31t60 -31l225 -271l-4 -4l-281 158zM66 0v14q135 0 170 37t34 139v885q0 102 -34 139q-35 37 -170 37v15h565v-15q-135 0 -170 -37t-35 -139v-885q0 -102 35 -139t170 -37v-14h-565z" />
    <glyph glyph-name="Idieresis" unicode="&#xcf;" horiz-adv-x="696" 
d="M516 1415q-43 0 -73 31t-29 74q0 44 30 74t72 30q43 0 74 -31t31 -73t-31 -74q-31 -31 -74 -31zM181 1415q-43 0 -73 31t-30 74q0 44 30 74t72 30t74 -30q31 -30 31 -74t-31 -74q-31 -31 -73 -31zM66 0v14q135 0 170 37t34 139v885q0 102 -34 139q-35 37 -170 37v15h565
v-15q-135 0 -170 -37t-35 -139v-885q0 -102 35 -139t170 -37v-14h-565z" />
    <glyph glyph-name="Eth" unicode="&#xd0;" horiz-adv-x="1468" 
d="M428 16h236q262 0 396 169t134 448t-134 447t-396 169h-236v-604h397v-18h-397v-611zM68 0v14q135 0 170 37t34 139v437h-157v18h157v430q0 102 -34 139q-35 37 -170 37v15h596q319 0 512 -173q192 -173 192 -459t-192 -460t-512 -174h-596z" />
    <glyph glyph-name="Ntilde" unicode="&#xd1;" horiz-adv-x="1486" 
d="M627 1667q53 0 163 -62q110 -63 156 -63t68 20q23 20 30 46q8 25 13 65h10q-23 -254 -154 -254q-53 1 -163 63t-155 62q-81 0 -99 -65q-8 -25 -13 -66h-10q23 254 154 254zM55 0v14q176 0 211 125t35 660v153q0 166 -47 233t-199 66v15h348l783 -1006v139q0 529 -20 663
t-99 169q-43 20 -127 20v15h512v-15q-176 0 -211 -125t-35 -659v-471l-12 -4l-872 1122v-248q0 -528 20 -662t98 -169q43 -20 127 -21v-14h-512z" />
    <glyph glyph-name="Ograve" unicode="&#xd2;" horiz-adv-x="1499" 
d="M903 1393q-53 35 -172 107t-151 99q-61 57 -13 111q20 23 51 24q30 0 56 -22t58 -66t84 -120t91 -129zM750 -4q127 0 222 52t149 143t80 202t26 240t-26 239q-94 397 -451 398q-128 0 -224 -52t-149 -144q-105 -181 -105 -443t106 -440q54 -91 150 -143t222 -52zM750 -25
q-285 -1 -468 191q-184 192 -184 468t184 466t468 190q285 0 468 -190t183 -466t-183 -467q-183 -192 -468 -192z" />
    <glyph glyph-name="Oacute" unicode="&#xd3;" horiz-adv-x="1499" 
d="M580 1393l-5 4q39 53 119 169t110 142q30 27 60 26t51 -24q49 -53 -12 -111q-38 -34 -154 -102q-116 -69 -169 -104zM750 -4q127 0 222 52t149 143t80 202t26 240t-26 239q-94 397 -451 398q-128 0 -224 -52t-149 -144q-105 -181 -105 -443t106 -440q54 -91 150 -143
t222 -52zM750 -25q-285 -1 -468 191q-184 192 -184 468t184 466t468 190q285 0 468 -190t183 -466t-183 -467q-183 -192 -468 -192z" />
    <glyph glyph-name="Ocircumflex" unicode="&#xd4;" horiz-adv-x="1499" 
d="M748 1698q35 0 59 -31l225 -270l-4 -4l-280 157l-281 -157l-4 4l225 270q25 31 60 31zM750 -4q127 0 222 52t149 143t80 202t26 240t-26 239q-94 397 -451 398q-128 0 -224 -52t-149 -144q-105 -181 -105 -443t106 -440q54 -91 150 -143t222 -52zM750 -25
q-285 -1 -468 191q-184 192 -184 468t184 466t468 190q285 0 468 -190t183 -466t-183 -467q-183 -192 -468 -192z" />
    <glyph glyph-name="Otilde" unicode="&#xd5;" horiz-adv-x="1499" 
d="M586 1688q53 0 163 -62q109 -62 155 -63q46 0 69 20t31 45t12 66h10q-23 -254 -154 -254q-52 0 -162 62t-156 62t-69 -20t-31 -45t-12 -65h-10q23 254 154 254zM750 -4q127 0 222 52t149 143t80 202t26 240t-26 239q-94 397 -451 398q-128 0 -224 -52t-149 -144
q-105 -181 -105 -443t106 -440q54 -91 150 -143t222 -52zM750 -25q-285 -1 -468 191q-184 192 -184 468t184 466t468 190q285 0 468 -190t183 -466t-183 -467q-183 -192 -468 -192z" />
    <glyph glyph-name="Odieresis" unicode="&#xd6;" horiz-adv-x="1499" 
d="M915 1436q-43 0 -73 30t-29 74q0 43 30 74q31 31 73 31t73 -31t31 -74q0 -44 -31 -74t-74 -30zM580 1645q44 0 74 -30t30 -74q0 -45 -30 -75t-73 -30q-42 0 -73 30t-31 74q0 43 30 74t73 31zM750 -4q127 0 222 52t149 143t80 202t26 240t-26 239q-94 397 -451 398
q-128 0 -224 -52t-149 -144q-105 -181 -105 -443t106 -440q54 -91 150 -143t222 -52zM750 -25q-285 -1 -468 191q-184 192 -184 468t184 466t468 190q285 0 468 -190t183 -466t-183 -467q-183 -192 -468 -192z" />
    <glyph glyph-name="multiply" unicode="&#xd7;" horiz-adv-x="958" 
d="M121 127l-15 14l359 359l-359 358l15 14l358 -358l359 358l14 -14l-358 -358l358 -359l-14 -14l-359 358z" />
    <glyph glyph-name="Oslash" unicode="&#xd8;" horiz-adv-x="1501" 
d="M752 1270q-128 0 -224 -52t-149 -144q-105 -181 -105 -444t99 -427l747 878q-124 189 -368 189zM752 -4q127 0 222 52t149 143q106 179 106 443q0 265 -99 429l-747 -877q123 -190 369 -190zM752 -25q-246 0 -422 148l-144 -168l-14 12l143 168q-215 193 -215 483
t184 482q184 190 468 190q246 0 419 -147l144 168l14 -15l-141 -166q215 -193 215 -482t-183 -481t-468 -192z" />
    <glyph glyph-name="Ugrave" unicode="&#xd9;" horiz-adv-x="1409" 
d="M868 1372q-53 35 -171 106t-152 101q-61 57 -13 111q20 24 52 24t56 -22q25 -22 57 -66t84 -121q52 -76 91 -129zM246 418v657q0 102 -35 139t-170 37v15h565v-15q-135 0 -170 -37t-35 -139v-657q0 -418 342 -418q182 0 284 112q101 112 101 300v37q0 549 -34 675
t-209 127v15h506v-15q-174 0 -208 -122t-34 -631v-86q-1 -209 -117 -323t-311 -114t-327 92q-69 48 -108 138q-40 90 -40 213z" />
    <glyph glyph-name="Uacute" unicode="&#xda;" horiz-adv-x="1409" 
d="M618 1372l-4 4q39 53 118 168t110 143q32 29 62 27t50 -24q49 -53 -12 -111q-35 -31 -153 -101q-118 -71 -171 -106zM246 418v657q0 102 -35 139t-170 37v15h565v-15q-135 0 -170 -37t-35 -139v-657q0 -418 342 -418q182 0 284 112q101 112 101 300v37q0 549 -34 675
t-209 127v15h506v-15q-174 0 -208 -122t-34 -631v-86q-1 -209 -117 -323t-311 -114t-327 92q-69 48 -108 138q-40 90 -40 213z" />
    <glyph glyph-name="Ucircumflex" unicode="&#xdb;" horiz-adv-x="1409" 
d="M455 1372l-4 4l225 271q26 31 60 31t59 -31l225 -271l-4 -4l-281 158zM246 418v657q0 102 -35 139t-170 37v15h565v-15q-135 0 -170 -37t-35 -139v-657q0 -418 342 -418q182 0 284 112q101 112 101 300v37q0 549 -34 675t-209 127v15h506v-15q-174 0 -208 -122t-34 -631
v-86q-1 -209 -117 -323t-311 -114t-327 92q-69 48 -108 138q-40 90 -40 213z" />
    <glyph glyph-name="Udieresis" unicode="&#xdc;" horiz-adv-x="1409" 
d="M903 1415q-43 0 -73 31t-29 74q-1 44 29 74t73 30t74 -31t31 -73t-31 -74q-31 -31 -74 -31zM568 1415q-42 0 -72 31t-31 74q0 44 30 74q31 30 73 30t73 -30t31 -74t-31 -74q-31 -31 -73 -31zM246 418v657q0 102 -35 139t-170 37v15h565v-15q-135 0 -170 -37t-35 -139
v-657q0 -418 342 -418q182 0 284 112q101 112 101 300v37q0 549 -34 675t-209 127v15h506v-15q-174 0 -208 -122t-34 -631v-86q-1 -209 -117 -323t-311 -114t-327 92q-69 48 -108 138q-40 90 -40 213z" />
    <glyph glyph-name="Yacute" unicode="&#xdd;" horiz-adv-x="1329" 
d="M555 1372l-4 4q39 53 118 168t109 143q31 29 62 27t51 -24q49 -53 -12 -111q-33 -29 -152 -100q-119 -72 -172 -107zM387 0v14q68 0 134 25q22 8 36 32q13 25 21 35q14 19 14 93v327l-262 445q-51 86 -89 137t-103 97t-136 46v15h573v-15q-125 0 -149 -58t49 -181
l252 -428h6l68 112q131 220 178 312t47 143q0 100 -172 100v15h541v-15q-182 0 -289 -123q-49 -53 -291 -444l-67 -109v-376q0 -72 10 -88q10 -17 24 -41t36 -31q65 -23 134 -25v-14h-565z" />
    <glyph glyph-name="Thorn" unicode="&#xde;" horiz-adv-x="1183" 
d="M66 0v14q135 0 170 37t34 139v885q0 102 -34 139q-35 37 -170 37v15h565v-15q-135 0 -170 -37t-35 -139v-76h184q510 0 510 -354t-510 -354h-63v16h57q170 0 261 92t91 246t-91 246t-261 92h-178v-793q0 -102 35 -139t170 -37v-14h-565z" />
    <glyph glyph-name="germandbls" unicode="&#xdf;" horiz-adv-x="1136" 
d="M51 0v14q92 0 128 20t36 91v676h-178v18h178v176q0 175 97 265t241 90q98 0 174 -45t116 -115q70 -122 85 -254l-45 -6q-256 -34 -256 -187q0 -125 158 -216q67 -37 134 -77t113 -100t45 -150q1 -89 -71 -156t-222 -67t-288 37l-17 250l13 2q43 -128 84 -179
q42 -51 70 -65q65 -32 141 -32q77 0 121 50t44 114q0 114 -155 202q-65 37 -131 77q-66 39 -111 101t-45 152t73 148t210 94q-1 10 -9 61t-15 93t-28 98q-22 55 -55 93q-55 64 -147 64q-91 0 -137 -81t-46 -207v-1049h-305z" />
    <glyph glyph-name="agrave" unicode="&#xe0;" horiz-adv-x="980" 
d="M625 963q-53 35 -171 106t-153 100q-61 57 -12 111q20 23 51 24t60 -25t110 -143q80 -116 119 -169zM412 8q127 0 233 139v230q-117 35 -190 35q-215 0 -215 -207q0 -97 47 -147t125 -50zM360 -23q-122 -1 -196 61t-74 170t90 167t220 59t245 -41v199q0 115 -45 175
t-149 60q-141 0 -205 -112q33 -8 53 -35q20 -28 20 -64q1 -36 -27 -64t-69 -28t-69 33t-27 78q0 82 93 144q92 63 232 63t237 -69t97 -210v-463q0 -84 62 -84q51 0 90 47t55 89l15 -9q-74 -160 -207 -159q-61 0 -105 35q-43 36 -51 102q-107 -144 -285 -144z" />
    <glyph glyph-name="aacute" unicode="&#xe1;" horiz-adv-x="980" 
d="M315 963l-4 4q39 53 117 167t110 143q32 28 62 27t51 -24q49 -53 -12 -111q-34 -30 -152 -101q-119 -70 -172 -105zM412 8q127 0 233 139v230q-117 35 -190 35q-215 0 -215 -207q0 -97 47 -147t125 -50zM360 -23q-122 -1 -196 61t-74 170t90 167t220 59t245 -41v199
q0 115 -45 175t-149 60q-141 0 -205 -112q33 -8 53 -35q20 -28 20 -64q1 -36 -27 -64t-69 -28t-69 33t-27 78q0 82 93 144q92 63 232 63t237 -69t97 -210v-463q0 -84 62 -84q51 0 90 47t55 89l15 -9q-74 -160 -207 -159q-61 0 -105 35q-43 36 -51 102q-107 -144 -285 -144z
" />
    <glyph glyph-name="acircumflex" unicode="&#xe2;" horiz-adv-x="980" 
d="M468 1268q34 0 58 -31l226 -270l-4 -4l-281 157l-281 -157l-4 4l226 270q26 31 60 31zM412 8q127 0 233 139v230q-117 35 -190 35q-215 0 -215 -207q0 -97 47 -147t125 -50zM360 -23q-122 -1 -196 61t-74 170t90 167t220 59t245 -41v199q0 115 -45 175t-149 60
q-141 0 -205 -112q33 -8 53 -35q20 -28 20 -64q1 -36 -27 -64t-69 -28t-69 33t-27 78q0 82 93 144q92 63 232 63t237 -69t97 -210v-463q0 -84 62 -84q51 0 90 47t55 89l15 -9q-74 -160 -207 -159q-61 0 -105 35q-43 36 -51 102q-107 -144 -285 -144z" />
    <glyph glyph-name="atilde" unicode="&#xe3;" horiz-adv-x="980" 
d="M642 1133q81 0 99 65q8 25 13 66h10q-23 -254 -154 -254q-53 0 -163 62q-109 62 -155 62t-69 -20t-31 -45t-12 -65h-10q23 254 154 253q52 0 162 -62t156 -62zM412 8q127 0 233 139v230q-117 35 -190 35q-215 0 -215 -207q0 -97 47 -147t125 -50zM360 -23
q-122 -1 -196 61t-74 170t90 167t220 59t245 -41v199q0 115 -45 175t-149 60q-141 0 -205 -112q33 -8 53 -35q20 -28 20 -64q1 -36 -27 -64t-69 -28t-69 33t-27 78q0 82 93 144q92 63 232 63t237 -69t97 -210v-463q0 -84 62 -84q51 0 90 47t55 89l15 -9q-74 -160 -207 -159
q-61 0 -105 35q-43 36 -51 102q-107 -144 -285 -144z" />
    <glyph glyph-name="adieresis" unicode="&#xe4;" horiz-adv-x="980" 
d="M637 1006q-43 0 -73 30t-29 74q0 43 29 74q30 30 73 30t74 -30t31 -74q0 -43 -31 -74q-31 -30 -74 -30zM406 1111q0 -45 -31 -75t-73 -30t-73 30t-30 74q0 43 29 74q30 30 73 30t74 -30t31 -73zM412 8q127 0 233 139v230q-117 35 -190 35q-215 0 -215 -207q0 -97 47 -147
t125 -50zM360 -23q-122 -1 -196 61t-74 170t90 167t220 59t245 -41v199q0 115 -45 175t-149 60q-141 0 -205 -112q33 -8 53 -35q20 -28 20 -64q1 -36 -27 -64t-69 -28t-69 33t-27 78q0 82 93 144q92 63 232 63t237 -69t97 -210v-463q0 -84 62 -84q51 0 90 47t55 89l15 -9
q-74 -160 -207 -159q-61 0 -105 35q-43 36 -51 102q-107 -144 -285 -144z" />
    <glyph glyph-name="aring" unicode="&#xe5;" horiz-adv-x="980" 
d="M456 961q95 0 95 177t-95 177t-95 -177t95 -177zM457 950q-82 0 -141 52q-58 52 -58 134t58 136q58 53 140 53t141 -53q58 -53 58 -135q0 -83 -58 -135t-140 -52zM412 8q127 0 233 139v230q-117 35 -190 35q-215 0 -215 -207q0 -97 47 -147t125 -50zM360 -23
q-122 -1 -196 61t-74 170t90 167t220 59t245 -41v199q0 115 -45 175t-149 60q-141 0 -205 -112q33 -8 53 -35q20 -28 20 -64q1 -36 -27 -64t-69 -28t-69 33t-27 78q0 82 93 144q92 63 232 63t237 -69t97 -210v-463q0 -84 62 -84q51 0 90 47t55 89l15 -9q-74 -160 -207 -159
q-61 0 -105 35q-43 36 -51 102q-107 -144 -285 -144z" />
    <glyph glyph-name="ae" unicode="&#xe6;" horiz-adv-x="1488" 
d="M1036 825q-102 0 -167 -94t-76 -246h456q0 115 -32 193q-32 79 -75 114q-45 33 -106 33zM410 10q156 0 268 191q-33 84 -35 176q-117 35 -190 35q-215 0 -215 -207q0 -95 47 -145t125 -50zM358 -23q-122 -1 -196 61t-74 170t90 167t220 59t245 -41v199q0 115 -45 175
t-149 60q-141 0 -205 -112q33 -8 53 -35q20 -28 20 -64q1 -36 -27 -64t-69 -28t-69 33t-27 78q0 82 93 144t233 63q217 0 286 -148q119 147 303 148q145 0 253 -96t108 -279h-610q-9 -209 63 -331t217 -122q113 0 195 68t120 156l15 -7q-45 -102 -136 -178t-225 -76
q-257 0 -352 203q-125 -203 -330 -203z" />
    <glyph glyph-name="ccedilla" unicode="&#xe7;" horiz-adv-x="903" 
d="M424 -420q-106 0 -195 64l7 10q72 -45 148 -45t118 35q43 35 43 89t-31 87t-80 33t-86 -17l-4 4l107 137q-164 8 -263 124q-98 115 -98 305t124 313t294 123q129 0 220 -73t91 -163q-1 -47 -27 -82t-69 -35t-70 28t-27 68q0 39 26 67q24 28 63 32q-55 141 -189 141
q-134 1 -207 -119t-73 -304t72 -286q72 -104 188 -104q118 0 196 62t117 166l15 -7q-100 -256 -363 -256l-86 -112q37 12 107 12t122 -36q54 -35 54 -109t-69 -113t-175 -39z" />
    <glyph glyph-name="egrave" unicode="&#xe8;" horiz-adv-x="944" 
d="M637 963q-53 35 -171 106t-153 100q-61 57 -12 111q20 23 51 24t59 -24t110 -143q81 -117 120 -170zM492 825q-102 0 -167 -94t-77 -246h448q-5 340 -204 340zM485 -23q-184 0 -289 129q-106 129 -106 317q0 187 118 303t276 116t266 -96t106 -279h-610q-10 -209 62 -331
t218 -122q113 0 195 68t121 156l14 -7q-44 -102 -136 -178t-235 -76z" />
    <glyph glyph-name="eacute" unicode="&#xe9;" horiz-adv-x="944" 
d="M330 963l-4 4q39 53 117 167t109 142q32 29 62 28t52 -24q49 -53 -13 -111q-38 -34 -154 -102q-116 -69 -169 -104zM492 825q-102 0 -167 -94t-77 -246h448q-5 340 -204 340zM485 -23q-184 0 -289 129q-106 129 -106 317q0 187 118 303t276 116t266 -96t106 -279h-610
q-10 -209 62 -331t218 -122q113 0 195 68t121 156l14 -7q-44 -102 -136 -178t-235 -76z" />
    <glyph glyph-name="ecircumflex" unicode="&#xea;" horiz-adv-x="944" 
d="M486 1268q34 0 59 -31l225 -270l-4 -4l-281 157l-280 -157l-4 4l225 270q26 31 60 31zM492 825q-102 0 -167 -94t-77 -246h448q-5 340 -204 340zM485 -23q-184 0 -289 129q-106 129 -106 317q0 187 118 303t276 116t266 -96t106 -279h-610q-10 -209 62 -331t218 -122
q113 0 195 68t121 156l14 -7q-44 -102 -136 -178t-235 -76z" />
    <glyph glyph-name="edieresis" unicode="&#xeb;" horiz-adv-x="944" 
d="M655 1006q-43 0 -73 30t-29 74q0 43 30 74q31 30 73 30t73 -30t31 -74t-31 -74t-74 -30zM424 1111q0 -45 -30 -75t-73 -30q-42 0 -73 30t-31 74q0 43 30 74q31 30 73 30t73 -30t31 -73zM492 825q-102 0 -167 -94t-77 -246h448q-5 340 -204 340zM485 -23q-184 0 -289 129
q-106 129 -106 317q0 187 118 303t276 116t266 -96t106 -279h-610q-10 -209 62 -331t218 -122q113 0 195 68t121 156l14 -7q-44 -102 -136 -178t-235 -76z" />
    <glyph glyph-name="igrave" unicode="&#xec;" horiz-adv-x="552" 
d="M418 963q-53 35 -171 106t-153 100q-61 57 -12 111q20 23 51 24t59 -24t110 -143q81 -117 120 -170zM51 0v14q92 0 128 20t36 91v551q0 72 -36 91t-128 19v13l305 41v-715q0 -72 36 -91t128 -20v-14h-469z" />
    <glyph glyph-name="iacute" unicode="&#xed;" horiz-adv-x="552" 
d="M111 963l-5 4q39 53 117 167t110 142q33 29 63 28t50 -24q49 -53 -12 -111q-38 -34 -154 -102q-116 -69 -169 -104zM51 0v14q92 0 128 20t36 91v551q0 72 -36 91t-128 19v13l305 41v-715q0 -72 36 -91t128 -20v-14h-469z" />
    <glyph glyph-name="icircumflex" unicode="&#xee;" horiz-adv-x="555" 
d="M270 1268q34 0 60 -31l225 -270l-4 -4l-281 157l-280 -157l-4 4l225 270q25 31 59 31zM53 0v14q92 0 128 20t36 91v551q0 72 -36 91t-128 19v13l305 41v-715q0 -72 36 -91t128 -20v-14h-469z" />
    <glyph glyph-name="idieresis" unicode="&#xef;" horiz-adv-x="552" 
d="M432 1006q-43 0 -73 30t-29 74q0 43 29 74q30 30 73 30t74 -30t31 -74t-31 -74t-74 -30zM201 1111q0 -45 -31 -75t-73 -30q-43 0 -73 30t-30 74q0 43 30 74q30 30 72 30t74 -30q31 -30 31 -73zM51 0v14q92 0 128 20t36 91v551q0 72 -36 91t-128 19v13l305 41v-715
q0 -72 36 -91t128 -20v-14h-469z" />
    <glyph glyph-name="eth" unicode="&#xf0;" horiz-adv-x="1050" 
d="M503 -8q77 0 136 43q148 108 152 442q0 115 -25 232q-100 72 -213 71q-156 0 -234 -116q-77 -116 -77 -272q1 -274 130 -363q54 -37 131 -37zM514 -25q-198 0 -311 114t-113 298t115 304t301 120q137 0 254 -74q-57 231 -213 404l-318 -187l-10 17l313 184
q-104 111 -256 193l9 14q168 -94 278 -188l207 122l10 -16l-200 -119q367 -315 366 -688q0 -213 -116 -355q-118 -142 -316 -143z" />
    <glyph glyph-name="ntilde" unicode="&#xf1;" horiz-adv-x="1093" 
d="M745 1133q47 0 69 20t30 45t12 66h10q-23 -254 -153 -254q-53 0 -163 62t-156 62t-75 -25q-29 -26 -36 -105h-11q23 254 154 253q53 0 163 -62t156 -62zM47 0v14q92 0 128 20t36 91v551q0 72 -36 91t-128 19v13l305 41v-183q178 184 330 185q98 0 164 -65t65 -195v-457
q0 -72 36 -91t128 -20v-14h-469v14q92 0 128 20t36 91v457q0 195 -162 194q-119 0 -256 -141v-510q0 -72 36 -91t128 -20v-14h-469z" />
    <glyph glyph-name="ograve" unicode="&#xf2;" horiz-adv-x="1015" 
d="M664 963q-53 35 -172 106t-152 100q-61 57 -12 111q20 23 51 24t60 -25t110 -143q80 -116 119 -169zM508 -4q132 0 196 114t64 300t-65 300t-195 114t-196 -114q-64 -114 -64 -300t64 -300t196 -114zM508 -23q-162 0 -290 115t-128 318q0 204 128 318t290 114t290 -115
t128 -317t-128 -318q-128 -115 -290 -115z" />
    <glyph glyph-name="oacute" unicode="&#xf3;" horiz-adv-x="1015" 
d="M346 963l-4 4q39 53 117 167t109 142q32 29 63 28t51 -24q49 -53 -12 -111q-36 -32 -153 -101q-118 -70 -171 -105zM508 -4q132 0 196 114t64 300t-65 300t-195 114t-196 -114q-64 -114 -64 -300t64 -300t196 -114zM508 -23q-162 0 -290 115t-128 318q0 204 128 318
t290 114t290 -115t128 -317t-128 -318q-128 -115 -290 -115z" />
    <glyph glyph-name="ocircumflex" unicode="&#xf4;" horiz-adv-x="1015" 
d="M508 1268q34 0 59 -31l226 -270l-5 -4l-280 157l-281 -157l-4 4l226 270q25 31 59 31zM508 -4q132 0 196 114t64 300t-65 300t-195 114t-196 -114q-64 -114 -64 -300t64 -300t196 -114zM508 -23q-162 0 -290 115t-128 318q0 204 128 318t290 114t290 -115t128 -317
t-128 -318q-128 -115 -290 -115z" />
    <glyph glyph-name="otilde" unicode="&#xf5;" horiz-adv-x="1015" 
d="M679 1133q81 0 99 65q8 25 13 66h10q-23 -254 -154 -254q-53 0 -163 62t-156 62t-75 -25q-29 -26 -36 -105h-10q23 254 153 253q53 0 163 -62t156 -62zM508 -4q132 0 196 114t64 300t-65 300t-195 114t-196 -114q-64 -114 -64 -300t64 -300t196 -114zM508 -23
q-162 0 -290 115t-128 318q0 204 128 318t290 114t290 -115t128 -317t-128 -318q-128 -115 -290 -115z" />
    <glyph glyph-name="odieresis" unicode="&#xf6;" horiz-adv-x="1015" 
d="M676 1006q-43 0 -73 30t-30 74q0 43 30 74q30 30 73 30t74 -30q30 -30 30 -74q0 -43 -30 -74q-31 -30 -74 -30zM341 1006q-42 0 -73 30t-30 74q0 43 29 74q30 30 73 30t74 -30q30 -30 30 -73q0 -44 -30 -75q-31 -30 -73 -30zM508 -4q132 0 196 114t64 300t-65 300
t-195 114t-196 -114q-64 -114 -64 -300t64 -300t196 -114zM508 -23q-162 0 -290 115t-128 318q0 204 128 318t290 114t290 -115t128 -317t-128 -318q-128 -115 -290 -115z" />
    <glyph glyph-name="divide" unicode="&#xf7;" horiz-adv-x="1216" 
d="M152 492v20h911v-20h-911zM608 70q-38 0 -64 28t-26 63t27 61t63 26t63 -26q25 -26 25 -62t-25 -64q-26 -26 -63 -26zM608 758q-38 0 -64 28t-26 63t27 61t63 26t63 -26q25 -26 25 -62t-25 -64q-26 -26 -63 -26z" />
    <glyph glyph-name="oslash" unicode="&#xf8;" horiz-adv-x="1015" 
d="M510 823q-133 1 -198 -113q-64 -114 -64 -290t47 -277l418 549q-70 131 -203 131zM504 -4q136 0 200 114t64 290t-47 276l-418 -549q66 -131 201 -131zM520 -23q-150 0 -266 84l-92 -120l-15 10l93 121q-150 121 -150 331q0 211 128 325t278 114t266 -84l92 121l12 -11
l-92 -120q152 -123 152 -332t-128 -324t-278 -115z" />
    <glyph glyph-name="ugrave" unicode="&#xf9;" horiz-adv-x="1077" 
d="M643 963q-53 35 -171 106t-153 100q-61 57 -12 111q20 23 51 24t59 -24t110 -143q81 -117 120 -170zM414 -23q-98 0 -164 65t-66 196v438q0 72 -36 91t-128 19v13l306 41v-602q0 -195 161 -195q119 0 256 141v492q0 72 -35 91q-36 19 -128 19v13l305 41v-715
q0 -72 36 -91t128 -20v-14h-306v160q-175 -183 -329 -183z" />
    <glyph glyph-name="uacute" unicode="&#xfa;" horiz-adv-x="1077" 
d="M395 963l-4 4q39 53 117 167t109 142q32 29 63 28t51 -24q49 -53 -12 -111q-36 -32 -153 -101q-118 -70 -171 -105zM414 -23q-98 0 -164 65t-66 196v438q0 72 -36 91t-128 19v13l306 41v-602q0 -195 161 -195q119 0 256 141v492q0 72 -35 91q-36 19 -128 19v13l305 41
v-715q0 -72 36 -91t128 -20v-14h-306v160q-175 -183 -329 -183z" />
    <glyph glyph-name="ucircumflex" unicode="&#xfb;" horiz-adv-x="1077" 
d="M522 1268q34 0 60 -31l225 -270l-4 -4l-281 157l-280 -157l-4 4l225 270q25 31 59 31zM414 -23q-98 0 -164 65t-66 196v438q0 72 -36 91t-128 19v13l306 41v-602q0 -195 161 -195q119 0 256 141v492q0 72 -35 91q-36 19 -128 19v13l305 41v-715q0 -72 36 -91t128 -20v-14
h-306v160q-175 -183 -329 -183z" />
    <glyph glyph-name="udieresis" unicode="&#xfc;" horiz-adv-x="1077" 
d="M692 1006q-42 0 -72 30t-30 74q0 43 30 74q30 30 72 30t74 -30q31 -30 31 -74t-31 -74t-74 -30zM461 1111q0 -45 -31 -75t-73 -30q-43 0 -73 30t-30 74q0 43 30 74q30 30 72 30t74 -30q31 -30 31 -73zM414 -23q-98 0 -164 65t-66 196v438q0 72 -36 91t-128 19v13l306 41
v-602q0 -195 161 -195q119 0 256 141v492q0 72 -35 91q-36 19 -128 19v13l305 41v-715q0 -72 36 -91t128 -20v-14h-306v160q-175 -183 -329 -183z" />
    <glyph glyph-name="yacute" unicode="&#xfd;" horiz-adv-x="985" 
d="M399 963l-4 4q39 53 117 167t110 143q32 28 62 27t51 -24q49 -53 -12 -111q-36 -32 -153 -101q-118 -70 -171 -105zM207 -356q-80 0 -80 65q0 76 144 104q56 11 117 48q60 37 87 98l8 21l-260 618q-51 119 -101 163t-145 44v14h527v-14q-127 0 -158 -47t12 -133l193 -480
l78 195q125 311 125 377q0 88 -144 88v14h398v-14q-141 0 -205 -109q-18 -29 -158 -364l-184 -445q-39 -95 -107 -169t-147 -74z" />
    <glyph glyph-name="thorn" unicode="&#xfe;" horiz-adv-x="1030" 
d="M504 -6q127 0 204 116q76 116 76 284t-66 286q-67 119 -203 119t-224 -133v-471q0 -80 60 -141q61 -60 153 -60zM566 842q164 0 270 -127q104 -127 104 -310t-114 -305t-289 -123q-175 0 -246 99v-285q0 -72 36 -91t128 -19v-15h-469v15q92 0 128 19t36 91v1415
q0 72 -36 91t-128 20v12l305 41v-678q111 150 275 150z" />
    <glyph glyph-name="ydieresis" unicode="&#xff;" horiz-adv-x="985" 
d="M700 1006q-42 0 -72 30t-30 74q0 43 30 74q30 30 72 30t74 -30q31 -30 31 -74t-31 -74t-74 -30zM469 1111q-1 -45 -31 -75t-72 -30t-73 30t-31 74q0 43 30 74q30 30 73 30t73 -30t31 -73zM207 -356q-80 0 -80 65q0 76 144 104q56 11 117 48q60 37 87 98l8 21l-260 618
q-51 119 -101 163t-145 44v14h527v-14q-127 0 -158 -47t12 -133l193 -480l78 195q125 311 125 377q0 88 -144 88v14h398v-14q-141 0 -205 -109q-18 -29 -158 -364l-184 -445q-39 -95 -107 -169t-147 -74z" />
    <glyph glyph-name="Amacron" unicode="&#x100;" 
d="M399 1434v59h527v-59h-527zM354 467h496l-250 600zM-59 0v14q108 0 175 57t98 119t91 218l357 864h12l411 -977q57 -137 119 -209t170 -72v-14h-577v14q244 0 137 252l-76 180h-512l-22 -57q-110 -268 -51 -321q58 -52 155 -54v-14h-487z" />
    <glyph glyph-name="amacron" unicode="&#x101;" horiz-adv-x="980" 
d="M197 1024v59h526v-59h-526zM412 8q127 0 233 139v230q-117 35 -190 35q-215 0 -215 -207q0 -97 47 -147t125 -50zM360 -23q-122 -1 -196 61t-74 170t90 167t220 59t245 -41v199q0 115 -45 175t-149 60q-141 0 -205 -112q33 -8 53 -35q20 -28 20 -64q1 -36 -27 -64
t-69 -28t-69 33t-27 78q0 82 93 144q92 63 232 63t237 -69t97 -210v-463q0 -84 62 -84q51 0 90 47t55 89l15 -9q-74 -160 -207 -159q-61 0 -105 35q-43 36 -51 102q-107 -144 -285 -144z" />
    <glyph glyph-name="Abreve" unicode="&#x102;" 
d="M664 1384q-86 0 -140 54t-67 114q-14 61 -15 134h4q42 -176 218 -176t217 176h4q-1 -72 -15 -134t-67 -114q-53 -54 -139 -54zM354 467h496l-250 600zM-59 0v14q108 0 175 57t98 119t91 218l357 864h12l411 -977q57 -137 119 -209t170 -72v-14h-577v14q244 0 137 252
l-76 180h-512l-22 -57q-110 -268 -51 -321q58 -52 155 -54v-14h-487z" />
    <glyph glyph-name="abreve" unicode="&#x103;" horiz-adv-x="980" 
d="M457 975q-86 0 -140 53q-53 52 -67 114t-14 134h4q41 -176 217 -176t217 176h4q0 -72 -14 -133t-68 -115t-139 -53zM412 8q127 0 233 139v230q-117 35 -190 35q-215 0 -215 -207q0 -97 47 -147t125 -50zM360 -23q-122 -1 -196 61t-74 170t90 167t220 59t245 -41v199
q0 115 -45 175t-149 60q-141 0 -205 -112q33 -8 53 -35q20 -28 20 -64q1 -36 -27 -64t-69 -28t-69 33t-27 78q0 82 93 144q92 63 232 63t237 -69t97 -210v-463q0 -84 62 -84q51 0 90 47t55 89l15 -9q-74 -160 -207 -159q-61 0 -105 35q-43 36 -51 102q-107 -144 -285 -144z
" />
    <glyph glyph-name="Aogonek" unicode="&#x104;" 
d="M1083 -416q-88 0 -142 38t-54 112t48 130q33 42 116 86q20 11 69 36l29 14h-352v14q244 0 137 252l-76 180h-512l-22 -57q-110 -268 -51 -321q58 -52 155 -54v-14h-487v14q108 0 175 57t98 119t91 218l357 864h12l411 -977q57 -137 119 -209t170 -72v-14h-192
q-78 -40 -123 -92t-45 -137q0 -147 153 -148q49 0 99 17l4 -13q-99 -43 -187 -43zM354 467h496l-250 600z" />
    <glyph glyph-name="aogonek" unicode="&#x105;" horiz-adv-x="980" 
d="M412 8q127 0 233 139v230q-117 35 -190 35q-215 0 -215 -207q0 -97 47 -147t125 -50zM360 -23q-122 -1 -196 61t-74 170t90 167t220 59t245 -41v199q0 115 -45 175t-149 60q-141 0 -205 -112q33 -8 53 -35q20 -28 20 -64q1 -36 -27 -64t-69 -28t-69 33t-27 78
q0 82 93 144q92 63 232 63t237 -69t97 -210v-463q0 -84 62 -84q51 0 90 47t55 89l15 -9q-80 -172 -226 -157q-139 -80 -139 -215q0 -147 154 -148q49 0 98 17l4 -13q-98 -43 -186 -43t-143 38q-54 38 -54 124t70 141t168 103q-96 25 -109 131q-107 -144 -285 -144z" />
    <glyph glyph-name="Cacute" unicode="&#x106;" horiz-adv-x="1347" 
d="M612 1372l-4 4q39 53 118 169t110 143q32 28 62 26t50 -24q49 -53 -12 -111q-33 -29 -152 -100q-119 -72 -172 -107zM770 -25q-295 -1 -483 185q-189 186 -189 472t193 472t489 186q56 0 150 -9t140 -10t140 15l35 -385h-12q-82 193 -190 284q-109 91 -275 91t-281 -90
q-213 -167 -215 -559q0 -279 119 -458t361 -179q334 0 508 389h12l-68 -342q-80 -25 -210 -43t-224 -19z" />
    <glyph glyph-name="cacute" unicode="&#x107;" horiz-adv-x="903" 
d="M381 963l-4 4q39 53 117 167t109 142q32 29 63 28t51 -24q49 -53 -12 -111q-36 -32 -153 -101q-118 -70 -171 -105zM475 -23q-174 0 -279 117q-106 118 -106 310t124 315t294 123q129 0 220 -73t91 -163q-1 -47 -27 -82t-69 -35t-70 28t-27 68q0 39 26 67q24 28 63 32
q-55 141 -189 141q-134 1 -207 -119t-73 -304t72 -286q72 -104 188 -104q118 0 196 62t117 166l15 -7q-44 -109 -132 -183t-227 -73z" />
    <glyph glyph-name="Ccircumflex" unicode="&#x108;" horiz-adv-x="1347" 
d="M479 1372l-4 4l225 271q25 31 60 31t59 -31l225 -271l-4 -4l-280 158zM770 -25q-295 -1 -483 185q-189 186 -189 472t193 472t489 186q56 0 150 -9t140 -10t140 15l35 -385h-12q-82 193 -190 284q-109 91 -275 91t-281 -90q-213 -167 -215 -559q0 -279 119 -458t361 -179
q334 0 508 389h12l-68 -342q-80 -25 -210 -43t-224 -19z" />
    <glyph glyph-name="ccircumflex" unicode="&#x109;" horiz-adv-x="903" 
d="M476 1268q34 0 59 -31l225 -270l-4 -4l-281 157l-280 -157l-5 4l226 270q26 31 60 31zM475 -23q-174 0 -279 117q-106 118 -106 310t124 315t294 123q129 0 220 -73t91 -163q-1 -47 -27 -82t-69 -35t-70 28t-27 68q0 39 26 67q24 28 63 32q-55 141 -189 141
q-134 1 -207 -119t-73 -304t72 -286q72 -104 188 -104q118 0 196 62t117 166l15 -7q-44 -109 -132 -183t-227 -73z" />
    <glyph glyph-name="Cdotaccent" unicode="&#x10a;" horiz-adv-x="1347" 
d="M776 1415q-47 0 -80 34t-32 81q0 47 32 80q33 32 80 32t80 -32t33 -80q0 -47 -33 -81t-80 -34zM770 -25q-295 -1 -483 185q-189 186 -189 472t193 472t489 186q56 0 150 -9t140 -10t140 15l35 -385h-12q-82 193 -190 284q-109 91 -275 91t-281 -90q-213 -167 -215 -559
q0 -279 119 -458t361 -179q334 0 508 389h12l-68 -342q-80 -25 -210 -43t-224 -19z" />
    <glyph glyph-name="cdotaccent" unicode="&#x10b;" horiz-adv-x="903" 
d="M492 1006q-47 0 -80 34t-33 80q0 47 33 80t79 33q45 0 79 -33t34 -80q0 -46 -32 -80t-80 -34zM475 -23q-174 0 -279 117q-106 118 -106 310t124 315t294 123q129 0 220 -73t91 -163q-1 -47 -27 -82t-69 -35t-70 28t-27 68q0 39 26 67q24 28 63 32q-55 141 -189 141
q-134 1 -207 -119t-73 -304t72 -286q72 -104 188 -104q118 0 196 62t117 166l15 -7q-44 -109 -132 -183t-227 -73z" />
    <glyph glyph-name="Ccaron" unicode="&#x10c;" horiz-adv-x="1347" 
d="M772 1362q-35 0 -59 31l-226 270l5 4l280 -158l281 158l4 -4l-226 -270q-24 -31 -59 -31zM770 -25q-295 -1 -483 185q-189 186 -189 472t193 472t489 186q56 0 150 -9t140 -10t140 15l35 -385h-12q-82 193 -190 284q-109 91 -275 91t-281 -90q-213 -167 -215 -559
q0 -279 119 -458t361 -179q334 0 508 389h12l-68 -342q-80 -25 -210 -43t-224 -19z" />
    <glyph glyph-name="ccaron" unicode="&#x10d;" horiz-adv-x="903" 
d="M483 952q-35 0 -59 31l-225 270l4 4l280 -157l281 157l4 -4l-225 -270q-25 -31 -60 -31zM475 -23q-174 0 -279 117q-106 118 -106 310t124 315t294 123q129 0 220 -73t91 -163q-1 -47 -27 -82t-69 -35t-70 28t-27 68q0 39 26 67q24 28 63 32q-55 141 -189 141
q-134 1 -207 -119t-73 -304t72 -286q72 -104 188 -104q118 0 196 62t117 166l15 -7q-44 -109 -132 -183t-227 -73z" />
    <glyph glyph-name="Dcaron" unicode="&#x10e;" horiz-adv-x="1466" 
d="M743 1362q-35 0 -59 31l-225 270l4 4l280 -158l281 158l4 -4l-225 -270q-25 -31 -60 -31zM426 16h236q262 0 396 169t134 448t-134 447t-396 169h-236v-1233zM66 0v14q135 0 170 37t34 139v885q0 102 -34 139q-35 37 -170 37v15h596q319 0 512 -173q192 -173 192 -459
t-192 -460t-512 -174h-596z" />
    <glyph glyph-name="dcaron" unicode="&#x10f;" horiz-adv-x="1103" 
d="M516 20q135 0 223 132v473q0 80 -60 140t-153 60q-124 1 -202 -115t-78 -292q0 -226 114 -336q64 -62 156 -62zM462 -23q-165 0 -268 125q-104 125 -104 311q0 185 120 307t287 122t242 -101v465q0 72 -36 91t-128 20v12l306 41v-1245q-1 -72 35 -91t128 -20v-14h-305
v125q-112 -148 -277 -148zM1024 975l-6 2q6 61 12 176t16 147q11 33 40 50q30 16 61 6t42 -41t-3 -70t-162 -270z" />
    <glyph glyph-name="Dcroat" unicode="&#x110;" horiz-adv-x="1468" 
d="M428 16h236q262 0 396 169t134 448t-134 447t-396 169h-236v-604h397v-18h-397v-611zM68 0v14q135 0 170 37t34 139v437h-157v18h157v430q0 102 -34 139q-35 37 -170 37v15h596q319 0 512 -173q192 -173 192 -459t-192 -460t-512 -174h-596z" />
    <glyph glyph-name="dcroat" unicode="&#x111;" horiz-adv-x="1073" 
d="M516 20q135 0 223 132v473q0 80 -60 140t-153 60q-124 1 -202 -115t-78 -292q0 -226 114 -336q64 -62 156 -62zM462 -23q-165 0 -268 125q-104 125 -104 311q0 185 120 307t287 122t242 -101v279h-340v18h340v168q0 72 -36 91t-128 20v12l306 41v-332h145v-18h-145v-895
q-1 -72 35 -91t128 -20v-14h-305v125q-112 -148 -277 -148z" />
    <glyph glyph-name="Emacron" unicode="&#x112;" horiz-adv-x="1251" 
d="M383 1434v59h526v-59h-526zM66 0v14q135 0 170 37t34 139v885q0 102 -34 139q-35 37 -170 37v15h1024l24 -359l-12 -2q-29 131 -73 199q-94 145 -454 145h-149v-610h33q227 0 307 46t104 208h13v-524h-13q-25 162 -104 208q-80 46 -307 46h-33v-607h176q298 0 400 106
q54 56 78 111t48 152l15 -2l-39 -383h-1038z" />
    <glyph glyph-name="emacron" unicode="&#x113;" horiz-adv-x="944" 
d="M223 1024v59h527v-59h-527zM492 825q-102 0 -167 -94t-77 -246h448q-5 340 -204 340zM485 -23q-184 0 -289 129q-106 129 -106 317q0 187 118 303t276 116t266 -96t106 -279h-610q-10 -209 62 -331t218 -122q113 0 195 68t121 156l14 -7q-44 -102 -136 -178t-235 -76z
" />
    <glyph glyph-name="Ebreve" unicode="&#x114;" horiz-adv-x="1251" 
d="M639 1384q-86 0 -139 54t-68 114q-14 61 -14 134h4q41 -176 217 -176t217 176h4q0 -72 -14 -134t-68 -114q-54 -54 -139 -54zM66 0v14q135 0 170 37t34 139v885q0 102 -34 139q-35 37 -170 37v15h1024l24 -359l-12 -2q-29 131 -73 199q-94 145 -454 145h-149v-610h33
q227 0 307 46t104 208h13v-524h-13q-25 162 -104 208q-80 46 -307 46h-33v-607h176q298 0 400 106q54 56 78 111t48 152l15 -2l-39 -383h-1038z" />
    <glyph glyph-name="ebreve" unicode="&#x115;" horiz-adv-x="944" 
d="M494 975q-86 0 -140 53q-53 52 -67 114t-15 134h4q42 -176 218 -176t217 176h4q-1 -72 -15 -133t-67 -115t-139 -53zM492 825q-102 0 -167 -94t-77 -246h448q-5 340 -204 340zM485 -23q-184 0 -289 129q-106 129 -106 317q0 187 118 303t276 116t266 -96t106 -279h-610
q-10 -209 62 -331t218 -122q113 0 195 68t121 156l14 -7q-44 -102 -136 -178t-235 -76z" />
    <glyph glyph-name="Edotaccent" unicode="&#x116;" horiz-adv-x="1251" 
d="M655 1415q-47 0 -80 34t-32 81q0 47 32 80q33 32 79 32t80 -32t34 -80q0 -47 -33 -81t-80 -34zM66 0v14q135 0 170 37t34 139v885q0 102 -34 139q-35 37 -170 37v15h1024l24 -359l-12 -2q-29 131 -73 199q-94 145 -454 145h-149v-610h33q227 0 307 46t104 208h13v-524
h-13q-25 162 -104 208q-80 46 -307 46h-33v-607h176q298 0 400 106q54 56 78 111t48 152l15 -2l-39 -383h-1038z" />
    <glyph glyph-name="edotaccent" unicode="&#x117;" horiz-adv-x="944" 
d="M492 1006q-47 0 -80 34t-33 80q0 47 33 80t79 33q45 0 79 -33t34 -80q0 -46 -32 -80t-80 -34zM492 825q-102 0 -167 -94t-77 -246h448q-5 340 -204 340zM485 -23q-184 0 -289 129q-106 129 -106 317q0 187 118 303t276 116t266 -96t106 -279h-610q-10 -209 62 -331
t218 -122q113 0 195 68t121 156l14 -7q-44 -102 -136 -178t-235 -76z" />
    <glyph glyph-name="Eogonek" unicode="&#x118;" horiz-adv-x="1251" 
d="M870 -416q-88 0 -142 38t-54 112t48 130q33 42 116 86q20 11 69 36l29 14h-870v14q135 0 170 37t34 139v885q0 102 -34 139q-35 37 -170 37v15h1024l24 -359l-12 -2q-29 131 -73 199q-94 145 -454 145h-149v-610h33q227 0 307 46t104 208h13v-524h-13q-25 162 -104 208
q-80 46 -307 46h-33v-607h176q298 0 400 106q54 56 78 111t48 152l15 -2l-39 -383h-135q-78 -40 -123 -92t-45 -137q0 -147 153 -148q49 0 99 17l4 -13q-99 -43 -187 -43z" />
    <glyph glyph-name="eogonek" unicode="&#x119;" horiz-adv-x="944" 
d="M492 825q-102 0 -167 -94t-77 -246h448q-5 340 -204 340zM524 -416q-88 0 -142 38t-54 120t58 136t163 106q-31 -6 -66 -7q-182 0 -287 129q-106 129 -106 317q0 187 118 303t276 116t266 -96t106 -279h-610q-10 -209 62 -331t218 -122q113 0 195 68t121 156l14 -7
q-47 -94 -95 -140t-120 -80q-73 -34 -101 -53q-28 -18 -57 -68t-28 -115q0 -152 153 -152q49 0 99 17l4 -13q-99 -43 -187 -43z" />
    <glyph glyph-name="Ecaron" unicode="&#x11a;" horiz-adv-x="1251" 
d="M662 1362q-35 0 -60 31l-225 270l4 4l281 -158l280 158l4 -4l-225 -270q-24 -31 -59 -31zM66 0v14q135 0 170 37t34 139v885q0 102 -34 139q-35 37 -170 37v15h1024l24 -359l-12 -2q-29 131 -73 199q-94 145 -454 145h-149v-610h33q227 0 307 46t104 208h13v-524h-13
q-25 162 -104 208q-80 46 -307 46h-33v-607h176q298 0 400 106q54 56 78 111t48 152l15 -2l-39 -383h-1038z" />
    <glyph glyph-name="ecaron" unicode="&#x11b;" horiz-adv-x="944" 
d="M487 952q-35 0 -59 31l-225 270l4 4l280 -157l281 157l4 -4l-225 -270q-25 -31 -60 -31zM492 825q-102 0 -167 -94t-77 -246h448q-5 340 -204 340zM485 -23q-184 0 -289 129q-106 129 -106 317q0 187 118 303t276 116t266 -96t106 -279h-610q-10 -209 62 -331t218 -122
q113 0 195 68t121 156l14 -7q-44 -102 -136 -178t-235 -76z" />
    <glyph glyph-name="Gcircumflex" unicode="&#x11c;" horiz-adv-x="1531" 
d="M502 1372l-4 4l225 271q25 31 59 31t60 -31l225 -271l-4 -4l-281 158zM860 -23q-405 0 -593 208q-169 189 -169 460t202 458t501 187q53 0 153 -9t150 -10t147 15l35 -385h-12q-80 187 -198 281t-288 94q-248 0 -382 -183t-134 -461t130 -460q130 -180 389 -180
q188 0 368 108v285q0 102 -40 144t-179 42v15h565v-15q-129 1 -159 -33t-31 -135v-337q-238 -89 -455 -89z" />
    <glyph glyph-name="gcircumflex" unicode="&#x11d;" horiz-adv-x="952" 
d="M436 1268q34 0 60 -31l225 -270l-4 -4l-281 157l-280 -157l-4 4l225 270q25 31 59 31zM442 -342q148 0 230 61t82 141t-102 110q-78 22 -184 32t-140 14q-84 -14 -136 -59t-53 -123q0 -78 77 -127q78 -49 226 -49zM436 827q-100 1 -146 -79t-46 -202t46 -202t146 -80
t147 80q46 80 46 202t-46 202q-47 79 -147 79zM594 813l244 37q76 0 75 -57q0 -59 -75 -60q-52 0 -126 31q-73 31 -89 37q162 -82 161 -256q0 -129 -97 -212t-251 -83q-72 0 -129 18q-61 -24 -61 -62t62 -54t152 -22t181 -21t153 -65t62 -138q0 -122 -114 -192t-304 -70
t-301 50t-111 138t86 132q85 44 187 56q-154 29 -154 115q0 94 146 137q-94 35 -149 107q-54 72 -54 166q0 129 97 213t251 84q88 0 158 -29z" />
    <glyph glyph-name="Gbreve" unicode="&#x11e;" horiz-adv-x="1531" 
d="M803 1384q-86 0 -139 54t-68 114q-14 61 -14 134h4q41 -176 217 -176t217 176h4q0 -72 -14 -134t-68 -114q-54 -54 -139 -54zM860 -23q-405 0 -593 208q-169 189 -169 460t202 458t501 187q53 0 153 -9t150 -10t147 15l35 -385h-12q-80 187 -198 281t-288 94
q-248 0 -382 -183t-134 -461t130 -460q130 -180 389 -180q188 0 368 108v285q0 102 -40 144t-179 42v15h565v-15q-129 1 -159 -33t-31 -135v-337q-238 -89 -455 -89z" />
    <glyph glyph-name="gbreve" unicode="&#x11f;" horiz-adv-x="890" 
d="M436 975q-86 0 -139 53q-53 52 -67 114t-15 134h4q41 -176 217 -176t217 176h4q0 -72 -14 -133q-13 -61 -67 -115t-140 -53zM442 -342q148 0 230 61t82 141t-102 110q-78 22 -184 32t-140 14q-84 -14 -136 -59t-53 -123q0 -78 77 -127q78 -49 226 -49zM436 827
q-100 1 -146 -79t-46 -202t46 -202t146 -80t147 80q46 80 46 202t-46 202q-47 79 -147 79zM856 -94q0 -122 -114 -192t-304 -70t-301 50t-111 138t86 132q85 44 187 56q-154 29 -154 115q0 94 146 137q-94 35 -149 107q-54 72 -54 166q0 129 97 213t251 84q104 0 191 -43
q50 91 78 149t50 72q21 14 43 14t44 -19t20 -48q0 -29 -23 -53t-99 -64q-76 -41 -101 -57q145 -86 145 -248q0 -129 -97 -212t-251 -83q-72 0 -129 18q-61 -24 -61 -62t62 -54t152 -22t181 -21t153 -65t62 -138z" />
    <glyph glyph-name="Gdotaccent" unicode="&#x120;" horiz-adv-x="1531" 
d="M815 1415q-47 0 -80 34t-33 81t33 80q33 32 79 32t80 -32t34 -80q0 -47 -33 -81t-80 -34zM860 -23q-405 0 -593 208q-169 189 -169 460t202 458t501 187q53 0 153 -9t150 -10t147 15l35 -385h-12q-80 187 -198 281t-288 94q-248 0 -382 -183t-134 -461t130 -460
q130 -180 389 -180q188 0 368 108v285q0 102 -40 144t-179 42v15h565v-15q-129 1 -159 -33t-31 -135v-337q-238 -89 -455 -89z" />
    <glyph glyph-name="gdotaccent" unicode="&#x121;" horiz-adv-x="890" 
d="M436 1006q-47 0 -80 34t-32 80q0 47 32 80q33 33 80 33t80 -33t33 -80q0 -46 -33 -80t-80 -34zM442 -342q148 0 230 61t82 141t-102 110q-78 22 -184 32t-140 14q-84 -14 -136 -59t-53 -123q0 -78 77 -127q78 -49 226 -49zM436 827q-100 1 -146 -79t-46 -202t46 -202
t146 -80t147 80q46 80 46 202t-46 202q-47 79 -147 79zM856 -94q0 -122 -114 -192t-304 -70t-301 50t-111 138t86 132q85 44 187 56q-154 29 -154 115q0 94 146 137q-94 35 -149 107q-54 72 -54 166q0 129 97 213t251 84q104 0 191 -43q50 91 78 149t50 72q21 14 43 14
t44 -19t20 -48q0 -29 -23 -53t-99 -64q-76 -41 -101 -57q145 -86 145 -248q0 -129 -97 -212t-251 -83q-72 0 -129 18q-61 -24 -61 -62t62 -54t152 -22t181 -21t153 -65t62 -138z" />
    <glyph glyph-name="uni0122" unicode="&#x122;" horiz-adv-x="1531" 
d="M702 -282q0 40 29 67t77 27t77 -38t29 -112t-66 -157q-64 -83 -199 -134l-8 13q96 33 156 105q59 73 55 149q-22 -16 -58 -16t-64 27q-28 29 -28 69zM860 -23q-405 0 -593 208q-169 189 -169 460t202 458t501 187q53 0 153 -9t150 -10t147 15l35 -385h-12
q-80 187 -198 281t-288 94q-248 0 -382 -183t-134 -461t130 -460q130 -180 389 -180q188 0 368 108v285q0 102 -40 144t-179 42v15h565v-15q-129 1 -159 -33t-31 -135v-337q-238 -89 -455 -89z" />
    <glyph glyph-name="uni0123" unicode="&#x123;" horiz-adv-x="890" 
d="M444 1196q34 0 64 -29q29 -29 29 -69t-29 -66t-77 -26t-77 38q-28 38 -28 111q0 74 64 157q65 83 200 134l8 -12q-96 -33 -156 -106t-55 -148q23 16 57 16zM442 -342q148 0 230 61t82 141t-102 110q-78 22 -184 32t-140 14q-84 -14 -136 -59t-53 -123q0 -78 77 -127
q78 -49 226 -49zM436 827q-100 1 -146 -79t-46 -202t46 -202t146 -80t147 80q46 80 46 202t-46 202q-47 79 -147 79zM856 -94q0 -122 -114 -192t-304 -70t-301 50t-111 138t86 132q85 44 187 56q-154 29 -154 115q0 94 146 137q-94 35 -149 107q-54 72 -54 166q0 129 97 213
t251 84q104 0 191 -43q50 91 78 149t50 72q21 14 43 14t44 -19t20 -48q0 -29 -23 -53t-99 -64q-76 -41 -101 -57q145 -86 145 -248q0 -129 -97 -212t-251 -83q-72 0 -129 18q-61 -24 -61 -62t62 -54t152 -22t181 -21t153 -65t62 -138z" />
    <glyph glyph-name="Hcircumflex" unicode="&#x124;" horiz-adv-x="1554" 
d="M496 1372l-4 4l225 271q25 31 59 31t60 -31l225 -271l-4 -4l-281 158zM66 0v14q135 0 170 37t34 139v885q0 102 -34 139q-35 37 -170 37v15h565v-15q-135 0 -170 -37t-35 -139v-420h702v420q0 102 -34 139q-35 37 -170 37v15h565v-15q-135 0 -170 -37t-35 -139v-885
q0 -102 35 -139t170 -37v-14h-565v14q135 0 170 37t34 139v447h-702v-447q0 -102 35 -139t170 -37v-14h-565z" />
    <glyph glyph-name="hcircumflex" unicode="&#x125;" horiz-adv-x="1075" 
d="M233 1454l-4 4l226 271q25 31 59 31t59 -31l226 -271l-4 -4l-281 158zM29 0v14q92 0 128 20t36 91v1081q0 72 -36 91t-128 20v12l305 41v-713q178 184 330 185q98 0 164 -65t65 -195v-457q0 -72 36 -91t128 -20v-14h-469v14q92 0 128 20t36 91v457q0 195 -162 194
q-119 0 -256 -141v-510q0 -72 36 -91t128 -20v-14h-469z" />
    <glyph glyph-name="Hbar" unicode="&#x126;" horiz-adv-x="1554" 
d="M66 0v14q135 0 170 37t34 139v744h-164v18h164v123q0 102 -34 139q-35 37 -170 37v15h565v-15q-135 0 -170 -37t-35 -139v-123h702v123q0 102 -34 139q-35 37 -170 37v15h565v-15q-135 0 -170 -37t-35 -139v-123h164v-18h-164v-744q0 -102 35 -139t170 -37v-14h-565v14
q135 0 170 37t34 139v447h-702v-447q0 -102 35 -139t170 -37v-14h-565zM426 934v-279h702v279h-702z" />
    <glyph glyph-name="hbar" unicode="&#x127;" horiz-adv-x="1075" 
d="M29 0v14q92 0 128 20t36 91v895h-146v18h146v168q0 72 -36 91t-128 20v12l305 41v-332h340v-18h-340v-363q178 184 330 185q98 0 164 -65t65 -195v-457q0 -72 36 -91t128 -20v-14h-469v14q92 0 128 20t36 91v457q0 195 -162 194q-119 0 -256 -141v-510q0 -72 36 -91
t128 -20v-14h-469z" />
    <glyph glyph-name="Itilde" unicode="&#x128;" horiz-adv-x="696" 
d="M207 1667q53 0 163 -62q110 -63 156 -63t75 26t36 105h10q-23 -254 -153 -254q-53 1 -163 63t-156 62q-81 0 -99 -65q-8 -25 -13 -66h-10q23 254 154 254zM66 0v14q135 0 170 37t34 139v885q0 102 -34 139q-35 37 -170 37v15h565v-15q-135 0 -170 -37t-35 -139v-885
q0 -102 35 -139t170 -37v-14h-565z" />
    <glyph glyph-name="itilde" unicode="&#x129;" horiz-adv-x="552" 
d="M442 1133q46 0 68 20t31 45q8 25 12 66h10q-23 -254 -153 -254q-53 0 -163 62t-156 62t-75 -25q-29 -26 -36 -105h-11q23 254 154 253q53 0 163 -62t156 -62zM51 0v14q92 0 128 20t36 91v551q0 72 -36 91t-128 19v13l305 41v-715q0 -72 36 -91t128 -20v-14h-469z" />
    <glyph glyph-name="Imacron" unicode="&#x12a;" horiz-adv-x="696" 
d="M86 1434v59h526v-59h-526zM66 0v14q135 0 170 37t34 139v885q0 102 -34 139q-35 37 -170 37v15h565v-15q-135 0 -170 -37t-35 -139v-885q0 -102 35 -139t170 -37v-14h-565z" />
    <glyph glyph-name="imacron" unicode="&#x12b;" horiz-adv-x="552" 
d="M6 1024v59h526v-59h-526zM51 0v14q92 0 128 20t36 91v551q0 72 -36 91t-128 19v13l305 41v-715q0 -72 36 -91t128 -20v-14h-469z" />
    <glyph glyph-name="Ibreve" unicode="&#x12c;" horiz-adv-x="696" 
d="M348 1384q-86 0 -139 54t-68 114q-14 61 -14 134h4q41 -176 217 -176t217 176h4q0 -72 -14 -134q-13 -62 -67 -114q-54 -54 -140 -54zM66 0v14q135 0 170 37t34 139v885q0 102 -34 139q-35 37 -170 37v15h565v-15q-135 0 -170 -37t-35 -139v-885q0 -102 35 -139t170 -37
v-14h-565z" />
    <glyph glyph-name="ibreve" unicode="&#x12d;" horiz-adv-x="552" 
d="M274 975q-86 0 -139 53q-53 52 -67 114t-15 134h4q41 -176 217 -176t218 176h4q0 -72 -14 -133t-68 -115q-54 -53 -140 -53zM51 0v14q92 0 128 20t36 91v551q0 72 -36 91t-128 19v13l305 41v-715q0 -72 36 -91t128 -20v-14h-469z" />
    <glyph glyph-name="Iogonek" unicode="&#x12e;" horiz-adv-x="696" 
d="M358 -416q-88 0 -142 38t-54 112t48 130q33 42 116 86q20 11 69 36l29 14h-358v14q135 0 170 37t34 139v885q0 102 -34 139q-35 37 -170 37v15h565v-15q-135 0 -170 -37t-35 -139v-885q0 -102 35 -139t170 -37v-14h-174q-78 -40 -123 -92t-45 -137q0 -147 153 -148
q49 0 99 17l4 -13q-99 -43 -187 -43z" />
    <glyph glyph-name="iogonek" unicode="&#x12f;" horiz-adv-x="555" 
d="M297 -416q-88 0 -142 38t-55 116q0 106 105 174q49 34 129 74l28 14h-309v14q92 0 128 20t36 91v551q0 72 -36 91t-128 19v13l305 41v-715q0 -72 36 -91t128 -20v-14h-127q-78 -40 -123 -92t-45 -137q0 -147 154 -148q49 0 98 17l4 -13q-98 -43 -186 -43zM272 1028
q-42 0 -72 28t-30 70t30 70q30 27 72 27t72 -27q29 -27 29 -70q0 -42 -29 -70t-72 -28z" />
    <glyph glyph-name="Idotaccent" unicode="&#x130;" horiz-adv-x="696" 
d="M348 1415q-47 0 -80 34t-32 81q0 47 32 80q33 32 79 32t80 -32t34 -80q0 -47 -33 -81t-80 -34zM66 0v14q135 0 170 37t34 139v885q0 102 -34 139q-35 37 -170 37v15h565v-15q-135 0 -170 -37t-35 -139v-885q0 -102 35 -139t170 -37v-14h-565z" />
    <glyph glyph-name="dotlessi" unicode="&#x131;" horiz-adv-x="552" 
d="M51 0v14q92 0 128 20t36 91v551q0 72 -36 91t-128 19v13l305 41v-715q0 -72 36 -91t128 -20v-14h-469z" />
    <glyph glyph-name="Jcircumflex" unicode="&#x134;" horiz-adv-x="667" 
d="M53 1372l-4 4l225 271q25 31 60 31t59 -31l225 -271l-4 -4l-280 158zM256 18v1057q0 102 -35 139t-170 37v15h565v-15q-135 0 -170 -37t-34 -139v-1024q0 -145 -100 -243t-265 -150l-6 10q215 109 215 350z" />
    <glyph glyph-name="jcircumflex" unicode="&#x135;" horiz-adv-x="497" 
d="M248 1268q35 0 59 -31l225 -270l-4 -4l-280 157l-281 -157l-4 4l225 270q25 31 60 31zM195 676q0 72 -36 91t-128 19v13l305 41v-830q0 -143 -78 -231t-235 -139l-9 6q63 37 113 84t63 153q4 35 5 99v694z" />
    <glyph glyph-name="uni0136" unicode="&#x136;" horiz-adv-x="1380" 
d="M775 -188q48 0 77 -38t29 -112t-65 -157t-200 -134l-8 13q96 33 156 105q59 73 55 149q-23 -16 -59 -16t-63 27q-27 29 -27 69t28 67q29 27 77 27zM66 0v14q135 0 170 37t34 139v885q0 102 -34 139q-35 37 -170 37v15h565v-15q-135 0 -170 -37t-35 -139v-543l397 406
q156 158 156 229q0 84 -166 84v15h565v-15q-156 0 -297 -98q-80 -59 -245 -227l-142 -146l434 -590q76 -102 143 -140t144 -38v-12h-338l-491 670l-160 -164v-316q0 -102 35 -139t170 -37v-14h-565z" />
    <glyph glyph-name="uni0137" unicode="&#x137;" horiz-adv-x="1017" 
d="M469 -282q0 40 29 67q28 27 76 27t77 -38t29 -112t-64 -157t-200 -134l-8 13q96 34 155 106t55 148q-22 -16 -58 -16t-64 27q-28 29 -27 69zM29 0v14q92 0 128 20t36 91v1081q0 72 -36 91t-128 20v12l305 41v-1020l219 223q106 109 106 160q0 72 -127 72v14h453v-14
q-113 0 -209 -65t-213 -181l-35 -35l267 -379q92 -131 233 -131v-14h-297l-303 422l-94 -94v-203q0 -72 36 -91t128 -20v-14h-469z" />
    <glyph glyph-name="kgreenlandic" unicode="&#x138;" horiz-adv-x="1036" 
d="M47 0v14q92 0 128 20t36 91v551q0 72 -36 91t-128 19v13l305 41v-490l219 223q106 109 107 160q0 72 -127 72v14h453v-14q-113 0 -209 -65t-213 -181l-35 -35l266 -379q92 -131 234 -131v-14h-297l-304 422l-94 -94v-203q0 -72 36 -91t128 -20v-14h-469z" />
    <glyph glyph-name="Lacute" unicode="&#x139;" horiz-adv-x="1169" 
d="M295 1372l-4 4q39 53 118 168t109 143q31 29 62 27t51 -24q49 -53 -13 -111q-35 -31 -152 -101q-118 -71 -171 -106zM66 0v14q135 0 170 37t34 139v885q0 102 -34 139q-35 37 -170 37v15h565v-15q-135 0 -170 -37t-35 -139v-1059h139q285 0 392 109q56 57 84 119t51 166
l12 -2l-25 -408h-1013z" />
    <glyph glyph-name="lacute" unicode="&#x13a;" horiz-adv-x="534" 
d="M106 1454l-4 4q39 53 119 169t110 142q31 27 61 26t50 -23q49 -53 -12 -111q-35 -31 -153 -101q-118 -71 -171 -106zM33 0v14q92 0 128 20t36 91v1081q0 72 -36 91t-128 20v12l305 41v-1245q0 -72 36 -91t128 -20v-14h-469z" />
    <glyph glyph-name="uni013B" unicode="&#x13b;" horiz-adv-x="1169" 
d="M575 -282q0 40 29 67t77 27t77 -38q28 -38 28 -112t-64 -157t-200 -134l-8 13q96 33 156 105q59 73 55 149q-23 -16 -59 -16t-63 27q-28 29 -28 69zM66 0v14q135 0 170 37t34 139v885q0 102 -34 139q-35 37 -170 37v15h565v-15q-135 0 -170 -37t-35 -139v-1059h139
q285 0 392 109q56 57 84 119t51 166l12 -2l-25 -408h-1013z" />
    <glyph glyph-name="uni013C" unicode="&#x13c;" horiz-adv-x="534" 
d="M170 -282q0 40 29 67t77 27t76 -38q29 -38 29 -112q-1 -74 -65 -157t-199 -134l-8 13q96 34 155 106t55 148q-23 -16 -59 -16t-62 27q-28 29 -28 69zM33 0v14q92 0 128 20t36 91v1081q0 72 -36 91t-128 20v12l305 41v-1245q0 -72 36 -91t128 -20v-14h-469z" />
    <glyph glyph-name="Lcaron" unicode="&#x13d;" horiz-adv-x="1171" 
d="M66 0v14q135 0 170 37t34 139v885q0 102 -34 139q-35 37 -170 37v15h565v-15q-135 0 -170 -37t-35 -139v-1059h139q285 0 392 109q56 57 84 119t51 166l12 -2l-25 -408h-1013zM842 899l-6 2q6 61 12 174t16 148t40 51t61 6t42 -41t-3 -70t-162 -270z" />
    <glyph glyph-name="lcaron" unicode="&#x13e;" horiz-adv-x="561" 
d="M33 0v14q92 0 128 20t36 91v1081q0 72 -36 91t-128 20v12l305 41v-1245q0 -72 36 -91t128 -20v-14h-469zM481 975l-6 2q6 61 12 172t16 148q11 37 41 53t60 6t42 -41q10 -31 -4 -70t-161 -270z" />
    <glyph glyph-name="Ldot" unicode="&#x13f;" horiz-adv-x="1169" 
d="M883 635q-47 0 -80 34t-33 81q0 48 33 80t80 32t80 -34t33 -80t-34 -79q-32 -34 -79 -34zM66 0v14q135 0 170 37t34 139v885q0 102 -34 139q-35 37 -170 37v15h565v-15q-135 0 -170 -37t-35 -139v-1059h139q285 0 392 109q56 57 84 119t51 166l12 -2l-25 -408h-1013z" />
    <glyph glyph-name="ldot" unicode="&#x140;" horiz-adv-x="604" 
d="M567 481q-47 0 -80 34t-32 81q0 47 32 80q33 33 80 33t80 -33t33 -80t-33 -81t-80 -34zM33 0v14q92 0 128 20t36 91v1081q0 72 -36 91t-128 20v12l305 41v-1245q0 -72 36 -91t128 -20v-14h-469z" />
    <glyph glyph-name="Lslash" unicode="&#x141;" horiz-adv-x="1173" 
d="M70 0v14q135 0 170 37t34 139v407l-200 -79l-6 17l206 81v459q0 102 -34 139q-35 37 -170 37v15h565v-15q-135 0 -170 -37t-35 -139v-398l324 128l6 -17l-330 -129v-643h139q284 0 393 109q56 57 84 119t50 166l12 -2l-25 -408h-1013z" />
    <glyph glyph-name="lslash" unicode="&#x142;" horiz-adv-x="559" 
d="M47 0v14q92 0 128 20t36 91v481l-178 -88l-8 17l186 91v580q0 72 -36 91t-128 20v12l305 41v-674l189 92l8 -16l-197 -97v-550q0 -72 36 -91t128 -20v-14h-469z" />
    <glyph glyph-name="Nacute" unicode="&#x143;" horiz-adv-x="1486" 
d="M678 1372l-4 4q39 53 118 168t109 143q31 29 62 27t51 -24q49 -53 -13 -111q-35 -31 -152 -101q-118 -71 -171 -106zM55 0v14q176 0 211 125t35 660v153q0 166 -47 233t-199 66v15h348l783 -1006v139q0 529 -20 663t-99 169q-43 20 -127 20v15h512v-15q-176 0 -211 -125
t-35 -659v-471l-12 -4l-872 1122v-248q0 -528 20 -662t98 -169q43 -20 127 -21v-14h-512z" />
    <glyph glyph-name="nacute" unicode="&#x144;" horiz-adv-x="1093" 
d="M422 963l-4 4q39 53 117 167t109 142q32 29 63 28t51 -24q49 -53 -13 -111q-38 -34 -154 -102q-116 -69 -169 -104zM47 0v14q92 0 128 20t36 91v551q0 72 -36 91t-128 19v13l305 41v-183q178 184 330 185q98 0 164 -65t65 -195v-457q0 -72 36 -91t128 -20v-14h-469v14
q92 0 128 20t36 91v457q0 195 -162 194q-119 0 -256 -141v-510q0 -72 36 -91t128 -20v-14h-469z" />
    <glyph glyph-name="uni0145" unicode="&#x145;" horiz-adv-x="1486" 
d="M678 -282q0 40 29 67t77 27t76 -38q29 -38 29 -112q-1 -74 -65 -157t-199 -134l-9 13q96 33 156 105q59 73 55 149q-23 -16 -59 -16t-62 27q-28 29 -28 69zM55 0v14q176 0 211 125t35 660v153q0 166 -47 233t-199 66v15h348l783 -1006v139q0 529 -20 663t-99 169
q-43 20 -127 20v15h512v-15q-176 0 -211 -125t-35 -659v-471l-12 -4l-872 1122v-248q0 -528 20 -662t98 -169q43 -20 127 -21v-14h-512z" />
    <glyph glyph-name="uni0146" unicode="&#x146;" horiz-adv-x="1093" 
d="M473 -282q0 40 29 67q28 27 76 27t77 -38t29 -112t-64 -157t-200 -134l-8 13q96 34 155 106t56 148q-23 -16 -59 -16t-64 27q-28 29 -27 69zM47 0v14q92 0 128 20t36 91v551q0 72 -36 91t-128 19v13l305 41v-183q178 184 330 185q98 0 164 -65t65 -195v-457q0 -72 36 -91
t128 -20v-14h-469v14q92 0 128 20t36 91v457q0 195 -162 194q-119 0 -256 -141v-510q0 -72 36 -91t128 -20v-14h-469z" />
    <glyph glyph-name="Ncaron" unicode="&#x147;" horiz-adv-x="1486" 
d="M780 1362q-35 0 -59 31l-225 270l4 4l280 -158l281 158l4 -4l-225 -270q-25 -31 -60 -31zM55 0v14q176 0 211 125t35 660v153q0 166 -47 233t-199 66v15h348l783 -1006v139q0 529 -20 663t-99 169q-43 20 -127 20v15h512v-15q-176 0 -211 -125t-35 -659v-471l-12 -4
l-872 1122v-248q0 -528 20 -662t98 -169q43 -20 127 -21v-14h-512z" />
    <glyph glyph-name="ncaron" unicode="&#x148;" horiz-adv-x="1093" 
d="M561 952q-35 0 -59 31l-226 270l5 4l280 -157l281 157l4 -4l-225 -270q-25 -31 -60 -31zM47 0v14q92 0 128 20t36 91v551q0 72 -36 91t-128 19v13l305 41v-183q178 184 330 185q98 0 164 -65t65 -195v-457q0 -72 36 -91t128 -20v-14h-469v14q92 0 128 20t36 91v457
q0 195 -162 194q-119 0 -256 -141v-510q0 -72 36 -91t128 -20v-14h-469z" />
    <glyph glyph-name="Eng" unicode="&#x14a;" horiz-adv-x="1486" 
d="M55 0v14q176 0 211 125t35 660v153q0 166 -47 233t-199 66v15h348l783 -1006v139q0 529 -20 663t-99 169q-43 20 -127 20v15h512v-15q-176 0 -211 -125t-35 -659v-416q0 -145 -100 -242t-264 -151l-6 10q256 133 256 352v103l-770 991v-248q0 -528 20 -662t98 -169
q43 -20 127 -21v-14h-512z" />
    <glyph glyph-name="eng" unicode="&#x14b;" horiz-adv-x="1052" 
d="M49 0v14q92 0 128 20t36 91v551q0 72 -36 91t-128 19v13l305 41v-183q178 184 330 185q98 0 164 -65t65 -195v-572q-1 -143 -79 -231t-234 -139l-8 6q129 76 155 151q25 75 25 185v600q0 195 -162 194q-119 0 -256 -141v-510q0 -72 36 -91t128 -20v-14h-469z" />
    <glyph glyph-name="Omacron" unicode="&#x14c;" horiz-adv-x="1499" 
d="M485 1434v59h527v-59h-527zM750 -4q127 0 222 52t149 143t80 202t26 240t-26 239q-94 397 -451 398q-128 0 -224 -52t-149 -144q-105 -181 -105 -443t106 -440q54 -91 150 -143t222 -52zM750 -25q-285 -1 -468 191q-184 192 -184 468t184 466t468 190q285 0 468 -190
t183 -466t-183 -467q-183 -192 -468 -192z" />
    <glyph glyph-name="omacron" unicode="&#x14d;" horiz-adv-x="1015" 
d="M246 1024v59h526v-59h-526zM508 -4q132 0 196 114t64 300t-65 300t-195 114t-196 -114q-64 -114 -64 -300t64 -300t196 -114zM508 -23q-162 0 -290 115t-128 318q0 204 128 318t290 114t290 -115t128 -317t-128 -318q-128 -115 -290 -115z" />
    <glyph glyph-name="Obreve" unicode="&#x14e;" horiz-adv-x="1499" 
d="M748 1384q-86 0 -140 54t-67 114q-14 61 -15 134h4q42 -176 218 -176t217 176h4q-1 -72 -15 -134t-67 -114q-53 -54 -139 -54zM750 -4q127 0 222 52t149 143t80 202t26 240t-26 239q-94 397 -451 398q-128 0 -224 -52t-149 -144q-105 -181 -105 -443t106 -440
q54 -91 150 -143t222 -52zM750 -25q-285 -1 -468 191q-184 192 -184 468t184 466t468 190q285 0 468 -190t183 -466t-183 -467q-183 -192 -468 -192z" />
    <glyph glyph-name="obreve" unicode="&#x14f;" horiz-adv-x="1015" 
d="M508 975q-86 0 -139 53q-53 52 -67 114t-15 134h4q41 -176 217 -176t217 176h4q0 -72 -14 -133q-13 -61 -67 -115t-140 -53zM508 -4q132 0 196 114t64 300t-65 300t-195 114t-196 -114q-64 -114 -64 -300t64 -300t196 -114zM508 -23q-162 0 -290 115t-128 318
q0 204 128 318t290 114t290 -115t128 -317t-128 -318q-128 -115 -290 -115z" />
    <glyph glyph-name="Ohungarumlaut" unicode="&#x150;" horiz-adv-x="1499" 
d="M840 1368l-4 4q29 51 87 164t80 140q21 26 53 30t50 -14q49 -45 0 -101q-45 -45 -134 -115q-89 -71 -132 -108zM535 1368l-5 4q31 55 87 163t79 138q23 29 55 33t50 -14q49 -45 0 -101q-22 -28 -124 -109q-103 -81 -142 -114zM750 -4q127 0 222 52t149 143t80 202t26 240
t-26 239q-94 397 -451 398q-128 0 -224 -52t-149 -144q-105 -181 -105 -443t106 -440q54 -91 150 -143t222 -52zM750 -25q-285 -1 -468 191q-184 192 -184 468t184 466t468 190q285 0 468 -190t183 -466t-183 -467q-183 -192 -468 -192z" />
    <glyph glyph-name="ohungarumlaut" unicode="&#x151;" horiz-adv-x="1015" 
d="M567 958l-4 5q32 55 92 170q61 114 79 137q18 22 50 26t50 -14q49 -45 0 -100q-38 -38 -131 -112t-136 -112zM262 958l-4 5q31 55 86 160t79 137q23 32 55 36t50 -14q49 -45 0 -100q-20 -26 -124 -108q-103 -83 -142 -116zM508 -4q132 0 196 114t64 300t-65 300t-195 114
t-196 -114q-64 -114 -64 -300t64 -300t196 -114zM508 -23q-162 0 -290 115t-128 318q0 204 128 318t290 114t290 -115t128 -317t-128 -318q-128 -115 -290 -115z" />
    <glyph glyph-name="OE" unicode="&#x152;" horiz-adv-x="2054" 
d="M746 -4q168 0 248 51t81 184v805q0 125 -84 179q-85 55 -249 55t-275 -93t-153 -231t-42 -313t42 -313t153 -231t279 -93zM1380 1249h-149v-610h33q227 0 307 46t104 208h13v-524h-13q-25 162 -104 208q-80 46 -307 46h-33v-607h176q298 0 400 106q54 56 78 111t48 152
l15 -2l-39 -383h-791l-370 -25q-285 1 -467 191q-183 190 -183 466t182 468q182 190 468 190l368 -24h778l25 -359l-12 -2q-29 131 -73 199q-94 145 -454 145z" />
    <glyph glyph-name="oe" unicode="&#x153;" horiz-adv-x="1628" 
d="M1176 825q-102 0 -167 -94t-77 -246h457q0 110 -42 218q-22 54 -66 88t-105 34zM510 -4q131 0 197 114t65 300q0 186 -65 300q-66 114 -197 114t-197 -114q-65 -114 -65 -300t66 -300t196 -114zM510 -23q-168 0 -294 114t-126 319q0 204 126 318t294 114q102 0 194 -47
t150 -136q115 182 326 183q145 0 253 -96t107 -279h-610q-10 -209 62 -331t218 -122q113 0 195 68t121 156l14 -7q-45 -102 -136 -178t-239 -76q-219 0 -319 170q-119 -170 -336 -170z" />
    <glyph glyph-name="Racute" unicode="&#x154;" 
d="M530 1372l-4 4q39 53 118 169t110 143q32 28 62 26t50 -24q49 -53 -12 -111q-35 -31 -153 -101q-118 -71 -171 -106zM426 631h176q188 0 290 84q101 84 101 230t-100 225t-291 79h-176v-618zM1157 942q0 -298 -479 -319v-7q163 -4 238 -47q40 -23 73 -51t55 -98
q23 -70 39 -129t42 -132t67 -110t129 -37v-12h-301q-58 142 -70 184t-30 112q-50 196 -94 236q-66 63 -117 72q-50 10 -105 10h-178v-424q0 -102 35 -139t170 -37v-14h-565v14q135 0 170 37t34 139v885q0 102 -34 139q-35 37 -170 37v15h542q258 0 404 -81t145 -243z" />
    <glyph glyph-name="racute" unicode="&#x155;" horiz-adv-x="763" 
d="M293 963l-4 4q39 53 117 167t109 142q32 29 63 28t51 -24q49 -53 -13 -111q-38 -34 -154 -102q-116 -69 -169 -104zM47 0v14q92 0 128 20t36 91v551q0 72 -36 91t-128 19v13l305 41v-238q45 100 119 171q73 71 137 71t92 -31t29 -74q0 -43 -30 -73q-31 -30 -73 -29
q-42 0 -72 37t-19 82q-115 -31 -183 -181v-450q0 -72 36 -91t128 -20v-14h-469z" />
    <glyph glyph-name="uni0156" unicode="&#x156;" 
d="M736 -188q48 0 77 -38t29 -112t-64 -157t-200 -134l-9 13q96 33 156 105q59 73 55 149q-24 -16 -58 -16t-63 27q-29 29 -29 69t29 67t77 27zM426 631h176q188 0 290 84q101 84 101 230t-100 225t-291 79h-176v-618zM1157 942q0 -298 -479 -319v-7q163 -4 238 -47
q40 -23 73 -51t55 -98q23 -70 39 -129t42 -132t67 -110t129 -37v-12h-301q-58 142 -70 184t-30 112q-50 196 -94 236q-66 63 -117 72q-50 10 -105 10h-178v-424q0 -102 35 -139t170 -37v-14h-565v14q135 0 170 37t34 139v885q0 102 -34 139q-35 37 -170 37v15h542
q258 0 404 -81t145 -243z" />
    <glyph glyph-name="uni0157" unicode="&#x157;" horiz-adv-x="763" 
d="M182 -282q0 40 29 67t77 27t77 -38t29 -112t-66 -157q-64 -83 -199 -134l-8 13q96 34 155 106t56 148q-22 -16 -58 -16t-64 27q-28 29 -28 69zM47 0v14q92 0 128 20t36 91v551q0 72 -36 91t-128 19v13l305 41v-238q45 100 119 171q73 71 137 71t92 -31t29 -74
q0 -43 -30 -73q-31 -30 -73 -29q-42 0 -72 37t-19 82q-115 -31 -183 -181v-450q0 -72 36 -91t128 -20v-14h-469z" />
    <glyph glyph-name="Rcaron" unicode="&#x158;" 
d="M655 1362q-35 0 -59 31l-225 270l4 4l280 -158l281 158l4 -4l-225 -270q-25 -31 -60 -31zM426 631h176q188 0 290 84q101 84 101 230t-100 225t-291 79h-176v-618zM1157 942q0 -298 -479 -319v-7q163 -4 238 -47q40 -23 73 -51t55 -98q23 -70 39 -129t42 -132t67 -110
t129 -37v-12h-301q-58 142 -70 184t-30 112q-50 196 -94 236q-66 63 -117 72q-50 10 -105 10h-178v-424q0 -102 35 -139t170 -37v-14h-565v14q135 0 170 37t34 139v885q0 102 -34 139q-35 37 -170 37v15h542q258 0 404 -81t145 -243z" />
    <glyph glyph-name="rcaron" unicode="&#x159;" horiz-adv-x="763" 
d="M434 952q-35 0 -59 31l-225 270l4 4l280 -157l281 157l4 -4l-225 -270q-25 -31 -60 -31zM47 0v14q92 0 128 20t36 91v551q0 72 -36 91t-128 19v13l305 41v-238q45 100 119 171q73 71 137 71t92 -31t29 -74q0 -43 -30 -73q-31 -30 -73 -29q-42 0 -72 37t-19 82
q-115 -31 -183 -181v-450q0 -72 36 -91t128 -20v-14h-469z" />
    <glyph glyph-name="Sacute" unicode="&#x15a;" horiz-adv-x="1118" 
d="M481 1372l-4 4q39 53 118 168t109 143q31 29 62 27t51 -24q49 -53 -12 -111q-33 -29 -152 -100q-119 -72 -172 -107zM543 -25q-143 0 -396 56l-24 379l14 2q7 -18 23 -70q56 -175 113 -236q78 -81 147 -98q69 -18 137 -18q160 0 242 77t82 193q0 149 -147 230
q-65 36 -213 90t-223 101q-157 97 -157 273q1 144 101 240t309 96q55 0 135 -9t120 -12t122 9l28 -375l-12 -2q-2 4 -14 38q-42 122 -66 154q-24 31 -48 63t-77 66q-84 54 -206 54q-121 0 -195 -73t-74 -178t77 -173t185 -106t218 -80q108 -42 185 -128q77 -84 77 -226
t-110 -240t-353 -97z" />
    <glyph glyph-name="sacute" unicode="&#x15b;" horiz-adv-x="833" 
d="M293 963l-4 4q39 53 117 167t109 142q32 29 63 28t51 -24q49 -53 -13 -111q-38 -34 -154 -102q-116 -69 -169 -104zM737 202q-1 -95 -83 -160t-224 -65t-313 37l-17 250l13 2q48 -114 89 -169q81 -109 214 -107q96 0 150 50t54 116t-50 109q-52 42 -126 69l-148 56
t-126 84q-51 56 -51 148t74 156t223 64q41 0 98 -6t85 -8t87 8l19 -256l-13 -2q-73 175 -171 226q-51 26 -121 26t-120 -48q-50 -47 -50 -111q-1 -112 179 -175q75 -27 149 -57q179 -72 179 -237z" />
    <glyph glyph-name="Scircumflex" unicode="&#x15c;" horiz-adv-x="1118" 
d="M293 1372l-4 4l225 271q26 31 60 31t59 -31l225 -271l-4 -4l-281 158zM543 -25q-143 0 -396 56l-24 379l14 2q7 -18 23 -70q56 -175 113 -236q78 -81 147 -98q69 -18 137 -18q160 0 242 77t82 193q0 149 -147 230q-65 36 -213 90t-223 101q-157 97 -157 273
q1 144 101 240t309 96q55 0 135 -9t120 -12t122 9l28 -375l-12 -2q-2 4 -14 38q-42 122 -66 154q-24 31 -48 63t-77 66q-84 54 -206 54q-121 0 -195 -73t-74 -178t77 -173t185 -106t218 -80q108 -42 185 -128q77 -84 77 -226t-110 -240t-353 -97z" />
    <glyph glyph-name="scircumflex" unicode="&#x15d;" horiz-adv-x="833" 
d="M426 1268q34 0 59 -31l226 -270l-4 -4l-281 157l-281 -157l-4 4l226 270q25 31 59 31zM737 202q-1 -95 -83 -160t-224 -65t-313 37l-17 250l13 2q48 -114 89 -169q81 -109 214 -107q96 0 150 50t54 116t-50 109q-52 42 -126 69l-148 56t-126 84q-51 56 -51 148t74 156
t223 64q41 0 98 -6t85 -8t87 8l19 -256l-13 -2q-73 175 -171 226q-51 26 -121 26t-120 -48q-50 -47 -50 -111q-1 -112 179 -175q75 -27 149 -57q179 -72 179 -237z" />
    <glyph glyph-name="Scedilla" unicode="&#x15e;" horiz-adv-x="1118" 
d="M514 -420q-106 0 -195 64l7 10q72 -45 148 -45t118 35q43 35 43 89t-31 87t-80 33t-86 -17l-4 4l105 135q-145 0 -392 56l-24 379l14 2q7 -18 23 -70q56 -175 113 -236q78 -81 147 -98q69 -18 137 -18q160 0 242 77t82 193q0 149 -147 230q-65 36 -213 90t-223 101
q-157 97 -157 273q1 144 101 240t309 96q55 0 135 -9t120 -12t122 9l28 -375l-12 -2q-2 4 -14 38q-42 122 -66 154q-24 31 -48 63t-77 66q-84 54 -206 54q-121 0 -195 -73t-74 -178t77 -173t185 -106t218 -80q108 -42 185 -128t77 -226t-106 -236t-341 -101l-84 -110
q37 12 107 12t122 -36q54 -35 54 -109t-69 -113t-175 -39z" />
    <glyph glyph-name="scedilla" unicode="&#x15f;" horiz-adv-x="833" 
d="M606 -268q0 -74 -68 -113t-174 -39t-196 64l6 10q72 -45 148 -45t118 35t43 89q0 54 -30 87q-31 33 -81 33t-85 -17l-4 4l106 137q-98 2 -272 37l-17 250l13 2q48 -114 89 -169q81 -109 214 -107q96 0 150 50t54 116t-50 109q-52 42 -126 69l-148 56t-126 84
q-51 56 -51 148t74 156t223 64q41 0 98 -6t85 -8t87 8l19 -256l-13 -2q-73 175 -171 226q-51 26 -121 26t-120 -48q-50 -47 -50 -111q-1 -112 179 -175q75 -27 149 -57t127 -86q52 -56 52 -150t-82 -159t-245 -67l-86 -112q38 12 106 12t122 -36q54 -35 54 -109z" />
    <glyph glyph-name="Scaron" unicode="&#x160;" horiz-adv-x="1118" 
d="M580 1382q-35 0 -60 31l-225 270l4 5l281 -158l280 158l4 -5l-225 -270q-24 -31 -59 -31zM543 -25q-143 0 -396 56l-24 379l14 2q7 -18 23 -70q56 -175 113 -236q78 -81 147 -98q69 -18 137 -18q160 0 242 77t82 193q0 149 -147 230q-65 36 -213 90t-223 101
q-157 97 -157 273q1 144 101 240t309 96q55 0 135 -9t120 -12t122 9l28 -375l-12 -2q-2 4 -14 38q-42 122 -66 154q-24 31 -48 63t-77 66q-84 54 -206 54q-121 0 -195 -73t-74 -178t77 -173t185 -106t218 -80q108 -42 185 -128q77 -84 77 -226t-110 -240t-353 -97z" />
    <glyph glyph-name="scaron" unicode="&#x161;" horiz-adv-x="833" 
d="M424 952q-35 0 -59 31l-226 270l4 4l281 -157l281 157l4 -4l-226 -270q-24 -31 -59 -31zM737 202q-1 -95 -83 -160t-224 -65t-313 37l-17 250l13 2q48 -114 89 -169q81 -109 214 -107q96 0 150 50t54 116t-50 109q-52 42 -126 69l-148 56t-126 84q-51 56 -51 148t74 156
t223 64q41 0 98 -6t85 -8t87 8l19 -256l-13 -2q-73 175 -171 226q-51 26 -121 26t-120 -48q-50 -47 -50 -111q-1 -112 179 -175q75 -27 149 -57q179 -72 179 -237z" />
    <glyph glyph-name="uni0162" unicode="&#x162;" horiz-adv-x="1273" 
d="M354 0v14q135 0 170 37t35 139v1059h-12q-131 1 -216 -27t-134 -97t-67 -115t-32 -106t-16 -64l-14 2l38 424h1061l39 -424l-14 -2q-45 186 -88 254q-100 156 -377 155h-12v-1059q0 -102 35 -139t170 -37v-14h-292l-89 -115q37 13 105 13t123 -36q54 -36 54 -110
q-1 -74 -69 -112t-174 -39q-106 0 -195 63l6 10q72 -45 148 -45q77 0 119 35t42 89t-30 87q-31 33 -80 33t-86 -16l-4 4l109 139h-253z" />
    <glyph glyph-name="uni0163" unicode="&#x163;" horiz-adv-x="647" 
d="M334 -420q-106 0 -195 64l6 10q72 -45 148 -45t119 35t43 89t-31 87t-80 33t-86 -17l-4 4l113 144q-80 12 -125 66t-45 147v604h-164v18h164v215l141 21v-236h260v-18h-260v-608q0 -172 127 -173q90 0 176 113l10 -8q-117 -154 -266 -141l-90 -119q37 12 107 12t122 -36
q54 -35 54 -109t-69 -113t-175 -39z" />
    <glyph glyph-name="Tcaron" unicode="&#x164;" horiz-adv-x="1273" 
d="M639 1362q-35 0 -59 31l-226 270l4 4l281 -158l281 158l4 -4l-226 -270q-24 -31 -59 -31zM354 0v14q135 0 170 37t35 139v1059h-12q-131 1 -216 -27t-134 -97t-67 -115t-32 -106t-16 -64l-14 2l38 424h1061l39 -424l-14 -2q-45 186 -88 254q-100 156 -377 155h-12v-1059
q0 -102 35 -139t170 -37v-14h-566z" />
    <glyph glyph-name="tcaron" unicode="&#x165;" horiz-adv-x="645" 
d="M401 -18q-89 0 -147 56q-57 56 -57 159v604h-164v18h164v215l141 21v-236h260v-18h-260v-608q0 -172 127 -173q90 0 176 113l10 -8q-51 -67 -106 -105t-144 -38zM494 975l-7 2q6 61 12 174t17 148q10 35 40 51t60 6t42 -41q11 -31 -3 -70t-161 -270z" />
    <glyph glyph-name="Tbar" unicode="&#x166;" horiz-adv-x="1277" 
d="M356 0v14q135 0 170 37t35 139v418h-325v19h325v622h-12q-131 1 -216 -27t-134 -97t-67 -115t-32 -106t-16 -64l-14 2l39 424h1060l39 -424l-14 -2q-45 186 -88 254q-100 156 -377 155h-12v-622h330v-19h-330v-418q0 -102 35 -139t170 -37v-14h-566z" />
    <glyph glyph-name="tbar" unicode="&#x167;" horiz-adv-x="649" 
d="M403 -18q-89 0 -147 56q-57 56 -57 159v274h-152v18h152v312h-164v18h164v215l141 21v-236h260v-18h-260v-312h250v-18h-250v-278q0 -172 127 -173q90 0 176 113l10 -8q-51 -67 -106 -105t-144 -38z" />
    <glyph glyph-name="Utilde" unicode="&#x168;" horiz-adv-x="1409" 
d="M598 1667q53 0 163 -62q110 -63 156 -63t75 26t36 105h10q-23 -254 -153 -254q-53 1 -163 63t-156 62t-68 -20t-31 -45q-8 -25 -12 -66h-11q23 254 154 254zM246 418v657q0 102 -35 139t-170 37v15h565v-15q-135 0 -170 -37t-35 -139v-657q0 -418 342 -418q182 0 284 112
q101 112 101 300v37q0 549 -34 675t-209 127v15h506v-15q-174 0 -208 -122t-34 -631v-86q-1 -209 -117 -323t-311 -114t-327 92q-69 48 -108 138q-40 90 -40 213z" />
    <glyph glyph-name="utilde" unicode="&#x169;" horiz-adv-x="1077" 
d="M700 1133q46 0 68 20t31 45q8 25 12 66h10q-23 -254 -153 -254q-53 0 -163 62t-156 62t-75 -25q-29 -26 -36 -105h-11q23 254 154 253q53 0 163 -62t156 -62zM414 -23q-98 0 -164 65t-66 196v438q0 72 -36 91t-128 19v13l306 41v-602q0 -195 161 -195q119 0 256 141v492
q0 72 -35 91q-36 19 -128 19v13l305 41v-715q0 -72 36 -91t128 -20v-14h-306v160q-175 -183 -329 -183z" />
    <glyph glyph-name="Umacron" unicode="&#x16a;" horiz-adv-x="1409" 
d="M477 1434v59h527v-59h-527zM246 418v657q0 102 -35 139t-170 37v15h565v-15q-135 0 -170 -37t-35 -139v-657q0 -418 342 -418q182 0 284 112q101 112 101 300v37q0 549 -34 675t-209 127v15h506v-15q-174 0 -208 -122t-34 -631v-86q-1 -209 -117 -323t-311 -114t-327 92
q-69 48 -108 138q-40 90 -40 213z" />
    <glyph glyph-name="umacron" unicode="&#x16b;" horiz-adv-x="1077" 
d="M252 1024v59h526v-59h-526zM414 -23q-98 0 -164 65t-66 196v438q0 72 -36 91t-128 19v13l306 41v-602q0 -195 161 -195q119 0 256 141v492q0 72 -35 91q-36 19 -128 19v13l305 41v-715q0 -72 36 -91t128 -20v-14h-306v160q-175 -183 -329 -183z" />
    <glyph glyph-name="Ubreve" unicode="&#x16c;" horiz-adv-x="1409" 
d="M735 1384q-86 0 -139 54t-68 114q-14 61 -14 134h4q41 -176 217 -176t217 176h4q0 -72 -14 -134t-68 -114q-54 -54 -139 -54zM246 418v657q0 102 -35 139t-170 37v15h565v-15q-135 0 -170 -37t-35 -139v-657q0 -418 342 -418q182 0 284 112q101 112 101 300v37
q0 549 -34 675t-209 127v15h506v-15q-174 0 -208 -122t-34 -631v-86q-1 -209 -117 -323t-311 -114t-327 92q-69 48 -108 138q-40 90 -40 213z" />
    <glyph glyph-name="ubreve" unicode="&#x16d;" horiz-adv-x="1077" 
d="M524 975q-86 0 -139 53q-53 52 -67 114t-15 134h4q41 -176 217 -176t217 176h4q0 -72 -14 -133t-67 -115q-54 -53 -140 -53zM414 -23q-98 0 -164 65t-66 196v438q0 72 -36 91t-128 19v13l306 41v-602q0 -195 161 -195q119 0 256 141v492q0 72 -35 91q-36 19 -128 19v13
l305 41v-715q0 -72 36 -91t128 -20v-14h-306v160q-175 -183 -329 -183z" />
    <glyph glyph-name="Uring" unicode="&#x16e;" horiz-adv-x="1409" 
d="M736 1370q95 0 95 177t-95 177t-95 -177t95 -177zM737 1360q-82 0 -140 52t-58 134t58 135t140 53q83 0 141 -52q58 -54 58 -136t-58 -134t-141 -52zM246 418v657q0 102 -35 139t-170 37v15h565v-15q-135 0 -170 -37t-35 -139v-657q0 -418 342 -418q182 0 284 112
q101 112 101 300v37q0 549 -34 675t-209 127v15h506v-15q-174 0 -208 -122t-34 -631v-86q-1 -209 -117 -323t-311 -114t-327 92q-69 48 -108 138q-40 90 -40 213z" />
    <glyph glyph-name="uring" unicode="&#x16f;" horiz-adv-x="1077" 
d="M519 961q95 0 95 177t-95 177t-95 -177t95 -177zM520 950q-82 0 -140 52t-58 134t58 136q58 53 140 53t140 -53t58 -135q0 -83 -58 -135t-140 -52zM414 -23q-98 0 -164 65t-66 196v438q0 72 -36 91t-128 19v13l306 41v-602q0 -195 161 -195q119 0 256 141v492
q0 72 -35 91q-36 19 -128 19v13l305 41v-715q0 -72 36 -91t128 -20v-14h-306v160q-175 -183 -329 -183z" />
    <glyph glyph-name="Uhungarumlaut" unicode="&#x170;" horiz-adv-x="1409" 
d="M823 1368l-4 4q29 51 89 166t80 140q20 24 52 28t50 -14q49 -45 0 -101q-38 -38 -131 -112t-136 -111zM518 1368l-4 4q31 55 87 163t79 138q22 29 54 33t50 -14q49 -45 0 -101q-20 -26 -124 -108q-103 -82 -142 -115zM246 418v657q0 102 -35 139t-170 37v15h565v-15
q-135 0 -170 -37t-35 -139v-657q0 -418 342 -418q182 0 284 112q101 112 101 300v37q0 549 -34 675t-209 127v15h506v-15q-174 0 -208 -122t-34 -631v-86q-1 -209 -117 -323t-311 -114t-327 92q-69 48 -108 138q-40 90 -40 213z" />
    <glyph glyph-name="uhungarumlaut" unicode="&#x171;" horiz-adv-x="1077" 
d="M569 958l-4 5q32 55 92 170q61 114 79 137q18 22 50 26t50 -14q49 -45 0 -100q-38 -38 -131 -112q-93 -75 -136 -112zM264 958l-4 5q31 55 86 160t79 137q23 32 55 36t50 -14q49 -45 0 -100q-20 -26 -124 -108q-103 -83 -142 -116zM414 -23q-98 0 -164 65t-66 196v438
q0 72 -36 91t-128 19v13l306 41v-602q0 -195 161 -195q119 0 256 141v492q0 72 -35 91q-36 19 -128 19v13l305 41v-715q0 -72 36 -91t128 -20v-14h-306v160q-175 -183 -329 -183z" />
    <glyph glyph-name="Uogonek" unicode="&#x172;" horiz-adv-x="1409" 
d="M784 -416q-88 0 -142 38t-54 124t75 143q60 49 150 95q-136 -25 -272 13q-295 83 -295 421v657q0 102 -35 139t-170 37v15h565v-15q-135 0 -170 -37t-35 -139v-657q0 -418 342 -418q182 0 284 112q101 112 101 300v37q0 551 -36 677t-207 125v15h506v-15
q-174 0 -208 -122t-34 -631v-86q0 -307 -262 -412q-121 -50 -154 -129q-18 -43 -18 -98q0 -150 153 -150q49 0 99 17l4 -13q-99 -43 -187 -43z" />
    <glyph glyph-name="uogonek" unicode="&#x173;" horiz-adv-x="1077" 
d="M821 -416q-88 0 -142 38t-54 112t48 130q31 40 83 68q52 29 102 54l29 14h-144v160q-176 -182 -329 -183q-98 0 -164 65t-66 196v438q0 72 -36 91t-128 19v13l306 41v-602q0 -195 161 -195q119 0 256 141v492q0 72 -35 91q-36 19 -128 19v13l305 41v-715q0 -72 36 -91
t128 -20v-14h-129q-78 -40 -123 -92t-45 -137q0 -147 153 -148q49 0 99 17l4 -13q-99 -43 -187 -43z" />
    <glyph glyph-name="Wcircumflex" unicode="&#x174;" horiz-adv-x="1947" 
d="M709 1372l-4 4l225 271q26 31 60 31t59 -31l225 -271l-4 -4l-281 158zM-31 1266h568v-15q-127 0 -159 -56t21 -191l320 -807l266 692l-31 90q-47 133 -110 203t-166 69v15h561v-15q-125 0 -156 -55t19 -192l276 -795l211 582q88 246 88 346q0 115 -168 114v15h490v-15
q-158 0 -234 -108q-43 -61 -155 -363l-293 -786h-12l-308 860l-335 -860h-13l-399 985q-56 139 -114 206t-167 66v15z" />
    <glyph glyph-name="wcircumflex" unicode="&#x175;" horiz-adv-x="1456" 
d="M750 1268q35 0 59 -31l225 -270l-4 -4l-280 157l-281 -157l-4 4l225 270q25 31 60 31zM-27 805v14h506v-14q-207 0 -125 -180l193 -471l180 456q-40 110 -81 152q-42 43 -118 43v14h486v-14q-123 0 -155 -46t7 -134l176 -467l93 245q90 238 90 310q0 92 -144 92v14h398
v-14q-143 0 -205 -109q-10 -18 -121 -301l-164 -413h-16l-234 596l-243 -596h-17l-260 616q-51 119 -101 163t-145 44z" />
    <glyph glyph-name="Ycircumflex" unicode="&#x176;" horiz-adv-x="1329" 
d="M412 1372l-4 4l225 271q25 31 59 31t60 -31l225 -271l-4 -4l-281 158zM387 0v14q68 0 134 25q22 8 36 32q13 25 21 35q14 19 14 93v327l-262 445q-51 86 -89 137t-103 97t-136 46v15h573v-15q-125 0 -149 -58t49 -181l252 -428h6l68 112q131 220 178 312t47 143
q0 100 -172 100v15h541v-15q-182 0 -289 -123q-49 -53 -291 -444l-67 -109v-376q0 -72 10 -88q10 -17 24 -41t36 -31q65 -23 134 -25v-14h-565z" />
    <glyph glyph-name="ycircumflex" unicode="&#x177;" horiz-adv-x="985" 
d="M532 1268q34 0 60 -31l225 -270l-4 -4l-281 157l-280 -157l-4 4l225 270q25 31 59 31zM207 -356q-80 0 -80 65q0 76 144 104q56 11 117 48q60 37 87 98l8 21l-260 618q-51 119 -101 163t-145 44v14h527v-14q-127 0 -158 -47t12 -133l193 -480l78 195q125 311 125 377
q0 88 -144 88v14h398v-14q-141 0 -205 -109q-18 -29 -158 -364l-184 -445q-39 -95 -107 -169t-147 -74z" />
    <glyph glyph-name="Ydieresis" unicode="&#x178;" horiz-adv-x="1329" 
d="M868 1415q-42 0 -72 31t-30 74q0 44 30 74t72 30t74 -31q31 -31 31 -73t-31 -74q-31 -31 -74 -31zM637 1520q-1 -44 -31 -74q-30 -31 -72 -31t-73 31t-31 74q0 44 30 74t72 30t74 -30q31 -30 31 -74zM387 0v14q68 0 134 25q22 8 36 32q13 25 21 35q14 19 14 93v327
l-262 445q-51 86 -89 137t-103 97t-136 46v15h573v-15q-125 0 -149 -58t49 -181l252 -428h6l68 112q131 220 178 312t47 143q0 100 -172 100v15h541v-15q-182 0 -289 -123q-49 -53 -291 -444l-67 -109v-376q0 -72 10 -88q10 -17 24 -41t36 -31q65 -23 134 -25v-14h-565z" />
    <glyph glyph-name="Zacute" unicode="&#x179;" horiz-adv-x="1189" 
d="M510 1372l-4 4q39 53 118 168t109 143q31 29 62 27t51 -24q49 -53 -12 -111q-33 -29 -152 -100q-119 -72 -172 -107zM440 1247q-130 0 -202 -94t-119 -266h-13l25 379h950l4 -4l-825 -1242h506q105 0 165 62q32 33 61 71t54 113q25 76 44 137h12l-39 -403h-989l-2 4
l823 1243h-455z" />
    <glyph glyph-name="zacute" unicode="&#x17a;" horiz-adv-x="880" 
d="M354 963l-4 4q39 53 117 167t109 142q32 29 63 28t51 -24q49 -53 -12 -111q-36 -32 -153 -101q-118 -70 -171 -105zM350 805q-100 0 -158 -87t-81 -198h-13l29 299h647l6 -8l-528 -793h274q176 0 256 275h13l-31 -293h-676l-6 8l528 797h-260z" />
    <glyph glyph-name="Zdotaccent" unicode="&#x17b;" horiz-adv-x="1189" 
d="M610 1415q-47 0 -80 34t-32 81q0 47 32 80q33 32 79 32t80 -32t34 -80q0 -47 -33 -81t-80 -34zM440 1247q-130 0 -202 -94t-119 -266h-13l25 379h950l4 -4l-825 -1242h506q105 0 165 62q32 33 61 71t54 113q25 76 44 137h12l-39 -403h-989l-2 4l823 1243h-455z" />
    <glyph glyph-name="zdotaccent" unicode="&#x17c;" horiz-adv-x="880" 
d="M453 1006q-47 0 -80 34t-33 80q0 47 33 80t80 33t79 -33t33 -80q-1 -46 -33 -80t-79 -34zM350 805q-100 0 -158 -87t-81 -198h-13l29 299h647l6 -8l-528 -793h274q176 0 256 275h13l-31 -293h-676l-6 8l528 797h-260z" />
    <glyph glyph-name="Zcaron" unicode="&#x17d;" horiz-adv-x="1189" 
d="M614 1362q-35 0 -59 31l-225 270l4 4l280 -158l281 158l4 -4l-225 -270q-25 -31 -60 -31zM440 1247q-130 0 -202 -94t-119 -266h-13l25 379h950l4 -4l-825 -1242h506q105 0 165 62q32 33 61 71t54 113q25 76 44 137h12l-39 -403h-989l-2 4l823 1243h-455z" />
    <glyph glyph-name="zcaron" unicode="&#x17e;" horiz-adv-x="880" 
d="M451 952q-35 0 -60 31l-225 270l4 4l281 -157l280 157l4 -4l-225 -270q-24 -31 -59 -31zM350 805q-100 0 -158 -87t-81 -198h-13l29 299h647l6 -8l-528 -793h274q176 0 256 275h13l-31 -293h-676l-6 8l528 797h-260z" />
    <glyph glyph-name="AEacute" unicode="&#x1fc;" horiz-adv-x="1980" 
d="M1208 1372l-4 4q39 53 118 169t110 143q32 28 62 26t50 -24q49 -53 -12 -111q-33 -29 -152 -100q-119 -72 -172 -107zM999 467v608q0 102 -30 135l-504 -743h534zM-74 0v14q166 0 292 143q100 113 181 251l555 815q-47 29 -159 28v15h1024l24 -359l-12 -2
q-29 131 -73 199q-94 145 -453 145h-150v-610h33q227 0 307 46t104 208h13v-524h-13q-25 162 -104 208q-80 46 -307 46h-33v-607h176q297 0 401 106q54 56 77 111q24 55 49 152l14 -2l-39 -383h-1038v14q135 0 170 37t34 139v259h-546l-39 -60q-180 -265 -104 -340
q36 -35 124 -35v-14h-508z" />
    <glyph glyph-name="aeacute" unicode="&#x1fd;" horiz-adv-x="1488" 
d="M657 963l-4 4q39 53 117 167t110 143q32 28 62 27t51 -24q49 -53 -12 -111q-34 -30 -152 -101q-119 -70 -172 -105zM1036 825q-102 0 -167 -94t-76 -246h456q0 115 -32 193q-32 79 -75 114q-45 33 -106 33zM410 10q156 0 268 191q-33 84 -35 176q-117 35 -190 35
q-215 0 -215 -207q0 -95 47 -145t125 -50zM358 -23q-122 -1 -196 61t-74 170t90 167t220 59t245 -41v199q0 115 -45 175t-149 60q-141 0 -205 -112q33 -8 53 -35q20 -28 20 -64q1 -36 -27 -64t-69 -28t-69 33t-27 78q0 82 93 144t233 63q217 0 286 -148q119 147 303 148
q145 0 253 -96t108 -279h-610q-9 -209 63 -331t217 -122q113 0 195 68t120 156l15 -7q-45 -102 -136 -178t-225 -76q-257 0 -352 203q-125 -203 -330 -203z" />
    <glyph glyph-name="Oslashacute" unicode="&#x1fe;" horiz-adv-x="1501" 
d="M752 1270q-128 0 -224 -52t-149 -144q-105 -181 -105 -444t99 -427l747 878q-124 189 -368 189zM752 -4q127 0 222 52t149 143q106 179 106 443q0 265 -99 429l-747 -877q123 -190 369 -190zM752 -25q-246 0 -422 148l-144 -168l-14 12l143 168q-215 193 -215 483
t184 482q184 190 468 190q246 0 419 -147l144 168l14 -15l-141 -166q215 -193 215 -482t-183 -481t-468 -192zM582 1393l-4 4q39 53 118 169t110 142q30 27 60 26t52 -24q49 -53 -13 -111q-38 -34 -154 -102q-116 -69 -169 -104z" />
    <glyph glyph-name="oslashacute" unicode="&#x1ff;" horiz-adv-x="1015" 
d="M510 823q-133 1 -198 -113q-64 -114 -64 -290t47 -277l418 549q-70 131 -203 131zM504 -4q136 0 200 114t64 290t-47 276l-418 -549q66 -131 201 -131zM520 -23q-150 0 -266 84l-92 -120l-15 10l93 121q-150 121 -150 331q0 211 128 325t278 114t266 -84l92 121l12 -11
l-92 -120q152 -123 152 -332t-128 -324t-278 -115zM344 963l-4 4q39 53 117 167t109 142q32 29 63 28t51 -24q49 -53 -12 -111q-36 -32 -153 -101q-118 -70 -171 -105z" />
    <glyph glyph-name="uni0218" unicode="&#x218;" horiz-adv-x="1118" 
d="M603 -188q48 0 77 -38t29 -112t-65 -157t-200 -134l-8 13q96 33 156 105q59 73 55 149q-23 -16 -59 -16t-63 27q-27 29 -27 69t28 67q29 27 77 27zM543 -25q-143 0 -396 56l-24 379l14 2q7 -18 23 -70q56 -175 113 -236q78 -81 147 -98q69 -18 137 -18q160 0 242 77
t82 193q0 149 -147 230q-65 36 -213 90t-223 101q-157 97 -157 273q1 144 101 240t309 96q55 0 135 -9t120 -12t122 9l28 -375l-12 -2q-2 4 -14 38q-42 122 -66 154q-24 31 -48 63t-77 66q-84 54 -206 54q-121 0 -195 -73t-74 -178t77 -173t185 -106t218 -80
q108 -42 185 -128q77 -84 77 -226t-110 -240t-353 -97z" />
    <glyph glyph-name="uni0219" unicode="&#x219;" horiz-adv-x="833" 
d="M336 -282q0 40 29 67t77 27t76 -38q29 -38 29 -112q-1 -74 -65 -157t-199 -134l-9 13q96 33 156 105q59 73 55 149q-23 -16 -57 -16t-64 27q-28 29 -28 69zM737 202q-1 -95 -83 -160t-224 -65t-313 37l-17 250l13 2q48 -114 89 -169q81 -109 214 -107q96 0 150 50t54 116
t-50 109q-52 42 -126 69l-148 56t-126 84q-51 56 -51 148t74 156t223 64q41 0 98 -6t85 -8t87 8l19 -256l-13 -2q-73 175 -171 226q-51 26 -121 26t-120 -48q-50 -47 -50 -111q-1 -112 179 -175q75 -27 149 -57q179 -72 179 -237z" />
    <glyph glyph-name="uni021A" unicode="&#x21a;" horiz-adv-x="1273" 
d="M646 -188q48 0 77 -38t29 -112t-65 -157t-200 -134l-8 13q96 33 156 105q59 73 55 149q-24 -16 -58 -16t-63 27q-29 29 -29 69t29 67t77 27zM354 0v14q135 0 170 37t35 139v1059h-12q-131 1 -216 -27t-134 -97t-67 -115t-32 -106t-16 -64l-14 2l38 424h1061l39 -424
l-14 -2q-45 186 -88 254q-100 156 -377 155h-12v-1059q0 -102 35 -139t170 -37v-14h-566z" />
    <glyph glyph-name="uni021B" unicode="&#x21b;" horiz-adv-x="647" 
d="M394 -188q48 0 77 -38t29 -112t-64 -157t-200 -134l-9 13q96 33 156 105q59 73 55 149q-22 -16 -58 -16t-64 27q-28 29 -28 69t29 67t77 27zM401 -18q-89 0 -147 56q-57 56 -57 159v604h-164v18h164v215l141 21v-236h260v-18h-260v-608q0 -172 127 -173q90 0 176 113
l10 -8q-51 -67 -106 -105t-144 -38z" />
    <glyph glyph-name="circumflex" unicode="&#x2c6;" horiz-adv-x="858" 
d="M428 1268q34 0 59 -31l226 -270l-4 -4l-281 157l-281 -157l-4 4l226 270q25 31 59 31z" />
    <glyph glyph-name="caron" unicode="&#x2c7;" horiz-adv-x="823" 
d="M428 952q-35 0 -59 31l-226 270l4 4l281 -157l281 157l4 -4l-226 -270q-24 -31 -59 -31z" />
    <glyph glyph-name="breve" unicode="&#x2d8;" horiz-adv-x="673" 
d="M344 975q-86 0 -139 53q-53 52 -67 114t-15 134h4q41 -176 217 -176t217 176h4q0 -72 -14 -133q-13 -61 -67 -115t-140 -53z" />
    <glyph glyph-name="dotaccent" unicode="&#x2d9;" horiz-adv-x="569" 
d="M295 1006q-47 0 -80 34t-33 80q0 47 33 80t79 33t80 -33t34 -80q0 -46 -33 -80t-80 -34z" />
    <glyph glyph-name="ring" unicode="&#x2da;" horiz-adv-x="602" 
d="M300 961q95 0 95 177t-95 177t-95 -177t95 -177zM301 950q-82 0 -140 52q-59 52 -59 134t58 136q58 53 141 53q82 0 140 -53q59 -53 59 -135q0 -83 -58 -135t-141 -52z" />
    <glyph glyph-name="ogonek" unicode="&#x2db;" horiz-adv-x="655" 
d="M330 -416q-88 0 -143 38q-54 38 -54 112t48 130q30 39 116 86t131 66l8 -12q-84 -41 -130 -94t-46 -139q0 -147 154 -148q49 0 98 17l4 -13q-98 -43 -186 -43z" />
    <glyph glyph-name="tilde" unicode="&#x2dc;" horiz-adv-x="790" 
d="M589 1133q47 0 69 20t30 45t12 66h11q-23 -254 -154 -254q-53 0 -163 62t-156 62t-75 -25q-29 -26 -36 -105h-10q23 254 153 253q53 0 163 -62t156 -62z" />
    <glyph glyph-name="hungarumlaut" unicode="&#x2dd;" horiz-adv-x="868" 
d="M459 958l-4 5q29 51 87 163t80 140q22 26 54 30t49 -14q49 -45 0 -100q-45 -45 -134 -116t-132 -108zM154 958l-4 5q31 55 81 151t84 150q23 28 55 32t50 -14q49 -45 0 -100q-22 -28 -124 -109q-103 -82 -142 -115z" />
    <glyph glyph-name="Wgrave" unicode="&#x1e80;" horiz-adv-x="1947" 
d="M1118 1372q-53 35 -171 106t-152 101q-61 57 -13 111q20 24 52 24t56 -22q25 -22 57 -66t84 -121q52 -76 91 -129zM-31 1266h568v-15q-127 0 -159 -56t21 -191l320 -807l266 692l-31 90q-47 133 -110 203t-166 69v15h561v-15q-125 0 -156 -55t19 -192l276 -795l211 582
q88 246 88 346q0 115 -168 114v15h490v-15q-158 0 -234 -108q-43 -61 -155 -363l-293 -786h-12l-308 860l-335 -860h-13l-399 985q-56 139 -114 206t-167 66v15z" />
    <glyph glyph-name="wgrave" unicode="&#x1e81;" horiz-adv-x="1456" 
d="M842 963q-53 35 -171 106t-153 100q-61 57 -12 111q20 23 51 24t59 -24t110 -143q81 -117 120 -170zM-27 805v14h506v-14q-207 0 -125 -180l193 -471l180 456q-40 110 -81 152q-42 43 -118 43v14h486v-14q-123 0 -155 -46t7 -134l176 -467l93 245q90 238 90 310
q0 92 -144 92v14h398v-14q-143 0 -205 -109q-10 -18 -121 -301l-164 -413h-16l-234 596l-243 -596h-17l-260 616q-51 119 -101 163t-145 44z" />
    <glyph glyph-name="Wacute" unicode="&#x1e82;" horiz-adv-x="1947" 
d="M879 1372l-5 4q39 53 118 168t110 143q32 29 62 27t50 -24q49 -53 -12 -111q-35 -31 -152 -101q-118 -71 -171 -106zM-31 1266h568v-15q-127 0 -159 -56t21 -191l320 -807l266 692l-31 90q-47 133 -110 203t-166 69v15h561v-15q-125 0 -156 -55t19 -192l276 -795l211 582
q88 246 88 346q0 115 -168 114v15h490v-15q-158 0 -234 -108q-43 -61 -155 -363l-293 -786h-12l-308 860l-335 -860h-13l-399 985q-56 139 -114 206t-167 66v15z" />
    <glyph glyph-name="wacute" unicode="&#x1e83;" horiz-adv-x="1456" 
d="M635 963l-4 4q39 53 117 167t109 142q32 29 63 28t51 -24q49 -53 -13 -111q-38 -34 -154 -102q-116 -69 -169 -104zM-27 805v14h506v-14q-207 0 -125 -180l193 -471l180 456q-40 110 -81 152q-42 43 -118 43v14h486v-14q-123 0 -155 -46t7 -134l176 -467l93 245
q90 238 90 310q0 92 -144 92v14h398v-14q-143 0 -205 -109q-10 -18 -121 -301l-164 -413h-16l-234 596l-243 -596h-17l-260 616q-51 119 -101 163t-145 44z" />
    <glyph glyph-name="Wdieresis" unicode="&#x1e84;" horiz-adv-x="1947" 
d="M1174 1415q-43 0 -73 31t-30 74q0 44 30 74t73 30q44 0 74 -31t30 -73t-30 -74q-30 -31 -74 -31zM838 1624q44 0 74 -30t30 -74t-30 -74q-30 -31 -73 -31q-42 0 -73 31t-31 74q0 44 30 74t73 30zM-31 1266h568v-15q-127 0 -159 -56t21 -191l320 -807l266 692l-31 90
q-47 133 -110 203t-166 69v15h561v-15q-125 0 -156 -55t19 -192l276 -795l211 582q88 246 88 346q0 115 -168 114v15h490v-15q-158 0 -234 -108q-43 -61 -155 -363l-293 -786h-12l-308 860l-335 -860h-13l-399 985q-56 139 -114 206t-167 66v15z" />
    <glyph glyph-name="wdieresis" unicode="&#x1e85;" horiz-adv-x="1456" 
d="M907 1006q-43 0 -73 30t-29 74q0 43 30 74q31 30 73 30t73 -30t31 -74t-31 -74t-74 -30zM676 1111q0 -45 -31 -75t-73 -30t-72 30t-31 74q0 43 30 74q31 30 73 30t73 -30t31 -73zM-27 805v14h506v-14q-207 0 -125 -180l193 -471l180 456q-40 110 -81 152q-42 43 -118 43
v14h486v-14q-123 0 -155 -46t7 -134l176 -467l93 245q90 238 90 310q0 92 -144 92v14h398v-14q-143 0 -205 -109q-10 -18 -121 -301l-164 -413h-16l-234 596l-243 -596h-17l-260 616q-51 119 -101 163t-145 44z" />
    <glyph glyph-name="Ygrave" unicode="&#x1ef2;" horiz-adv-x="1329" 
d="M782 1372q-53 35 -171 106t-152 101q-61 57 -13 111q20 24 52 24t56 -22q25 -22 57 -66t84 -121q52 -76 91 -129zM387 0v14q68 0 134 25q22 8 36 32q13 25 21 35q14 19 14 93v327l-262 445q-51 86 -89 137t-103 97t-136 46v15h573v-15q-125 0 -149 -58t49 -181l252 -428
h6l68 112q131 220 178 312t47 143q0 100 -172 100v15h541v-15q-182 0 -289 -123q-49 -53 -291 -444l-67 -109v-376q0 -72 10 -88q10 -17 24 -41t36 -31q65 -23 134 -25v-14h-565z" />
    <glyph glyph-name="ygrave" unicode="&#x1ef3;" horiz-adv-x="985" 
d="M629 963q-53 35 -171 106t-153 100q-61 57 -12 111q20 23 51 24t59 -24t110 -143q81 -117 120 -170zM207 -356q-80 0 -80 65q0 76 144 104q56 11 117 48q60 37 87 98l8 21l-260 618q-51 119 -101 163t-145 44v14h527v-14q-127 0 -158 -47t12 -133l193 -480l78 195
q125 311 125 377q0 88 -144 88v14h398v-14q-141 0 -205 -109q-18 -29 -158 -364l-184 -445q-39 -95 -107 -169t-147 -74z" />
    <glyph glyph-name="endash" unicode="&#x2013;" horiz-adv-x="1200" 
d="M131 442v64h938v-64h-938z" />
    <glyph glyph-name="emdash" unicode="&#x2014;" horiz-adv-x="1806" 
d="M131 442v64h1544v-64h-1544z" />
    <glyph glyph-name="quoteleft" unicode="&#x2018;" horiz-adv-x="448" 
d="M222 1044q36 0 64 -28t28 -69t-30 -67q-28 -26 -76 -26t-77 38t-29 112t65 156q65 83 200 134l8 -12q-96 -33 -156 -105q-59 -73 -55 -149q22 16 58 16z" />
    <glyph glyph-name="quoteright" unicode="&#x2019;" horiz-adv-x="462" 
d="M260 1100q-34 0 -64 28q-28 28 -28 68q0 41 29 68q29 26 77 26t76 -38q29 -38 29 -112q-1 -74 -65 -156q-64 -83 -199 -134l-9 12q96 33 156 106q59 73 55 148q-23 -16 -57 -16z" />
    <glyph glyph-name="quotesinglbase" unicode="&#x201a;" horiz-adv-x="462" 
d="M216 -2q-36 0 -64 28t-27 68q0 40 29 68q28 26 76 26t77 -38t29 -111q0 -74 -64 -157t-200 -134l-9 12q96 33 156 106q59 73 55 148q-22 -16 -58 -16z" />
    <glyph glyph-name="quotedblleft" unicode="&#x201c;" horiz-adv-x="798" 
d="M572 1044q34 0 63 -28t29 -69t-29 -67t-77 -26t-77 38t-29 112t65 156q65 83 200 134l8 -12q-96 -33 -156 -105q-59 -73 -55 -149q24 16 58 16zM222 1044q36 0 64 -28t28 -69t-30 -67q-28 -26 -76 -26t-77 38t-29 112t65 156q65 83 200 134l8 -12q-96 -33 -156 -105
q-59 -73 -55 -149q22 16 58 16z" />
    <glyph glyph-name="quotedblright" unicode="&#x201d;" horiz-adv-x="813" 
d="M609 1100q-35 0 -63 28t-28 68q0 41 29 68q29 26 77 26t76 -38t29 -112q-1 -74 -65 -156q-64 -83 -199 -134l-8 12q96 33 155 106t56 148q-23 -16 -59 -16zM260 1100q-34 0 -64 28q-28 28 -28 68q0 41 29 68q29 26 77 26t76 -38q29 -38 29 -112q-1 -74 -65 -156
q-64 -83 -199 -134l-9 12q96 33 156 106q59 73 55 148q-23 -16 -57 -16z" />
    <glyph glyph-name="quotedblbase" unicode="&#x201e;" horiz-adv-x="811" 
d="M567 -2q-35 0 -63 28t-29 68q0 40 29 68q29 26 77 26q49 0 77 -38t28 -111q0 -74 -64 -157t-200 -134l-8 12q96 33 155 106t56 148q-23 -16 -58 -16zM216 -2q-36 0 -64 28t-27 68q0 40 29 68q28 26 76 26t77 -38t29 -111q0 -74 -64 -157t-200 -134l-9 12q96 33 156 106
q59 73 55 148q-22 -16 -58 -16z" />
    <glyph glyph-name="dagger" unicode="&#x2020;" horiz-adv-x="1048" 
d="M525 -354q-46 0 -63 32q-18 32 -18 88t34 389t38 683q-259 0 -295 -51q-16 -24 -26 -91q-2 -18 -15 -18q-26 0 -50 45t-24 98q0 76 74 76q31 0 143 -23t193 -22q-2 76 -34 215t-31 174q-1 88 73 88t74 -88q0 -35 -32 -174t-34 -215q80 0 192 22t144 23q74 0 74 -76
q0 -53 -24 -98t-50 -45q-12 0 -14 18q-10 68 -26 92q-34 49 -296 50q4 -348 38 -681t34 -389t-16 -89q-17 -33 -63 -33z" />
    <glyph glyph-name="daggerdbl" unicode="&#x2021;" horiz-adv-x="1048" 
d="M524 -354q-74 0 -73 88q0 35 31 174q32 139 34 215q-82 0 -194 -23t-142 -22q-74 0 -74 76q0 53 25 98t49 45q12 0 15 -18q10 -68 26 -92q32 -48 295 -50q-2 63 -27 178t-24 172q0 57 24 172q25 115 27 179q-259 0 -295 -51q-16 -24 -26 -91q-2 -18 -15 -18q-26 0 -50 45
t-24 98q0 76 74 76q31 0 143 -23t193 -22q-2 76 -34 215t-31 174q-1 88 73 88t74 -88q0 -35 -32 -174t-34 -215q80 0 192 22t144 23q74 0 74 -76q0 -53 -24 -98t-50 -45q-12 0 -14 18q-10 68 -26 92q-34 49 -296 50q2 -59 27 -174q25 -114 25 -176t-25 -177t-27 -174
q260 0 295 50q16 24 27 92q2 18 14 18q25 0 50 -45t24 -98q0 -76 -74 -76q-32 0 -144 22t-192 23q2 -76 34 -215t32 -174q0 -88 -74 -88z" />
    <glyph glyph-name="bullet" unicode="&#x2022;" horiz-adv-x="704" 
d="M352 322q-72 0 -124 52t-52 124t52 124t124 52t124 -52t52 -124t-52 -124t-124 -52z" />
    <glyph glyph-name="ellipsis" unicode="&#x2026;" horiz-adv-x="1599" 
d="M1374 -14q-42 0 -72 30t-30 72q0 43 30 72q30 28 72 28t72 -28q29 -28 29 -72q0 -42 -29 -72t-72 -30zM801 -14q-43 0 -73 30t-30 72q0 43 30 72q30 28 73 28t71 -28t29 -72q-1 -42 -29 -72t-71 -30zM227 -14q-43 0 -73 30t-29 72q0 43 30 72q31 28 73 28t71 -28t29 -72
q0 -42 -29 -72t-72 -30z" />
    <glyph glyph-name="perthousand" unicode="&#x2030;" horiz-adv-x="2068" 
d="M356 639q88 0 130 91q42 92 42 234t-47 228q-35 31 -59 61q-29 18 -66 19q-88 0 -130 -90t-42 -226t42 -226q42 -91 130 -91zM1030 -6q88 0 130 91t42 226t-42 225t-130 91q-88 0 -130 -90q-42 -89 -42 -225t42 -227t130 -91zM1714 -6q88 0 130 91t42 226t-42 225
t-130 91q-88 0 -130 -90q-42 -89 -42 -225t42 -227t130 -91zM1030 -20q-127 0 -206 94t-79 237t79 237t206 93q127 0 206 -93q79 -92 79 -236t-79 -238t-206 -94zM1714 -20q-127 0 -206 94t-78 237q0 143 78 237q79 93 206 93t206 -93q79 -92 79 -236t-79 -238t-206 -94z
M356 625q-128 0 -206 94t-78 237q0 142 79 236t205 94q166 0 242 -149q86 -33 196 -33t279 82q8 18 21 50q12 32 21 44t24 12q33 0 32 -35q0 -45 -79 -77l-828 -1196l-16 10l807 1165q-143 -72 -256 -72t-191 29q33 -76 33 -160q0 -143 -79 -237t-206 -94z" />
    <glyph glyph-name="guilsinglleft" unicode="&#x2039;" horiz-adv-x="733" 
d="M649 47l-592 410v4l592 409l6 -10l-460 -401l460 -402z" />
    <glyph glyph-name="guilsinglright" unicode="&#x203a;" horiz-adv-x="733" 
d="M84 47l-6 10l461 402l-461 401l6 10l592 -409v-4z" />
    <glyph glyph-name="fraction" unicode="&#x2044;" horiz-adv-x="327" 
d="M-299 -20l-14 10l940 1292l14 -8z" />
    <glyph glyph-name="uni2070" unicode="&#x2070;" horiz-adv-x="770" 
d="M385 680q90 0 134 115t44 285t-44 284q-44 115 -134 115t-134 -115t-44 -285q0 -171 44 -285t134 -114zM385 672q-143 0 -225 116t-82 290q0 175 82 292t225 117t225 -117t82 -292q0 -174 -82 -290t-225 -116z" />
    <glyph glyph-name="uni2074" unicode="&#x2074;" horiz-adv-x="677" 
d="M266 686v8q76 0 104 26t27 91v82h-370l-4 8l133 148q43 47 81 123t37 151q0 119 -88 160q106 2 172 -37t66 -90t-34 -95t-110 -115t-108 -102l-131 -139h356v154l109 110h6v-264q47 0 74 7t28 8q23 0 23 -20t-23 -19q-2 0 -30 6t-72 6v-84q0 -67 27 -91t100 -24v-8h-373z
" />
    <glyph glyph-name="uni2075" unicode="&#x2075;" horiz-adv-x="692" 
d="M600 1434q0 -92 -124 -92t-304 73l-35 -313q96 41 211 41t197 -65t82 -169t-88 -171q-89 -66 -212 -66t-197 50t-73 118q0 36 23 60q22 24 54 24t54 -23t21 -55q1 -32 -19 -54t-51 -24q51 -88 159 -88t154 69t46 169t-54 154q-54 56 -148 56q-93 0 -159 -36
q-6 -43 -26 -43t-21 18q0 18 39 33l37 370l168 -8q140 0 183 16q42 16 63 35q20 -45 20 -79z" />
    <glyph glyph-name="uni2076" unicode="&#x2076;" horiz-adv-x="751" 
d="M382 680q81 0 127 72t46 174t-40 168t-120 66t-135 -62q-55 -60 -53 -162t48 -179t127 -77zM389 672q-161 0 -237 119t-76 285t92 288q92 123 246 123q100 0 165 -50t64 -118q-1 -37 -23 -62t-54 -25t-54 24t-20 55q0 31 19 55t48 25q-29 88 -131 88q-74 0 -124 -46
q-117 -108 -101 -425q13 78 75 126t160 48t170 -75q70 -75 70 -181t-80 -180t-209 -74z" />
    <glyph glyph-name="uni2077" unicode="&#x2077;" horiz-adv-x="608" 
d="M172 1352q-100 0 -102 -131h-13v249h11l4 -178h2q8 90 34 140t86 49q60 0 143 -74t134 -74t80 41t16 96h13l2 -26q0 -46 -75 -188t-114 -271t-49 -299h-137q17 158 115 326q99 169 163 254q63 86 72 102h-2q-43 -66 -115 -65q-39 1 -126 25q-88 24 -142 24z" />
    <glyph glyph-name="uni2078" unicode="&#x2078;" horiz-adv-x="757" 
d="M379 1479q-82 -1 -119 -55t-37 -133t37 -134t119 -55t119 55t37 134t-37 133t-119 55zM379 680q94 0 134 59t40 145t-40 148t-134 62t-134 -62t-40 -147t40 -145t134 -60zM379 672q-141 0 -221 60t-80 150t66 149q67 58 188 67q-109 8 -171 60q-63 52 -63 135t77 139
t204 55q127 0 204 -55q77 -54 77 -138t-63 -136q-62 -52 -171 -60q122 -8 188 -66t66 -149t-80 -151t-221 -60z" />
    <glyph glyph-name="uni2079" unicode="&#x2079;" horiz-adv-x="755" 
d="M375 1479q-82 0 -128 -72t-46 -175t40 -168q41 -65 119 -65q78 1 132 61t53 162q0 102 -44 179q-44 78 -126 78zM332 672q-104 0 -168 49q-63 49 -64 117q0 38 22 62t54 24t54 -23t22 -55t-20 -52q-20 -22 -50 -26q39 -88 142 -88q78 0 129 49t70 130q36 153 28 296
q-15 -78 -75 -127t-160 -49t-169 72q-69 71 -69 181t80 182t209 73q163 0 237 -117q74 -118 74 -284t-92 -290t-254 -124z" />
    <glyph glyph-name="uni2080" unicode="&#x2080;" horiz-adv-x="770" 
d="M385 -211q90 0 134 115q44 114 44 284t-44 285t-134 115t-134 -115t-44 -285t44 -284t134 -115zM385 -219q-143 0 -225 116q-82 117 -82 291t82 291t225 117t225 -117t82 -292t-82 -291t-225 -115z" />
    <glyph glyph-name="uni2081" unicode="&#x2081;" horiz-adv-x="446" 
d="M51 -205v8q74 0 103 26t28 91v516q0 61 -57 62h-92v8q166 12 260 76l4 -2v-662q0 -66 27 -90t100 -25v-8h-373z" />
    <glyph glyph-name="uni2082" unicode="&#x2082;" horiz-adv-x="700" 
d="M477 410q0 76 -38 126t-120 50q-119 0 -169 -111q32 -3 54 -25t22 -54t-22 -54t-56 -23q-34 0 -55 26q-22 26 -21 61q0 70 74 130q75 60 192 60q118 0 192 -55t74 -137t-56 -137q-56 -56 -129 -89q-218 -98 -286 -190q-29 -39 -37 -90q27 88 135 88q51 0 139 -36t134 -36
q102 0 102 104q0 23 -6 52h10q30 -137 -19 -228q-30 -55 -84 -55q-87 0 -160 88t-146 88q-49 0 -76 -33t-27 -77t8 -58h-12q-29 94 18 177t217 195q58 39 103 103t45 140z" />
    <glyph glyph-name="uni2083" unicode="&#x2083;" horiz-adv-x="712" 
d="M637 0q0 -104 -88 -162t-208 -57q-120 0 -196 50t-75 118q0 35 22 59t52 25q32 0 55 -23q23 -22 23 -54t-21 -54q-20 -22 -49 -27q41 -86 150 -86t158 59q48 58 48 154t-55 145t-146 50q-35 0 -63 -7l-29 -6q-25 0 -25 20t25 19q2 0 30 -8t60 -8q84 0 131 56
q47 55 47 139t-41 134t-120 50q-106 0 -152 -86q27 -4 45 -27t18 -53q-1 -30 -23 -54q-22 -22 -52 -22t-54 23q-23 23 -22 59q0 68 75 119t187 51t190 -51t78 -141t-72 -145q-72 -54 -192 -54h-4v-4h4q121 0 205 -49q84 -48 84 -152z" />
    <glyph glyph-name="uni2084" unicode="&#x2084;" horiz-adv-x="677" 
d="M264 -205v8q76 0 104 26t27 91v82h-370l-5 8l134 148q43 47 80 123q38 76 38 151q0 119 -88 160q106 2 172 -37t66 -90t-34 -95t-110 -115t-108 -101l-131 -140h356v154l109 111h6v-265q47 0 74 8t28 7q23 1 23 -19t-23 -20q-2 0 -30 6t-72 6v-84q0 -66 27 -90t100 -25
v-8h-373z" />
    <glyph glyph-name="uni2085" unicode="&#x2085;" horiz-adv-x="692" 
d="M600 543q0 -92 -124 -92t-304 73l-35 -313q96 41 211 41t197 -65t82 -169t-88 -171q-89 -66 -212 -66t-197 50t-73 118q0 37 23 61q22 24 54 23q32 0 54 -23q22 -24 21 -56q1 -32 -19 -54t-51 -23q51 -88 159 -88t154 69t46 169t-54 155q-54 56 -148 56q-93 0 -159 -37
q-6 -43 -26 -43t-21 18q0 18 39 33l37 371l168 -9q140 -1 183 15q42 16 63 37q20 -45 20 -80z" />
    <glyph glyph-name="uni2086" unicode="&#x2086;" horiz-adv-x="751" 
d="M382 -211q81 0 127 72t46 174t-40 168q-40 65 -120 65t-135 -61t-53 -163t48 -178q46 -77 127 -77zM389 -219q-161 0 -237 119q-76 118 -76 284t92 289t246 123q100 0 165 -50t64 -118q-1 -38 -23 -62t-54 -24t-54 24t-20 54q0 30 19 54t48 26q-29 88 -131 88
q-74 0 -124 -46q-117 -108 -101 -425q13 78 75 126t160 48t170 -75q70 -74 70 -180t-80 -180t-209 -75z" />
    <glyph glyph-name="uni2087" unicode="&#x2087;" horiz-adv-x="608" 
d="M172 461q-100 0 -102 -131h-13v250h11l4 -179h2q8 89 34 139t86 50t143 -74t134 -74t80 41t16 97h13l2 -27q0 -47 -75 -189t-114 -270q-39 -129 -49 -299h-137q17 160 116 327q99 168 162 253q63 86 72 102h-2q-43 -66 -115 -65q-39 0 -126 24q-88 24 -142 25z" />
    <glyph glyph-name="uni2088" unicode="&#x2088;" horiz-adv-x="757" 
d="M379 588q-82 0 -119 -54t-37 -134t37 -134q37 -55 119 -55t119 55t37 134q0 80 -37 134t-119 54zM379 -211q94 0 134 59q40 60 40 146t-40 147t-134 61t-134 -60q-40 -62 -40 -148t40 -146t134 -59zM379 -219q-141 0 -221 60q-80 61 -80 151t66 148q67 58 188 67
q-109 8 -171 60q-63 52 -63 135q0 82 77 138t204 56t204 -55t77 -139t-63 -135q-62 -52 -171 -60q122 -9 188 -67t66 -148t-80 -150t-221 -61z" />
    <glyph glyph-name="uni2089" unicode="&#x2089;" horiz-adv-x="755" 
d="M375 588q-82 0 -128 -72t-46 -175t40 -168q41 -65 119 -65t132 61q53 59 53 161t-44 180t-126 78zM332 -219q-104 0 -168 49q-63 49 -64 117q0 37 22 61t54 25q32 0 54 -23q22 -22 22 -54t-20 -54t-50 -25q39 -88 142 -88q78 0 129 49t70 130q36 153 28 296
q-15 -78 -75 -127t-160 -49t-169 72t-69 182t80 182t209 72q163 0 237 -117t74 -283t-92 -291q-92 -124 -254 -124z" />
    <glyph glyph-name="Euro" unicode="&#x20ac;" horiz-adv-x="1257" 
d="M733 -25q-201 1 -347 139t-177 384h-135v18h133q-4 66 -4 128t10 122h-139v18h141q41 230 187 368t339 138t298 -98t106 -209q0 -59 -34 -90t-78 -31t-76 33q-31 33 -31 79t31 79q32 33 77 34q-61 188 -256 189q-170 0 -273 -130t-130 -362h497v-18h-499q-6 -68 -6 -122
t4 -128h501v-18h-499q20 -230 116 -364t269 -134q248 0 381 287l14 -6q-148 -306 -420 -306z" />
    <glyph glyph-name="uni2116" unicode="&#x2116;" horiz-adv-x="2336" 
d="M1501 217v19h725v-19h-725zM1501 74v18h725v-18h-725zM1864 365q192 1 192 335t-192 334t-193 -334q0 -334 193 -335zM295 -250q-96 0 -164 75t-68 175q91 -111 217 -111t194 85t67 253v725q0 166 -47 233t-199 66v15h348l680 -1006v772q0 221 70 354t198 134
q96 0 163 -69t67 -169q-95 98 -219 98t-192 -85t-67 -253v-1046l-12 -4l-770 1122v-876q0 -219 -69 -354q-70 -134 -197 -134zM1864 350q-139 0 -245 93q-105 93 -105 256t104 256q106 93 246 93t244 -92q106 -94 106 -257t-106 -256t-244 -93z" />
    <glyph glyph-name="uni2117" unicode="&#x2117;" horiz-adv-x="1515" 
d="M758 -4q262 0 448 187t186 451t-186 449q-186 187 -448 187t-448 -186t-187 -450q0 -263 186 -451q187 -187 449 -187zM758 -25q-272 0 -465 193t-193 465t193 465q193 192 465 192t465 -192t193 -465q0 -272 -194 -465q-192 -193 -464 -193zM477 276v9q70 -1 89 21
t20 83v488q0 61 -20 83t-89 21v8h338q145 0 221 -55t76 -150q0 -201 -297 -200h-47v8h29q92 0 137 54t45 138t-45 140t-137 55h-86v-590q0 -61 19 -83t87 -21v-9h-340z" />
    <glyph glyph-name="trademark" unicode="&#x2122;" horiz-adv-x="1660" 
d="M723 715q75 0 99 52t36 251l6 98q4 74 -19 108q-24 34 -89 33v9h205l192 -406l168 406h180v-9q-53 1 -68 -23t-14 -77l15 -346q4 -55 21 -75t69 -21v-8h-277v8q51 0 68 21q16 22 14 71l-20 395l-199 -477h-4l-225 457l-11 -162q-12 -205 2 -255t89 -50v-8h-238v8z
M238 715q55 0 72 16t18 70v456h-6q-103 0 -138 -51q-36 -51 -59 -135h-8l16 195h498l16 -195h-8q-44 147 -113 173q-35 13 -86 13h-6v-456q0 -51 18 -69t74 -17v-8h-288v8z" />
    <glyph glyph-name="minus" unicode="&#x2212;" horiz-adv-x="1185" 
d="M137 494v20h912v-20h-912z" />
    <glyph glyph-name="notequal" unicode="&#x2260;" horiz-adv-x="1189" 
d="M133 342v20h324l239 404h-563v20h576l206 349l17 -11l-201 -338h313v-20h-325l-240 -404h565v-20h-577l-205 -346l-16 10l198 336h-311z" />
    <glyph glyph-name="s_t" unicode="&#xfb06;" horiz-adv-x="1433" 
d="M737 202q-1 -95 -83 -160t-224 -65t-313 37l-17 250l13 2q48 -114 89 -169q81 -109 214 -107q96 0 150 50t54 116t-50 109q-52 42 -126 69l-148 56t-126 84q-51 56 -51 148t74 156t223 64q33 0 135 -11q-74 84 -74 209q0 124 95 220q94 96 230 96t229 -88t93 -219v-230
h260v-18h-260v-608q0 -172 127 -173q90 0 176 113l11 -8q-50 -68 -106 -106q-56 -37 -145 -37t-147 56q-57 56 -57 159v604h-102v14q119 0 172 55q53 54 53 178t-90 208t-214 83q-124 0 -215 -92t-91 -212t82 -208q55 -4 108 9l19 -256l-13 -2q-73 175 -171 226
q-51 26 -121 26t-120 -48q-50 -47 -50 -111q-1 -112 179 -175q75 -27 149 -57q179 -72 179 -237z" />
    <glyph glyph-name="c_k" horiz-adv-x="1861" 
d="M475 -23q-174 0 -279 117q-106 118 -106 310t124 315t294 123q49 0 94 -13q-96 92 -96 178t105 145q75 42 174 74q99 34 163 54t126 41t97 51l7 -4v-1018l219 223q106 109 106 160q0 72 -127 72v14h453v-14q-113 -1 -205 -61t-217 -185l-35 -35l266 -379
q92 -131 234 -131v-14h-297l-303 422l-94 -94v-203q0 -72 36 -91t127 -20v-14h-469v14q92 0 128 20t36 91v1165q-45 -17 -151 -50q-105 -34 -139 -45q-99 -32 -160 -80q-60 -48 -61 -106q-1 -57 24 -94t86 -96q82 -31 133 -89t51 -114q-1 -56 -27 -92q-26 -35 -69 -35
t-70 28t-27 68q0 39 26 67q24 28 63 32q-55 141 -189 141q-134 1 -207 -119t-73 -304t72 -286q72 -104 188 -104q118 0 196 62t117 166l15 -7q-44 -109 -132 -183t-227 -73z" />
    <glyph glyph-name="c_t" horiz-adv-x="1509" 
d="M475 -23q-174 0 -279 117q-106 118 -106 310t124 315t294 123q68 0 129 -23q-84 88 -84 217q0 128 95 224q94 96 230 96t229 -88t93 -219v-230h260v-18h-260v-608q0 -172 127 -173q90 0 176 113l10 -8q-51 -68 -106 -106q-55 -37 -144 -37t-147 56q-57 56 -57 159v604
h-103v14q119 0 172 55q54 54 54 178t-90 208t-214 83q-124 0 -215 -92t-91 -224t116 -228q131 -74 131 -189q-1 -47 -27 -82t-69 -35t-70 28t-27 68q0 39 26 67q24 28 63 32q-55 141 -189 141q-134 1 -207 -119t-73 -304t72 -286q72 -104 188 -104q118 0 196 62t117 166
l15 -7q-44 -109 -132 -183t-227 -73z" />
    <glyph glyph-name="r_k" horiz-adv-x="1720" 
d="M47 0v14q92 0 128 20t36 91v551q0 72 -36 91t-128 19v13l305 41v-238q72 166 195 223q-100 96 -101 181q0 154 250 239q39 14 162 51t172 76l6 -4v-1018l219 223q106 109 107 160q0 72 -127 72v14h453v-14q-113 -1 -205 -61t-217 -185l-35 -35l266 -379q92 -131 234 -131
v-14h-297l-304 422l-94 -94v-203q0 -72 36 -91t128 -20v-14h-469v14q92 0 128 20t36 91v1165q-78 -27 -190 -61q-240 -78 -240 -225q-1 -45 21 -80t77 -90q31 10 70 10t67 -31t29 -74q0 -43 -30 -73q-31 -30 -73 -29q-42 0 -72 37t-19 82q-115 -31 -183 -181v-450
q0 -72 36 -91t128 -20v-14h-469z" />
    <glyph glyph-name="t_t" horiz-adv-x="1251" 
d="M401 -18q-89 0 -147 56q-57 56 -57 159v604h-164v18h164v215l141 21v-236h463v215l141 21v-236h260v-18h-260v-608q0 -172 127 -173q90 0 176 113l10 -8q-51 -68 -106 -106q-55 -37 -144 -37t-147 56q-57 56 -57 159v604h-463v-608q0 -172 127 -173q90 0 176 113l10 -8
q-51 -67 -106 -105t-144 -38z" />
    <glyph glyph-name="F_i" horiz-adv-x="1990" 
d="M1489 0v14q92 0 128 20t36 91v551q0 72 -36 91t-128 19v13l305 41v-715q0 -72 36 -91t128 -20v-14h-469zM543 0v14q135 0 170 37t35 139v1020q-154 25 -246 25q-170 0 -239 -69t-68 -171q0 -150 139 -227q-133 16 -215 80t-82 176q0 113 116 171t287 58t490 -60t436 -60
q172 1 243 71t70 170q0 143 -139 228q133 -16 215 -80t82 -175q0 -112 -113 -172q-113 -61 -286 -61t-535 68v-555h33q221 0 304 54t108 220h12v-565h-12q-25 166 -108 220t-304 54h-33v-420q0 -102 35 -139t170 -37v-14h-565z" />
    <glyph glyph-name="T_h" horiz-adv-x="2365" 
d="M541 14q135 0 170 37t34 139v1047q-201 25 -258 25q-159 0 -227 -70t-67 -172q0 -147 139 -225q-133 16 -215 79t-82 176q0 114 117 172t267 58t447 -43t387 -43q166 0 234 71t67 167q0 141 -139 231q133 -15 215 -79t82 -168t-88 -165v-594q178 184 330 185
q98 0 164 -65t65 -195v-457q0 -72 36 -91t128 -20v-14h-469v14q92 0 128 20t36 91v457q0 195 -162 194q-119 0 -256 -141v-510q0 -72 36 -91t128 -20v-14h-469v14q92 0 128 20t36 91v1067q-73 -16 -189 -16t-393 38v-1024q0 -102 35 -139t170 -37v-14h-565v14z" />
    <glyph glyph-name="C_o" horiz-adv-x="2232" 
d="M770 -25q-295 -1 -483 185q-189 186 -189 472t193 472t489 186q56 0 150 -9t140 -10t140 15l35 -385h-12q-82 193 -190 284q-109 91 -275 91t-281 -90q-213 -167 -215 -559q0 -279 119 -458t361 -179q334 0 508 389h12l-68 -342q-80 -25 -210 -43t-224 -19zM1411 217v19
h725v-19h-725zM1774 365q192 1 192 335t-192 334t-193 -334q0 -334 193 -335zM1774 350q-139 0 -245 93q-105 93 -105 256t104 256q106 93 246 93t244 -92q106 -94 106 -257t-106 -256t-244 -93zM1411 74v18h725v-18h-725z" />
    <glyph glyph-name="zero.op" horiz-adv-x="1171" 
d="M274 506q0 -246 84 -381t227 -135q144 0 228 136t84 380t-84 381t-227 137q-144 0 -228 -136t-84 -382zM586 -25q-115 -1 -220 55t-180 181q-74 125 -73 295q0 252 144 392q143 140 327 140t329 -140t145 -392t-144 -392q-146 -140 -328 -139z" />
    <glyph glyph-name="one.op" horiz-adv-x="737" 
d="M135 0v14q123 0 164 39t41 137v607q0 47 -18 71t-70 25h-152v12q240 12 375 113l8 -2v-826q0 -98 41 -137t164 -39v-14h-553z" />
    <glyph glyph-name="two.op" horiz-adv-x="1075" 
d="M762 789q0 97 -64 166t-182 69q-190 0 -285 -178q49 0 81 -33t32 -80t-32 -79t-80 -32t-78 38q-30 36 -31 88q0 104 119 197t290 93q170 0 284 -79t114 -203q0 -86 -60 -144t-152 -89q-92 -33 -192 -61q-340 -97 -370 -292q43 117 180 117q82 0 221 -67t217 -66
q156 0 156 165q0 39 -10 87h18q14 -68 14 -160t-46 -174t-141 -82t-185 97q-37 40 -74 81q-90 100 -178 99q-86 -1 -128 -53t-42 -114t14 -100h-20q-102 312 292 466q78 30 152 66q166 83 166 257z" />
    <glyph glyph-name="three.op" horiz-adv-x="1079" 
d="M971 79q1 -167 -137 -261t-318 -94t-298 82t-118 186q0 53 32 88t76 35t76 -33t32 -79t-32 -79q-30 -33 -73 -35q27 -61 97 -107t181 -46q162 0 241 97t79 251t-92 234t-236 79q-77 -3 -108 -12q-31 -8 -41 -8t-23 9q-12 9 -12 22q0 33 39 32l39 -14q39 -12 104 -10
q131 2 209 90t78 220t-66 216t-198 84q-176 0 -258 -154q42 -6 68 -38t26 -75q0 -44 -32 -77t-76 -33t-76 32t-31 87q0 106 115 188q116 82 280 82t287 -80t123 -222t-106 -230t-283 -94h-2v-6h2q176 0 304 -80t128 -247z" />
    <glyph glyph-name="four.op" horiz-adv-x="1021" 
d="M428 -252v14q123 0 164 39t41 138v145h-580l-4 14l223 262q66 78 126 197t61 242q0 180 -133 233q158 0 242 -60t85 -145q0 -85 -111 -215q-40 -45 -122 -130t-121 -130l-223 -250h557v265l133 145h10v-410q74 2 116 14t44 11q39 0 39 -33q0 -12 -16 -24t-55 1
q-40 13 -128 13v-145q0 -97 41 -137t164 -40v-14h-553z" />
    <glyph glyph-name="five.op" horiz-adv-x="1056" 
d="M496 -276q-190 0 -302 82t-112 186q0 55 32 89t76 34t77 -33q32 -33 32 -80t-32 -80t-77 -33q74 -154 279 -153q94 0 162 34q163 82 165 356q1 158 -91 246q-93 88 -235 89q-142 0 -261 -55q-8 -72 -49 -72q-29 0 -29 30t62 54l63 596q20 0 72 -2q310 -12 400 5
q89 17 111 31q23 13 35 27q39 -59 39 -117q0 -117 -161 -116q-121 0 -394 63q-90 20 -94 23l-55 -506q141 57 285 57q215 0 340 -104q124 -104 124 -267q0 -164 -136 -274t-326 -110z" />
    <glyph glyph-name="six.op" horiz-adv-x="1138" 
d="M580 -10q135 0 214 112q78 112 78 279q0 168 -68 274q-69 107 -205 107t-228 -100t-88 -257t83 -286t214 -129zM590 -25q-130 1 -230 61t-151 158q-102 197 -100 418q0 276 141 478t377 200q152 0 249 -81t97 -183q0 -57 -32 -92t-77 -35t-77 33t-31 80q0 47 32 80
q33 33 80 32q-49 154 -223 154q-104 0 -181 -55t-113 -141q-85 -204 -81 -396q2 -100 2 -182q25 131 126 211t241 80q174 0 285 -121q110 -121 110 -289t-124 -289t-320 -121z" />
    <glyph glyph-name="seven.op" horiz-adv-x="952" 
d="M700 772q-68 0 -206 43t-207 43q-107 0 -143 -58t-35 -151h-19v365h14l5 -269h2q12 137 51 208t133 71q61 0 121 -36t101 -78q108 -113 210 -113q76 0 115 53t39 123q0 12 -4 41h16q4 -20 4 -43q0 -76 -74 -213q-157 -295 -223 -511t-86 -499h-186q14 123 48 235
q58 192 245 488q57 92 140 220t95 155l-2 2q-49 -76 -154 -76z" />
    <glyph glyph-name="eight.op" horiz-adv-x="1126" 
d="M563 1276q-139 0 -204 -90t-65 -211t66 -213q64 -92 203 -92t204 92t64 213q0 121 -64 211q-65 90 -204 90zM860 317q0 118 -56 221q-30 54 -92 87t-150 33t-148 -34q-144 -77 -148 -307q0 -118 62 -223q62 -104 234 -104q232 0 285 218q13 52 13 109zM562 -25
q-204 1 -329 97t-125 244t106 240q105 91 282 108q-164 14 -258 97t-94 217t118 223q119 89 301 89t301 -89t119 -222t-94 -217t-258 -98q176 -16 281 -108q106 -92 106 -240t-126 -244t-330 -97z" />
    <glyph glyph-name="nine.op" horiz-adv-x="1138" 
d="M561 1024q-129 0 -209 -113t-80 -281t65 -273t200 -105t228 97t93 259q0 216 -126 344q-71 72 -171 72zM502 -276q-164 0 -261 80t-98 182q0 57 32 93t77 36t77 -33q31 -33 31 -80t-32 -80t-78 -33q66 -154 244 -153q104 0 180 55t112 140q88 202 82 396q-2 99 -2 181
q-25 -129 -123 -209t-239 -80q-176 0 -285 119t-109 292t126 291q125 118 319 117q131 0 229 -58t148 -154q99 -190 99 -392q-1 -202 -59 -356t-182 -254t-288 -100z" />
    <glyph glyph-name="A.alt" horiz-adv-x="2197" 
d="M1225 467h481l-250 598zM217 49q0 -149 95 -241t262 -92t299 128q132 129 239 400l397 1005h-299q-139 -1 -215 -75t-75 -187q0 -154 122 -231q-124 10 -204 79t-80 179t122 182q122 70 324 70h328l410 -971q57 -137 119 -209t169 -72v-14h-577v14q244 0 137 252l-76 180
h-497l-80 -204q-51 -132 -103 -226t-128 -175q-151 -163 -404 -163q-211 0 -348 100q-138 100 -138 270t155 276t345 82q-135 -29 -217 -119t-82 -238z" />
    <glyph glyph-name="B.alt" horiz-adv-x="1619" 
d="M786 662h207q164 0 241 78t77 206q0 129 -77 216t-241 87h-207v-587zM786 16h244q154 0 238 92t84 232q0 141 -89 223t-257 82h-220v-629zM426 0v14q135 0 170 37t35 139v1059h-137q-139 -1 -215 -75t-76 -187q0 -154 123 -231q-125 10 -205 79t-80 179t122 182
q122 70 324 70h508q477 0 478 -316q-1 -130 -87 -202t-278 -91v-4q215 -14 310 -94t95 -225q0 -334 -479 -334h-608z" />
    <glyph glyph-name="C.alt" horiz-adv-x="1349" 
d="M754 -25q-279 1 -467 187q-189 186 -189 470t193 471t479 187q219 0 358 -104t140 -217q0 -49 -31 -86t-79 -37t-80 32t-32 78t30 78q30 33 75 35q-125 207 -377 207t-377 -182t-125 -460t110 -453q56 -89 152 -140t226 -51q252 0 389 186q-41 6 -68 38t-27 77t32 77
t81 32t79 -39q30 -38 30 -82q0 -106 -158 -205t-364 -99z" />
    <glyph glyph-name="D.alt" horiz-adv-x="1826" 
d="M786 16h236q262 0 396 169t134 448t-134 447t-396 169h-236v-1233zM426 0v14q135 0 170 37t35 139v1059h-137q-139 -1 -215 -75t-76 -187q0 -154 123 -231q-125 10 -205 79t-80 179t122 182q122 70 324 70h535q319 0 512 -173q192 -173 192 -459t-192 -460t-512 -174
h-596z" />
    <glyph glyph-name="E.alt" horiz-adv-x="1611" 
d="M426 0v14q135 0 170 37t35 139v1059h-137q-139 -1 -215 -75t-76 -187q0 -154 123 -231q-125 10 -205 79t-80 179t122 182q122 70 324 70h963l25 -359l-13 -2q-29 131 -72 199q-94 145 -454 145h-150v-610h33q227 0 307 46t105 208h12v-524h-12q-25 162 -105 208t-307 46
h-33v-607h177q296 0 400 106q54 56 78 111t48 152l14 -2l-39 -383h-1038z" />
    <glyph glyph-name="F.alt" horiz-adv-x="1536" 
d="M426 0v14q135 0 170 37t35 139v1059h-137q-139 -1 -215 -75t-76 -187q0 -154 123 -231q-125 10 -205 79t-80 179t122 182q122 70 324 70h963l25 -387l-13 -2q-23 100 -50 160q-28 59 -84 113q-105 100 -392 99h-150v-622h33q221 0 304 54t108 220h12v-565h-12
q-25 166 -108 220t-304 54h-33v-420q0 -102 35 -139t170 -37v-14h-565z" />
    <glyph glyph-name="G.alt" horiz-adv-x="1536" 
d="M814 -23q-171 1 -316 57q-262 102 -358 358q-42 112 -42 235q0 287 210 475t515 188q231 0 369 -104t139 -217q0 -49 -31 -86q-30 -37 -78 -37t-80 32t-32 78t30 78q30 33 74 35q-125 207 -392 207t-408 -185q-142 -185 -142 -463t131 -456q131 -180 392 -180
q184 0 364 108v285q0 102 -40 144t-179 42v15h565v-15q-129 1 -159 -33t-31 -135v-546q-1 -145 -101 -243t-264 -151l-6 11q215 109 215 350v192q-174 -39 -345 -39z" />
    <glyph glyph-name="H.alt" horiz-adv-x="2205" 
d="M530 -322q-238 0 -372 106t-133 265q0 160 149 261q150 101 338 83q-291 -57 -291 -352q0 -150 80 -248t244 -98q377 0 377 547v1007h-138q-139 -1 -215 -75t-75 -187q0 -154 122 -231q-124 10 -204 79t-80 179t122 182q122 70 324 70h504v-15q-135 0 -170 -37t-35 -139
v-420h703v420q0 102 -35 139t-170 37v15h565v-15q-135 0 -170 -37t-35 -139v-885q0 -102 35 -139t170 -37v-14h-565v14q135 0 170 37t35 139v447h-703v-395q0 -258 -133 -411t-414 -153z" />
    <glyph glyph-name="I.alt" horiz-adv-x="1056" 
d="M426 0v14q135 0 170 37t35 139v1059h-137q-139 -1 -215 -75t-76 -187q0 -154 123 -231q-125 10 -205 79t-80 179t122 182q122 70 324 70h504v-15q-135 0 -170 -37t-35 -139v-885q0 -102 35 -139t170 -37v-14h-565z" />
    <glyph glyph-name="J.alt" horiz-adv-x="1331" 
d="M530 -322q-238 0 -372 106t-133 265q0 160 149 261q150 101 338 83q-291 -57 -291 -352q0 -150 80 -248t244 -98q377 0 377 547v1007h-138q-139 -1 -215 -75t-75 -187q0 -154 122 -231q-124 10 -204 79t-80 179t122 182q122 70 324 70h504v-15q-135 0 -170 -37t-35 -139
v-833q0 -258 -133 -411t-414 -153z" />
    <glyph glyph-name="K.alt" horiz-adv-x="1673" 
d="M426 0v14q135 0 170 37t35 139v1059h-137q-139 -1 -215 -75t-76 -187q0 -154 123 -231q-125 10 -205 79t-80 179t122 182q122 70 324 70h504v-15q-135 0 -170 -37t-35 -139v-543l398 406q156 158 155 229q0 84 -165 84v15h565v-15q-158 0 -295 -98q-82 -59 -248 -227
l-145 -150l548 -739q6 -8 40 -54q111 -151 156 -192q104 -97 137 -116q111 -61 159 -71q47 -10 115 -10t164 48l6 -13q-156 -86 -313 -86t-295 91t-289 300l-533 736l-160 -164v-316q0 -102 35 -139t170 -37v-14h-565z" />
    <glyph glyph-name="L.alt" horiz-adv-x="1112" 
d="M465 -154q98 0 131 38t33 161v1204h-137q-139 0 -216 -74q-76 -75 -75 -188q0 -154 123 -231q-125 10 -205 79t-80 179t122 182q122 70 324 70h504v-15q-135 0 -170 -37t-35 -139v-1245q223 -35 559 -242q37 -24 141 -92t154 -98t136 -58q86 -30 163 -30q160 0 250 99
t90 260t-88 237q135 -43 195 -130t59 -190q-1 -147 -111 -246t-298 -100q-94 0 -190 33t-151 65q-53 32 -181 116q-128 85 -185 120q-422 262 -764 262q-37 0 -98 -4v14z" />
    <glyph glyph-name="M.alt" horiz-adv-x="2598" 
d="M544 -322q-240 0 -381 102q-143 102 -143 269q0 169 155 275t345 82q-137 -31 -218 -121t-81 -237q-1 -148 101 -240t275 -92t315 109q73 57 121 161t57 243l63 1020h-260q-139 -1 -215 -75t-76 -187q0 -154 123 -231q-125 10 -205 79t-80 179t122 182q122 70 325 70h370
l486 -1018l411 1018h353v-15q-135 0 -173 -49t-32 -155l37 -846q4 -107 47 -147t166 -40v-14h-565v14q125 0 163 45t33 142l-47 970l-450 -1114h-15l-508 1039l-51 -869q-14 -261 -171 -405t-397 -144z" />
    <glyph glyph-name="N.alt" horiz-adv-x="2281" 
d="M526 -322q-217 0 -359 102t-142 269q0 168 154 275q155 106 345 82q-137 -31 -218 -121t-81 -237q-1 -148 101 -240t276 -92t326 119q76 60 122 168t46 247v999h-260q-139 -1 -215 -75t-76 -187q0 -154 123 -231q-125 10 -205 79t-80 179t122 182q122 70 324 70h369
l782 -1006v139q0 529 -20 663t-98 169q-45 20 -127 20v15h512v-15q-176 0 -211 -125t-35 -659v-471l-12 -4l-873 1122v-866q0 -262 -164 -416t-426 -154z" />
    <glyph glyph-name="O.alt" horiz-adv-x="1499" 
d="M750 -25q-285 -1 -468 191q-184 192 -184 468t184 466t468 190q200 0 328 -81t128 -209t-99 -187t-249 -59q-57 0 -84 4q137 2 204 76q66 74 66 180t-66 182q-66 74 -211 74q-277 0 -390 -196q-105 -180 -105 -442t106 -441q54 -91 149 -143t223 -52t222 52
q95 52 149 143q106 179 106 442q0 88 -13 172q68 80 68 190q0 3 -1 13t-1 14q121 -168 121 -389q0 -274 -183 -466t-468 -192z" />
    <glyph glyph-name="P.alt" horiz-adv-x="1536" 
d="M426 0v14q135 0 170 37t35 139v1059h-137q-139 -1 -215 -75t-76 -187q0 -154 123 -231q-125 10 -205 79t-80 179t122 182q122 70 324 70h484q510 0 510 -354t-510 -355h-64v16h58q170 1 261 93t91 246t-91 245q-91 92 -261 92h-179v-1059q0 -102 35 -139t170 -37v-14
h-565z" />
    <glyph glyph-name="Q.alt" horiz-adv-x="1480" 
d="M1660 -731q-85 1 -161 25q-127 41 -284 178q-48 41 -135 121q-259 238 -378 285q-82 32 -143 32t-125 -35t-82 -35q-35 0 -35 31q-1 23 25 29t68 10q88 9 219 63q582 238 581 746q0 210 -104 373q-54 82 -150 130t-210 48q-297 0 -430 -244q-68 -129 -68 -281
q0 -282 151 -401t326 -119q68 0 127 19q-61 -59 -227 -60q-213 0 -378 146t-165 388q0 244 183 408t472 164t468 -164t179 -426t-194 -452t-612 -314q70 12 129 13q123 1 239 -63t273 -208q31 -29 95 -88t130 -119q155 -142 293 -143q137 -2 272 152l8 -6q-43 -54 -80 -92
t-115 -74t-162 -37z" />
    <glyph glyph-name="R.alt" horiz-adv-x="1679" 
d="M963 631q188 0 289 84q102 84 102 230t-100 225t-291 79h-177v-618h177zM1038 618h19q131 0 176 -23t65 -37t56 -65q36 -52 77 -131q42 -80 91 -178t104 -204t93 -151q110 -135 162 -166q93 -54 169 -54t150 24l2 -8q-117 -55 -252 -55t-266 109q-130 110 -277 393
q-20 39 -105 219t-112 222q-66 103 -223 101h-181v-424q0 -102 35 -139t170 -37v-14h-565v14q135 0 170 37t35 139v1059h-137q-139 -1 -215 -75t-76 -187q0 -154 123 -231q-125 10 -205 79t-80 179t122 182q122 70 324 70h482q258 0 403 -81t146 -243q0 -298 -480 -319v-5z
" />
    <glyph glyph-name="S.alt" horiz-adv-x="1122" 
d="M1012 334q0 -156 -117 -258t-331 -101t-345 93t-131 196q0 51 33 86t76 35t75 -34t31 -77q0 -44 -27 -76t-65 -38q33 -68 115 -119t230 -51t240 79q91 79 91 197q0 144 -147 223q-65 35 -217 92t-223 102q-153 95 -153 252q0 159 109 257t303 98t311 -81t117 -189
q0 -55 -32 -87q-31 -32 -75 -32t-76 33t-32 77q0 45 25 75t63 38q-84 152 -282 152q-140 0 -224 -75t-84 -178t77 -170t185 -107t218 -82t186 -125q76 -82 76 -205z" />
    <glyph glyph-name="T.alt" horiz-adv-x="1632" 
d="M541 0v14q135 0 170 37t34 139v1047q-201 25 -258 25q-159 0 -227 -70t-67 -172q0 -147 139 -225q-133 16 -215 79t-82 176q0 114 117 172t267 58t447 -43t387 -43q166 0 234 71t67 167q0 141 -139 231q133 -15 215 -79t82 -176t-114 -172t-267 -60t-430 38v-1024
q0 -102 35 -139t170 -37v-14h-565z" />
    <glyph glyph-name="U.alt" horiz-adv-x="1789" 
d="M627 418v831h-138q-139 -1 -215 -75t-75 -187q0 -154 123 -231q-125 10 -205 79t-80 179t122 182q122 70 324 70h504v-15q-135 0 -170 -37t-35 -139v-657q0 -418 342 -418q182 0 284 112q101 112 101 300v37q-1 549 -35 675t-208 127v15h506v-15q-174 0 -208 -122
t-34 -631v-86q0 -209 -117 -323t-311 -114t-327 92q-69 48 -108 138q-40 90 -40 213z" />
    <glyph glyph-name="V.alt" horiz-adv-x="1320" 
d="M-27 1266h568v-15q-127 0 -159 -56t21 -191l342 -867q389 621 390 989q1 197 -103 277t-305 24q106 121 266 121q104 0 182 -66q156 -136 2 -567q-87 -233 -276 -554q-59 -99 -139 -222t-94 -145h-15l-399 985q-56 139 -114 206t-167 66v15z" />
    <glyph glyph-name="W.alt" horiz-adv-x="1914" 
d="M-31 1266h568v-15q-127 0 -159 -56t21 -191l320 -807l266 692l-31 90q-92 272 -276 272v15h561v-15q-125 0 -156 -55t19 -192l297 -861q326 580 325 969q0 211 -109 291q-110 80 -319 24q106 121 269 121q109 0 193 -68t83 -218q0 -150 -76 -386t-315 -664
q-74 -132 -131 -218h-14l-308 860l-335 -860h-13l-399 985q-56 139 -114 206t-167 66v15z" />
    <glyph glyph-name="X.alt" horiz-adv-x="2131" 
d="M1397 1251q-138 0 -134 -80q2 -69 74 -186l181 -289l45 68q106 160 150 243t44 138q0 106 -149 106v15h563v-15q-170 0 -299 -122t-297 -377l-47 -72l215 -338q98 -156 186 -242t197 -86v-14h-565v14q73 0 107 22q76 49 -46 240l-190 297l-205 -311q-83 -125 -145 -203
q-161 -205 -333 -264q-102 -35 -227 -35q-213 0 -350 100t-137 270q0 169 154 276q155 106 346 81q-135 -29 -218 -118q-81 -90 -81 -238t95 -241t264 -93t312 115t307 364l205 314l-200 315q-121 188 -183 248q-98 98 -207 98v15h568v-15z" />
    <glyph glyph-name="Y.alt" horiz-adv-x="1198" 
d="M387 0v14q68 0 134 25q22 8 36 32q13 25 21 35q14 19 14 93v327l-262 445q-51 86 -89 137t-103 97t-136 46v15h573v-15q-125 0 -149 -58t49 -181l262 -445q162 197 246 341t84 289t-104 217t-304 13q47 53 121 87t164 34t165 -59t75 -211t-97 -297q-97 -146 -204 -267
q-107 -120 -135 -155v-360q0 -72 10 -88q10 -17 24 -41t36 -31q65 -23 134 -25v-14h-565z" />
    <glyph glyph-name="Z.alt" horiz-adv-x="1093" 
d="M399 1247q-131 0 -203 -94t-118 -266h-12l24 379h950l4 -4l-763 -1414q309 -20 694 -260q37 -24 140 -92t155 -98t136 -58q85 -30 163 -30q160 0 250 99t90 260t-88 237q135 -43 194 -130t60 -190q0 -147 -111 -246t-299 -100q-94 0 -190 33q-97 33 -151 65t-181 116
q-127 85 -185 120q-422 262 -763 262q-38 0 -99 -4l-2 4l760 1411h-455z" />
    <glyph glyph-name="d.alt" horiz-adv-x="1073" 
d="M1395 1350q1 100 -63 153t-186 53t-194 -90t-71 -262v-166q268 12 391 96t123 216zM516 20q135 0 223 132v473q0 80 -60 140t-153 60q-124 1 -202 -115t-78 -292q0 -226 114 -336q64 -62 156 -62zM462 -23q-165 0 -268 125q-104 125 -104 311q0 185 120 307t287 122
t242 -101v279q-291 6 -535 89t-386 218q-141 135 -142 289q0 121 88 219t252 133q-88 -78 -130 -159t-42 -199t58 -220t146 -164q243 -170 691 -188v78q0 211 112 336t296 125q133 1 201 -63t67 -166q0 -138 -132 -226t-402 -100v-897q-1 -72 35 -91t128 -20v-14h-305v125
q-112 -148 -277 -148z" />
    <glyph glyph-name="d.alt1" horiz-adv-x="1073" 
d="M1056 1210q91 0 149 48q59 48 59 119t-47 116t-130 45q-200 0 -206 -305q84 -23 175 -23zM516 20q135 0 223 132v473q0 80 -60 140t-153 60q-124 1 -202 -115t-78 -292q0 -226 114 -336q64 -62 156 -62zM462 -23q-165 0 -268 125q-104 125 -104 311q0 185 120 307
t287 122t242 -101v375q0 74 11 141q-185 73 -663 337q-151 83 -335 149t-330 65q-198 0 -308 -103t-109 -247q0 -104 58 -195t155 -145q-180 12 -280 112t-101 250q0 150 134 256t372 107q178 1 384 -67q207 -68 361 -153t352 -193t314 -154q29 141 112 211q84 69 194 69
t168 -48q56 -48 56 -131t-64 -133t-160 -50q-94 0 -179 23v-1092q-1 -72 35 -91t128 -20v-14h-305v125q-112 -148 -277 -148z" />
    <glyph glyph-name="h.alt" horiz-adv-x="1075" 
d="M498 1063q164 0 263 69t99 175q0 105 -74 167t-186 62q-266 0 -266 -393v-64q86 -16 164 -16zM29 0v14q92 0 128 20t36 91v975q-265 90 -639 349q-147 101 -298 197q-337 216 -585 218q-166 0 -262 -92t-97 -246q0 -207 193 -346q-170 35 -265 132q-95 98 -95 238
q-1 140 123 248t333 107q284 0 640 -225q159 -99 311 -202q400 -272 643 -360q12 213 108 326q97 112 261 112t240 -70t77 -182t-101 -185t-276 -72q-82 0 -170 16v-406q178 184 330 185q98 0 164 -65t65 -195v-457q0 -72 36 -91t128 -20v-14h-469v14q92 0 128 20t36 91v457
q0 195 -162 194q-119 0 -256 -141v-510q0 -72 36 -91t128 -20v-14h-469z" />
    <glyph glyph-name="h.alt1" horiz-adv-x="1032" 
d="M893 -229q0 -185 34 -268q34 -82 86 -114t134 -32q123 0 198 70q75 71 75 177t-97 166q-96 60 -256 60q-82 0 -174 -16v-43zM29 0v14q92 0 128 20t36 91v1081q0 72 -36 91t-128 20v12l305 41v-713q178 184 330 185q98 0 164 -65t65 -195v-750q88 16 172 16q170 0 272 -63
q103 -63 103 -177t-79 -194q-79 -78 -252 -78t-262 119t-95 320q-254 -88 -659 -360q-155 -103 -317 -202q-366 -223 -667 -225q-223 0 -345 112t-122 251t83 236t237 126q-152 -123 -152 -303t106 -269t270 -89q294 0 633 212q151 93 297 192q386 261 636 341v785
q0 195 -162 194q-119 0 -256 -141v-510q0 -72 36 -91t128 -20v-14h-469z" />
    <glyph glyph-name="l.alt" horiz-adv-x="534" 
d="M502 1063q164 0 263 69t99 175t-73 168q-74 61 -187 61q-266 0 -266 -393v-64q86 -16 164 -16zM33 0v14q92 0 128 20t36 91v975q-265 90 -639 349q-147 101 -298 197q-337 216 -585 218q-166 0 -262 -92t-96 -246q0 -207 192 -346q-170 35 -265 132q-95 98 -95 238
t124 248t332 107q284 0 640 -225q159 -99 311 -202q404 -274 643 -360q12 213 108 326q97 112 261 112t240 -70t77 -182t-101 -185t-276 -72q-82 0 -170 16v-938q0 -72 36 -91t128 -20v-14h-469z" />
    <glyph glyph-name="l.alt1" horiz-adv-x="534" 
d="M197 1163q0 218 -59 295q-59 78 -178 78q-120 0 -197 -65t-77 -173t92 -172q91 -64 249 -63q84 0 170 18v82zM33 0v14q92 0 128 20t36 91v938q-92 -16 -172 -16q-168 0 -264 68q-95 69 -95 183t80 186t247 72t251 -108t92 -328q237 83 644 360q152 103 310 201
q357 222 639 224q209 0 333 -108t124 -248t-95 -237t-266 -132q193 131 193 354q0 146 -90 238t-242 92q-273 0 -610 -217q-150 -97 -298 -197q-391 -265 -640 -348v-977q0 -72 36 -91t128 -20v-14h-469z" />
    <glyph glyph-name="y.alt" horiz-adv-x="980" 
d="M30 -547q106 -1 178 59t136 185q-186 117 -313 117q-92 0 -162 -48t-70 -132t62 -132q63 -49 169 -49zM27 -563q-115 0 -182 54t-67 146q0 93 79 143q78 50 174 50q133 0 321 -117q14 29 125 269l-258 616q-51 119 -101 163t-145 44v14h527v-14q-127 0 -158 -47t12 -133
l193 -480l78 195q125 311 125 377q0 88 -144 88v14h398v-14q-135 0 -205 -109q-14 -25 -158 -364l-180 -426q-47 -104 -96 -201q81 -51 239 -169t266 -194t262 -140t274 -64q228 1 311 136q67 105 69 230q0 207 -193 303q165 -18 263 -105t98 -221t-119 -253t-354 -119
q-158 0 -328 67q-170 66 -282 142q-111 76 -277 200t-238 171q-68 -129 -141 -191t-188 -61z" />
    <glyph glyph-name="A.sc" horiz-adv-x="1218" 
d="M324 385h442l-223 516zM-31 0v14q109 0 170 72t133 240l326 759h18l351 -798q68 -154 126 -213t146 -60v-14h-528v14q100 0 132 60t-16 168l-53 125h-459l-20 -48q-145 -305 100 -305v-14h-426z" />
    <glyph glyph-name="B.sc" horiz-adv-x="1171" 
d="M408 563h180q147 0 216 67q68 68 68 176t-68 180t-212 73h-184v-496zM408 16h215q137 0 212 78t74 195q0 117 -79 187t-230 71h-192v-531zM72 0v14q108 0 146 40t38 136v695q0 96 -38 136t-146 40v14h524q434 0 434 -260q0 -233 -375 -256v-4q412 -20 412 -276
q0 -279 -436 -279h-559z" />
    <glyph glyph-name="C.sc" horiz-adv-x="1241" 
d="M727 1081q-213 1 -336 -155t-123 -393t120 -389t325 -150q158 0 261 91t177 253l10 -2l-61 -305q-172 -51 -381 -51q-268 0 -444 145q-175 145 -175 405t184 413t449 153l250 -17q39 0 123 15l33 -338l-13 -2q-70 168 -160 248t-239 79z" />
    <glyph glyph-name="D.sc" horiz-adv-x="1355" 
d="M408 16h217q233 0 348 144t115 378t-115 377t-348 144h-217v-1043zM72 0v14q108 0 146 40t38 136v695q0 96 -38 136t-146 40v14h555q289 0 459 -145t169 -392q0 -246 -169 -392t-459 -146h-555z" />
    <glyph glyph-name="E.sc" horiz-adv-x="1159" 
d="M72 0v14q108 0 146 40t38 136v695q0 96 -38 136t-146 40v14h932l22 -315l-14 -2q-37 166 -145 234t-355 67h-104v-514h41q190 0 261 46t95 177h12v-463h-12q-25 131 -95 177q-71 46 -261 46h-41v-512h129q170 0 275 42t152 108q46 66 72 174l15 -2l-35 -338h-944z" />
    <glyph glyph-name="F.sc" horiz-adv-x="1097" 
d="M72 0v14q108 0 146 40t38 136v695q0 96 -38 136t-146 40v14h932l22 -362l-14 -2q-27 119 -67 189t-138 114q-98 45 -260 45h-139v-522h41q186 0 259 54t97 189h12v-504h-12q-25 135 -97 190q-73 54 -259 54h-41v-330q0 -96 38 -136t146 -40v-14h-520z" />
    <glyph glyph-name="G.sc" horiz-adv-x="1413" 
d="M739 -20q-293 0 -466 146t-173 404t180 412t461 154q55 0 145 -8t134 -10q43 -1 129 14l33 -334l-11 -2q-88 176 -182 251t-241 74q-236 -1 -358 -157t-122 -390t114 -388q114 -153 355 -152q168 0 316 76v237q0 96 -42 138t-153 42v15h518v-15q-110 -1 -142 -37
t-32 -135v-274q-240 -61 -463 -61z" />
    <glyph glyph-name="H.sc" horiz-adv-x="1439" 
d="M72 0v14q108 0 146 40t38 136v695q0 96 -38 136t-146 40v14h520v-14q-109 0 -147 -40t-37 -136v-330h624v330q0 96 -38 136t-146 40v14h520v-14q-108 0 -146 -40t-38 -136v-695q0 -96 38 -136t146 -40v-14h-520v14q108 0 146 40t38 136v347h-624v-347q0 -96 38 -136
t146 -40v-14h-520z" />
    <glyph glyph-name="I.sc" horiz-adv-x="663" 
d="M72 0v14q108 0 146 40t38 136v695q0 96 -38 136t-146 40v14h520v-14q-109 0 -147 -40t-37 -136v-695q0 -96 38 -136t146 -40v-14h-520z" />
    <glyph glyph-name="J.sc" horiz-adv-x="634" 
d="M242 23v862q0 96 -38 136t-147 40v14h521v-14q-109 0 -147 -40t-38 -136v-834q0 -238 -338 -342l-6 10q109 61 151 133t42 171z" />
    <glyph glyph-name="K.sc" horiz-adv-x="1273" 
d="M72 0v14q108 0 146 40t38 136v695q0 96 -38 136t-146 40v14h520v-14q-109 0 -147 -40t-37 -136v-453l307 299q109 107 149 159t39 93q0 78 -145 78v14h497v-14q-133 0 -247 -86t-283 -256l-61 -62l380 -495q74 -96 119 -122t140 -26v-14h-326l-424 549q-86 -82 -145 -141
v-218q0 -96 38 -136t146 -40v-14h-520z" />
    <glyph glyph-name="L.sc" horiz-adv-x="1103" 
d="M72 0v14q108 0 146 40t38 136v695q0 96 -38 136t-146 40v14h520v-14q-109 0 -147 -40t-37 -136v-869h104q271 0 374 103q52 53 79 111t47 149l14 -2l-22 -377h-932z" />
    <glyph glyph-name="M.sc" horiz-adv-x="1650" 
d="M33 0v14q114 0 171 70q30 37 54 162t41 456l2 39q10 195 -30 257t-169 63v14h318l450 -848l367 848h315v-14q-116 0 -154 -41t-30 -176l41 -604q10 -146 46 -186t138 -40v-14h-520v14q127 0 161 39t23 178l-47 732l-399 -920h-14l-465 875l-15 -216q-28 -454 1 -566
q11 -42 37 -73t60 -39t87 -10v-14h-469z" />
    <glyph glyph-name="N.sc" horiz-adv-x="1347" 
d="M66 0v14q147 0 176 100t28 525v102q0 186 -34 253q-35 67 -170 67v14h301l708 -831v192q0 424 -28 525q-29 100 -177 100v14h430v-14q-147 0 -176 -100t-28 -525v-440l-13 -2l-792 932v-287q1 -424 29 -524t176 -101v-14h-430z" />
    <glyph glyph-name="O.sc" horiz-adv-x="1368" 
d="M684 -2q147 0 244 79q172 143 172 443q0 237 -91 392q-46 77 -129 121t-196 44t-196 -44q-220 -117 -220 -514q0 -304 171 -442q98 -79 245 -79zM684 -20q-256 0 -421 162t-165 396t165 396t421 162t421 -162t165 -395t-165 -396t-421 -163z" />
    <glyph glyph-name="P.sc" horiz-adv-x="1097" 
d="M72 0v14q108 0 146 40t38 136v695q0 96 -38 136t-146 40v14h503q238 0 350 -81t111 -222q0 -303 -461 -303h-61v16h51q152 0 232 80t80 207t-80 207t-232 80h-157v-869q0 -96 38 -136t146 -40v-14h-520z" />
    <glyph glyph-name="Q.sc" horiz-adv-x="1368" 
d="M684 -2q147 0 244 79q172 143 172 443q0 237 -91 392q-46 77 -129 121t-196 44t-196 -44q-220 -117 -220 -514q0 -304 171 -442q98 -79 245 -79zM98 542q0 230 165 392t421 162t421 -162t165 -391t-154 -389t-395 -172q83 -8 237 -100t229 -93q75 0 121 35t99 119l10 -6
q-37 -66 -67 -110t-94 -89t-144 -45t-246 98t-241 98q-75 -1 -121 -37t-101 -116l-10 6q125 217 264 238q-247 8 -403 170t-156 392z" />
    <glyph glyph-name="R.sc" horiz-adv-x="1222" 
d="M408 524h174q162 2 236 74t75 188q0 116 -76 194q-76 77 -235 79h-174v-535zM72 0v14q108 0 146 40t38 136v695q0 96 -38 136t-146 40v14h520q223 0 342 -78t119 -211q0 -242 -404 -268v-6q145 -4 208 -43q34 -20 61 -46t42 -83q15 -56 25 -102t27 -104q18 -56 52 -88
t116 -32v-14h-287q-32 86 -54 202t-32 150t-36 78q-26 43 -72 60t-117 18h-174v-318q0 -96 38 -136t146 -40v-14h-520z" />
    <glyph glyph-name="S.sc" horiz-adv-x="1034" 
d="M504 -20q-147 0 -361 47l-22 323l12 2q60 -181 110 -241q49 -60 89 -78q88 -39 182 -39q143 0 218 64t75 159t-69 153t-168 91t-197 69t-167 104t-69 184t96 197t273 81q27 0 172 -12t174 3l27 -325l-13 -2q-25 70 -45 112q-67 139 -166 182q-63 28 -165 28t-171 -58
q-67 -57 -67 -145q0 -89 70 -145t168 -89t196 -69t168 -109q70 -75 70 -197t-104 -206t-316 -84z" />
    <glyph glyph-name="T.sc" horiz-adv-x="1171" 
d="M326 0v14q108 0 146 40t38 136v869h-33q-178 0 -263 -84t-124 -258l-14 2l22 356h975l23 -356l-15 -2q-39 174 -124 258t-263 84h-32v-869q0 -96 38 -136t146 -40v-14h-520z" />
    <glyph glyph-name="U.sc" horiz-adv-x="1296" 
d="M661 -20q-184 0 -306 90t-122 288v527q0 96 -37 136q-38 40 -147 40v14h520v-14q-109 0 -147 -40t-37 -136v-533q0 -350 309 -350q158 0 249 91t91 255v88q0 424 -28 525q-29 100 -177 100v14h431v-14q-146 0 -176 -100t-29 -525v-84q0 -182 -105 -277t-289 -95z" />
    <glyph glyph-name="V.sc" horiz-adv-x="1189" 
d="M-10 1061v14h506v-14q-203 0 -117 -203l285 -676l75 183q137 331 175 439t38 150q0 106 -153 107v14h424v-14q-137 0 -203 -103q-37 -59 -266 -606l-152 -362h-12l-354 833q-60 139 -108 189t-138 49z" />
    <glyph glyph-name="W.sc" horiz-adv-x="1777" 
d="M-14 1061v14h503v-14q-203 0 -116 -203l284 -674l246 598l-12 41q-51 137 -101 187t-137 51v14h502v-14q-100 0 -132 -47t5 -156l244 -674l71 187q123 319 157 423t34 154q0 113 -154 113v14h424v-14q-141 0 -202 -103q-16 -25 -244 -598l-148 -370h-12l-283 764
l-319 -764h-12l-355 833q-57 137 -108 187t-135 51z" />
    <glyph glyph-name="X.sc" horiz-adv-x="1173" 
d="M-33 0v14q139 0 248 107q68 68 266 332l51 67l-178 268q-59 90 -85 125q-83 112 -148 135q-39 13 -92 13v14h542v-14q-233 0 -88 -219l154 -234l53 72q104 139 137 193t33 96q0 92 -133 92v14h455v-14q-127 0 -246 -113q-70 -66 -234 -282l-55 -74l195 -289
q150 -235 237 -271q41 -17 92 -18v-14h-524v14q221 0 66 236l-170 256l-51 -68q-184 -244 -185 -327q0 -41 34 -69t110 -28v-14h-484z" />
    <glyph glyph-name="Y.sc" horiz-adv-x="1150" 
d="M322 0v14q108 0 146 40t38 136v259l-221 366q-59 98 -90 139t-82 74t-117 33v14h516v-14q-80 0 -112 -32t-24 -72t38 -87l227 -374h6l60 104q168 297 167 375q0 86 -131 86v14h426v-14q-121 0 -205 -93t-245 -378l-62 -109v-291q0 -96 38 -136t147 -40v-14h-520z" />
    <glyph glyph-name="Z.sc" horiz-adv-x="1103" 
d="M502 1059q-144 0 -244 -86t-137 -234h-12l22 336h862l4 -4l-729 -1055h350q150 0 239 87t144 249h13l-37 -352h-897l-2 4l727 1055h-303z" />
    <glyph glyph-name="exclam.sc" horiz-adv-x="438" 
d="M219 -14q-39 0 -67 28t-27 66q0 38 27 64q26 26 66 26t67 -26t27 -64t-27 -67q-27 -27 -66 -27zM129 994q0 36 25 69q26 33 66 33t65 -33t25 -69t-39 -241q-38 -206 -44 -444h-16q-6 238 -44 444q-38 205 -38 241z" />
    <glyph glyph-name="exclamdown.sc" horiz-adv-x="438" 
d="M219 1096q39 0 66 -28t27 -67t-28 -65q-26 -26 -66 -25q-40 0 -66 26q-26 27 -27 65t27 66t67 28zM219 -14q-41 0 -65 32t-25 68q0 36 38 242t44 444h16q6 -238 44 -444t38 -241q0 -36 -24 -69q-25 -32 -66 -32z" />
    <glyph glyph-name="question.sc" horiz-adv-x="845" 
d="M395 -14q-39 0 -67 28t-27 66q0 38 27 64q26 26 66 26t67 -26t27 -64t-27 -67q-27 -27 -66 -27zM621 797q-1 125 -57 205t-187 81q-131 0 -201 -118q37 -6 61 -35q23 -29 23 -68q0 -38 -29 -68t-69 -30t-68 29q-29 29 -28 77q0 88 103 156t245 68t251 -81
q108 -81 107 -214q0 -227 -364 -312l-7 -178h-14l-6 187q240 59 240 301z" />
    <glyph glyph-name="questiondown.sc" horiz-adv-x="845" 
d="M452 1096q40 0 66 -28t27 -67q0 -39 -27 -65q-26 -26 -66 -25q-40 0 -67 26q-27 27 -27 65t27 66t67 28zM431 -12q-142 0 -250 81t-107 214q0 227 364 311l6 178h15l6 -186q-240 -59 -240 -301q1 -125 57 -206t187 -81t201 119q-37 6 -61 35q-23 30 -23 68t28 68
q29 30 69 30t69 -30q29 -28 28 -77q0 -88 -103 -156q-104 -67 -246 -67z" />
    <glyph glyph-name="bracketleft.sc" horiz-adv-x="573" 
d="M152 -293v1497h354v-14h-164q-82 0 -82 -76v-1319q0 -74 82 -74h164v-14h-354z" />
    <glyph glyph-name="bracketright.sc" horiz-adv-x="573" 
d="M68 -293v14h163q82 0 82 74v1319q0 76 -82 76h-163v14h354v-1497h-354z" />
    <glyph glyph-name="braceleft.sc" horiz-adv-x="643" 
d="M565 -303q-172 0 -233 49t-62 137q0 41 18 137q17 96 17 160q0 145 -66 207q-67 61 -206 62v14q139 0 206 62t66 208q0 63 -17 159t-18 136q0 88 62 137t233 49v-14q-133 -2 -181 -36t-48 -106t50 -211q50 -138 50 -196q0 -98 -83 -137t-242 -55v-6q211 -27 268 -70
t57 -110q0 -68 -50 -207t-50 -212t48 -107t181 -36v-14z" />
    <glyph glyph-name="braceright.sc" horiz-adv-x="643" 
d="M78 -303v14q133 2 181 36t48 107t-50 212t-50 189t18 81q34 58 103 78t204 39v6q-160 16 -242 55t-83 137q0 57 50 195t50 212q0 72 -48 106t-181 36v14q172 0 233 -49t62 -137q1 -41 -17 -136t-18 -159q0 -145 66 -208q67 -62 206 -62v-14q-139 1 -206 -61t-66 -208
q0 -64 17 -160t18 -137q1 -88 -61 -137t-234 -49z" />
    <glyph glyph-name="parenleft.sc" horiz-adv-x="618" 
d="M100 442q0 140 34 254t79 189t117 149t120 111t115 84l6 -10q-332 -246 -331 -762q0 -295 99 -481t232 -283l-6 -10q-88 59 -148 111q-59 52 -143 148t-129 228t-45 272z" />
    <glyph glyph-name="parenright.sc" horiz-adv-x="618" 
d="M379 457q0 516 -332 762l6 10q68 -47 116 -84t120 -111t117 -150q44 -76 78 -189q34 -114 34 -254t-45 -271q-67 -196 -271 -376q-61 -52 -149 -111l-6 10q133 98 233 283q99 185 99 481z" />
    <glyph glyph-name="dollar.sc" horiz-adv-x="956" 
d="M238 870q0 -88 59 -138t172 -93v444q-109 -5 -170 -65t-61 -148zM745 228q0 95 -65 149q-66 53 -193 100v-485q121 4 189 72t69 164zM469 -182v162q-164 4 -269 78t-106 167q0 47 29 78t71 31t72 -30t29 -69q0 -39 -25 -67t-59 -37q23 -55 87 -97t171 -42v493
q-182 72 -240 115q-102 78 -102 206t93 206t249 82v116h18v-116q150 0 242 -69t92 -159q-1 -51 -29 -80q-28 -28 -70 -28t-72 30t-30 69q0 40 25 69t62 32q-57 125 -220 125v-450q8 -3 49 -19t76 -30t89 -46t83 -63q76 -81 75 -199t-96 -207t-276 -89v-162h-18z" />
    <glyph glyph-name="Euro.sc" horiz-adv-x="1122" 
d="M647 -20q-174 0 -300 116t-152 328h-115v14h113q-9 132 4 213h-117v17h119q37 198 163 312t296 114q168 0 258 -83t90 -180q0 -53 -29 -81t-71 -27q-42 0 -70 30q-28 31 -27 71q0 40 29 69t67 31q-51 160 -215 159q-143 -1 -230 -111t-110 -304h412v-17h-414
q-6 -57 -6 -104t4 -109h416v-14h-414q18 -192 99 -308t229 -116q213 0 328 252l12 -6q-127 -266 -369 -266z" />
    <glyph glyph-name="yen.sc" horiz-adv-x="1236" 
d="M358 0v12q125 0 153 63q15 35 18 61t3 79v127h-294v16h294v97l-61 110h-233v17h223l-139 252q-98 174 -178 212q-38 17 -83 17v12h482v-12q-193 0 -86 -203l192 -362h4l70 118q139 238 154 336q6 51 -24 81t-118 30v12h443v-12q-141 0 -242 -127q-18 -25 -195 -320
l-20 -34h248v-17h-260l-47 -84v-123h307v-16h-307v-127q0 -135 40 -168t134 -35v-12h-478z" />
    <glyph glyph-name="sterling.sc" horiz-adv-x="1026" 
d="M117 98q1 -40 27 -68t84 -28t95 47q36 47 35 135q-41 14 -98 15q-143 0 -143 -101zM225 -12q-61 0 -93 32t-32 80q0 49 44 81t104 32t108 -12q-8 82 -32 143q-25 62 -53 128t-35 89h-123v14h116q-49 127 -49 218q0 135 102 218t259 83q156 0 250 -69t94 -159
q0 -49 -30 -79q-30 -29 -69 -29q-40 0 -68 30t-28 70q0 41 27 71t65 32q-59 123 -209 122q-123 1 -182 -79t-59 -180t49 -249h362v-14h-356q57 -160 57 -243t-14 -134q227 -61 306 -61t127 54t52 145h11q-8 -338 -205 -338q-59 0 -107 26t-103 74q-54 47 -89 68
q-56 -164 -197 -164z" />
    <glyph glyph-name="ampersand.sc" horiz-adv-x="1277" 
d="M725 880q0 202 -170 203q-86 0 -138 -55t-52 -145q0 -123 122 -238l33 -31q96 46 150 108t55 158zM264 283q0 -103 48 -182q60 -99 228 -99t285 127l-428 412q-133 -82 -133 -258zM487 -20q-164 0 -269 76t-105 196q0 121 70 183q71 62 202 118l-27 25q-129 119 -129 245
q-1 127 93 199t233 72t219 -62t80 -156q0 -95 -59 -142q-59 -48 -97 -65q-39 -17 -58 -25t-58 -20q-39 -13 -54 -20l377 -358q47 100 48 188t-33 114q-34 24 -129 23v13h370v-13q-79 0 -123 -22t-67 -135q-23 -112 -53 -178l118 -115q68 -65 107 -87t96 -22v-12h-276
l-125 119q-134 -139 -351 -139z" />
    <glyph glyph-name="Agrave.sc" horiz-adv-x="1218" 
d="M768 1167q-53 35 -169 105t-155 102q-61 57 -12 111q20 23 51 23t57 -21q26 -23 57 -67q32 -44 84 -120t91 -129zM324 385h442l-223 516zM-31 0v14q109 0 170 72t133 240l326 759h18l351 -798q68 -154 126 -213t146 -60v-14h-528v14q100 0 132 60t-16 168l-53 125h-459
l-20 -48q-145 -305 100 -305v-14h-426z" />
    <glyph glyph-name="Aacute.sc" horiz-adv-x="1218" 
d="M453 1167l-4 4q39 53 118 168t109 143q32 28 62 26t50 -23q49 -53 -12 -111q-35 -31 -152 -101q-118 -71 -171 -106zM324 385h442l-223 516zM-31 0v14q109 0 170 72t133 240l326 759h18l351 -798q68 -154 126 -213t146 -60v-14h-528v14q100 0 132 60t-16 168l-53 125
h-459l-20 -48q-145 -305 100 -305v-14h-426z" />
    <glyph glyph-name="Acircumflex.sc" horiz-adv-x="1218" 
d="M608 1473q34 0 60 -31l225 -271l-4 -4l-281 158l-280 -158l-4 4l225 271q25 31 59 31zM324 385h442l-223 516zM-31 0v14q109 0 170 72t133 240l326 759h18l351 -798q68 -154 126 -213t146 -60v-14h-528v14q100 0 132 60t-16 168l-53 125h-459l-20 -48q-145 -305 100 -305
v-14h-426z" />
    <glyph glyph-name="Adieresis.sc" horiz-adv-x="1218" 
d="M776 1210q-43 0 -73 31t-29 74q0 43 29 74q30 31 73 31t74 -32q31 -30 31 -73t-31 -74t-74 -31zM441 1210q-43 0 -73 31t-30 74t30 74t72 31t74 -30q31 -30 31 -74t-31 -75t-73 -31zM324 385h442l-223 516zM-31 0v14q109 0 170 72t133 240l326 759h18l351 -798
q68 -154 126 -213t146 -60v-14h-528v14q100 0 132 60t-16 168l-53 125h-459l-20 -48q-145 -305 100 -305v-14h-426z" />
    <glyph glyph-name="Atilde.sc" horiz-adv-x="1218" 
d="M465 1462q53 0 163 -62t156 -62t75 25q29 26 36 105h10q-23 -254 -153 -254q-53 0 -163 62t-156 63q-47 0 -69 -20t-30 -45t-12 -66h-11q23 254 154 254zM324 385h442l-223 516zM-31 0v14q109 0 170 72t133 240l326 759h18l351 -798q68 -154 126 -213t146 -60v-14h-528
v14q100 0 132 60t-16 168l-53 125h-459l-20 -48q-145 -305 100 -305v-14h-426z" />
    <glyph glyph-name="Aring.sc" horiz-adv-x="1218" 
d="M510 1342q0 -178 95 -177q95 0 95 177t-94 178q-96 0 -96 -178zM606 1155q-82 0 -140 52t-58 134q0 81 58 135t140 54t140 -53t58 -135t-58 -135q-58 -52 -140 -52zM324 385h442l-223 516zM-31 0v14q109 0 170 72t133 240l326 759h18l351 -798q68 -154 126 -213t146 -60
v-14h-528v14q100 0 132 60t-16 168l-53 125h-459l-20 -48q-145 -305 100 -305v-14h-426z" />
    <glyph glyph-name="AE.sc" horiz-adv-x="1826" 
d="M924 395v490q0 106 -47 143l-437 -633h484zM-43 0v14q111 0 206 77t206 235l495 710q-43 25 -125 25v14h932l23 -315l-15 -2q-37 166 -145 234t-354 67h-105v-514h41q190 0 261 46t96 177h12v-463h-12q-25 131 -96 177t-261 46h-41v-512h129q170 0 276 42t151 108
q46 66 73 174l14 -2l-35 -338h-944v14q109 0 147 40t38 136v189h-494l-41 -60q-94 -133 -75 -219t151 -86v-14h-508z" />
    <glyph glyph-name="Ccedilla.sc" horiz-adv-x="1241" 
d="M727 1081q-213 1 -336 -155t-123 -393t120 -389t325 -150q158 0 261 91t177 253l10 -2l-61 -305q-172 -51 -414 -51l-90 -115q38 12 106 12t122 -36q54 -35 54 -109t-68 -113t-174 -39t-196 64l6 10q72 -45 148 -45t119 35t43 89t-31 87t-80 33t-86 -17l-4 4l111 142
q-248 14 -407 157t-159 397t184 407t449 153l250 -17q39 0 123 15l33 -338l-13 -2q-70 168 -160 248t-239 79z" />
    <glyph glyph-name="Egrave.sc" horiz-adv-x="1159" 
d="M760 1167q-53 35 -169 105t-155 102q-61 57 -12 111q20 23 51 23t57 -21q26 -23 57 -67q32 -44 84 -120t91 -129zM72 0v14q108 0 146 40t38 136v695q0 96 -38 136t-146 40v14h932l22 -315l-14 -2q-37 166 -145 234t-355 67h-104v-514h41q190 0 261 46t95 177h12v-463h-12
q-25 131 -95 177q-71 46 -261 46h-41v-512h129q170 0 275 42t152 108q46 66 72 174l15 -2l-35 -338h-944z" />
    <glyph glyph-name="Eacute.sc" horiz-adv-x="1159" 
d="M465 1167l-4 4q39 53 118 168t109 143q31 28 62 26t51 -23q49 -53 -13 -111q-35 -31 -152 -101q-118 -71 -171 -106zM72 0v14q108 0 146 40t38 136v695q0 96 -38 136t-146 40v14h932l22 -315l-14 -2q-37 166 -145 234t-355 67h-104v-514h41q190 0 261 46t95 177h12v-463
h-12q-25 131 -95 177q-71 46 -261 46h-41v-512h129q170 0 275 42t152 108q46 66 72 174l15 -2l-35 -338h-944z" />
    <glyph glyph-name="Ecircumflex.sc" horiz-adv-x="1159" 
d="M596 1473q34 0 59 -31l226 -271l-4 -4l-281 158l-281 -158l-4 4l226 271q25 31 59 31zM72 0v14q108 0 146 40t38 136v695q0 96 -38 136t-146 40v14h932l22 -315l-14 -2q-37 166 -145 234t-355 67h-104v-514h41q190 0 261 46t95 177h12v-463h-12q-25 131 -95 177
q-71 46 -261 46h-41v-512h129q170 0 275 42t152 108q46 66 72 174l15 -2l-35 -338h-944z" />
    <glyph glyph-name="Edieresis.sc" horiz-adv-x="1159" 
d="M776 1210q-43 0 -73 31t-29 74q0 43 29 74q30 31 73 31t74 -32q31 -30 31 -73t-31 -74t-74 -31zM441 1210q-43 0 -73 31t-30 74t30 74t72 31t74 -30q31 -30 31 -74t-31 -75t-73 -31zM72 0v14q108 0 146 40t38 136v695q0 96 -38 136t-146 40v14h932l22 -315l-14 -2
q-37 166 -145 234t-355 67h-104v-514h41q190 0 261 46t95 177h12v-463h-12q-25 131 -95 177q-71 46 -261 46h-41v-512h129q170 0 275 42t152 108q46 66 72 174l15 -2l-35 -338h-944z" />
    <glyph glyph-name="Eth.sc" horiz-adv-x="1355" 
d="M408 16h217q233 0 348 144t115 378t-115 377t-348 144h-217v-508h354v-19h-354v-516zM72 0v14q108 0 146 40t38 136v342h-141v19h141v334q0 96 -38 136t-146 40v14h555q289 0 459 -145t169 -392q0 -246 -169 -392t-459 -146h-555z" />
    <glyph glyph-name="Igrave.sc" horiz-adv-x="663" 
d="M498 1167q-53 35 -169 105t-155 102q-61 57 -12 111q20 23 51 23t56 -21q25 -23 57 -67t85 -120q52 -76 91 -129zM72 0v14q108 0 146 40t38 136v695q0 96 -38 136t-146 40v14h520v-14q-109 0 -147 -40t-37 -136v-695q0 -96 38 -136t146 -40v-14h-520z" />
    <glyph glyph-name="Iacute.sc" horiz-adv-x="663" 
d="M158 1167l-4 4q39 53 118 168t109 143q31 28 61 26t52 -23q49 -53 -13 -111q-35 -31 -152 -101q-118 -71 -171 -106zM72 0v14q108 0 146 40t38 136v695q0 96 -38 136t-146 40v14h520v-14q-109 0 -147 -40t-37 -136v-695q0 -96 38 -136t146 -40v-14h-520z" />
    <glyph glyph-name="Icircumflex.sc" horiz-adv-x="663" 
d="M332 1473q35 0 59 -31l225 -271l-4 -4l-280 158l-281 -158l-4 4l225 271q25 31 60 31zM72 0v14q108 0 146 40t38 136v695q0 96 -38 136t-146 40v14h520v-14q-109 0 -147 -40t-37 -136v-695q0 -96 38 -136t146 -40v-14h-520z" />
    <glyph glyph-name="Idieresis.sc" horiz-adv-x="663" 
d="M500 1210q-43 0 -73 31t-30 74t30 74t73 31q44 0 74 -32q30 -30 30 -73t-30 -74t-74 -31zM165 1210q-42 0 -73 31t-31 74t30 74t73 31t74 -30q30 -30 30 -74t-30 -75t-73 -31zM72 0v14q108 0 146 40t38 136v695q0 96 -38 136t-146 40v14h520v-14q-109 0 -147 -40
t-37 -136v-695q0 -96 38 -136t146 -40v-14h-520z" />
    <glyph glyph-name="Lslash.sc" horiz-adv-x="1105" 
d="M74 0v14q108 0 146 40t38 136v314l-178 -66l-6 17l184 67v363q0 96 -38 136t-146 40v14h520v-14q-109 0 -147 -40t-37 -136v-307l288 106l7 -16l-295 -109v-543h104q271 0 374 103q52 53 79 111t47 149l14 -2l-22 -377h-932z" />
    <glyph glyph-name="Ntilde.sc" horiz-adv-x="1347" 
d="M557 1462q53 0 163 -62t156 -62t75 25q29 26 36 105h10q-23 -254 -153 -254q-53 0 -163 62t-156 63q-47 0 -69 -20t-30 -45t-12 -66h-11q23 254 154 254zM66 0v14q147 0 176 100t28 525v102q0 186 -34 253q-35 67 -170 67v14h301l708 -831v192q0 424 -28 525
q-29 100 -177 100v14h430v-14q-147 0 -176 -100t-28 -525v-440l-13 -2l-792 932v-287q1 -424 29 -524t176 -101v-14h-430z" />
    <glyph glyph-name="Ograve.sc" horiz-adv-x="1368" 
d="M827 1167q-53 35 -171 106t-152 101q-61 57 -12 111q20 23 51 23t56 -21q25 -23 57 -67t84 -120t91 -129zM684 -2q147 0 244 79q172 143 172 443q0 237 -91 392q-46 77 -129 121t-196 44t-196 -44q-220 -117 -220 -514q0 -304 171 -442q98 -79 245 -79zM684 -20
q-256 0 -421 162t-165 396t165 396t421 162t421 -162t165 -395t-165 -396t-421 -163z" />
    <glyph glyph-name="Oacute.sc" horiz-adv-x="1368" 
d="M535 1167l-5 4q39 53 118 168t110 143q32 28 62 26t50 -23q49 -53 -12 -111q-35 -31 -152 -101q-118 -71 -171 -106zM684 -2q147 0 244 79q172 143 172 443q0 237 -91 392q-46 77 -129 121t-196 44t-196 -44q-220 -117 -220 -514q0 -304 171 -442q98 -79 245 -79z
M684 -20q-256 0 -421 162t-165 396t165 396t421 162t421 -162t165 -395t-165 -396t-421 -163z" />
    <glyph glyph-name="Ocircumflex.sc" horiz-adv-x="1368" 
d="M682 1473q34 0 59 -31l226 -271l-4 -4l-281 158l-281 -158l-4 4l226 271q25 31 59 31zM684 -2q147 0 244 79q172 143 172 443q0 237 -91 392q-46 77 -129 121t-196 44t-196 -44q-220 -117 -220 -514q0 -304 171 -442q98 -79 245 -79zM684 -20q-256 0 -421 162t-165 396
t165 396t421 162t421 -162t165 -395t-165 -396t-421 -163z" />
    <glyph glyph-name="Odieresis.sc" horiz-adv-x="1368" 
d="M850 1210q-43 0 -73 31t-29 74q0 43 29 74q30 31 73 31t74 -32q30 -30 30 -73t-30 -74t-74 -31zM515 1210q-42 0 -73 31t-30 74q0 43 29 74q30 31 73 31t74 -30q30 -30 30 -74t-30 -75t-73 -31zM684 -2q147 0 244 79q172 143 172 443q0 237 -91 392q-46 77 -129 121
t-196 44t-196 -44q-220 -117 -220 -514q0 -304 171 -442q98 -79 245 -79zM684 -20q-256 0 -421 162t-165 396t165 396t421 162t421 -162t165 -395t-165 -396t-421 -163z" />
    <glyph glyph-name="Otilde.sc" horiz-adv-x="1368" 
d="M520 1462q53 0 163 -62t156 -62t75 25q29 26 36 105h11q-23 -254 -154 -254q-53 0 -163 62t-156 63q-46 0 -68 -20t-31 -45q-8 -25 -12 -66h-10q23 254 153 254zM684 -2q147 0 244 79q172 143 172 443q0 237 -91 392q-46 77 -129 121t-196 44t-196 -44
q-220 -117 -220 -514q0 -304 171 -442q98 -79 245 -79zM684 -20q-256 0 -421 162t-165 396t165 396t421 162t421 -162t165 -395t-165 -396t-421 -163z" />
    <glyph glyph-name="Oslash.sc" horiz-adv-x="1368" 
d="M684 -2q147 0 244 79q96 79 134 195t38 267q0 219 -82 356l-660 -731q105 -166 326 -166zM268 542q0 -222 82 -364l660 731q-107 168 -329 168t-323 -165q-90 -148 -90 -370zM1270 551q0 -245 -165 -408t-403 -163t-397 124l-129 -141l-12 10l129 142q-195 165 -195 411
t165 408t405 162t395 -127l129 143l12 -10l-129 -144q195 -162 195 -407z" />
    <glyph glyph-name="OE.sc" horiz-adv-x="1873" 
d="M684 -2q147 0 217 45t70 168v653q0 123 -70 168t-200 45t-213 -44q-220 -117 -220 -514q0 -304 171 -442q98 -79 245 -79zM684 -20q-256 0 -421 162t-165 396t165 396t421 162q58 0 164 -10t176 -11h694l23 -315l-15 -2q-36 166 -144 234t-355 67h-105v-514h41
q190 0 261 46t96 177h12v-463h-12q-25 131 -96 177t-261 46h-41v-512h129q169 0 275 42t152 108t73 174l14 -2l-34 -338h-711q-70 0 -174 -10t-162 -10z" />
    <glyph glyph-name="Scaron.sc" horiz-adv-x="1034" 
d="M535 1157q-35 0 -60 31l-225 270l4 4l281 -157l280 157l4 -4l-225 -270q-24 -31 -59 -31zM504 -20q-147 0 -361 47l-22 323l12 2q60 -181 110 -241q49 -60 89 -78q88 -39 182 -39q143 0 218 64t75 159t-69 153t-168 91t-197 69t-167 104t-69 184t96 197t273 81
q27 0 172 -12t174 3l27 -325l-13 -2q-25 70 -45 112q-67 139 -166 182q-63 28 -165 28t-171 -58q-67 -57 -67 -145q0 -89 70 -145t168 -89t196 -69t168 -109q70 -75 70 -197t-104 -206t-316 -84z" />
    <glyph glyph-name="Uacute.sc" horiz-adv-x="1296" 
d="M549 1167l-4 4q39 53 118 168t109 143q31 28 62 26t51 -23q49 -53 -13 -111q-35 -31 -152 -101q-118 -71 -171 -106zM661 -20q-184 0 -306 90t-122 288v527q0 96 -37 136q-38 40 -147 40v14h520v-14q-109 0 -147 -40t-37 -136v-533q0 -350 309 -350q158 0 249 91t91 255
v88q0 424 -28 525q-29 100 -177 100v14h431v-14q-146 0 -176 -100t-29 -525v-84q0 -182 -105 -277t-289 -95z" />
    <glyph glyph-name="Ugrave.sc" horiz-adv-x="1296" 
d="M803 1167q-53 35 -169 105t-155 102q-61 57 -12 111q20 23 51 23q30 0 56 -21q26 -23 58 -67t84 -120t91 -129zM661 -20q-184 0 -306 90t-122 288v527q0 96 -37 136q-38 40 -147 40v14h520v-14q-109 0 -147 -40t-37 -136v-533q0 -350 309 -350q158 0 249 91t91 255v88
q0 424 -28 525q-29 100 -177 100v14h431v-14q-146 0 -176 -100t-29 -525v-84q0 -182 -105 -277t-289 -95z" />
    <glyph glyph-name="Ucircumflex.sc" horiz-adv-x="1296" 
d="M682 1473q34 0 59 -31l226 -271l-4 -4l-281 158l-281 -158l-4 4l226 271q25 31 59 31zM661 -20q-184 0 -306 90t-122 288v527q0 96 -37 136q-38 40 -147 40v14h520v-14q-109 0 -147 -40t-37 -136v-533q0 -350 309 -350q158 0 249 91t91 255v88q0 424 -28 525
q-29 100 -177 100v14h431v-14q-146 0 -176 -100t-29 -525v-84q0 -182 -105 -277t-289 -95z" />
    <glyph glyph-name="Udieresis.sc" horiz-adv-x="1296" 
d="M850 1210q-43 0 -73 31t-29 74q0 43 29 74q30 31 73 31t74 -32q30 -30 30 -73t-30 -74t-74 -31zM515 1210q-42 0 -73 31t-30 74q0 43 29 74q30 31 73 31t74 -30q30 -30 30 -74t-30 -75t-73 -31zM661 -20q-184 0 -306 90t-122 288v527q0 96 -37 136q-38 40 -147 40v14h520
v-14q-109 0 -147 -40t-37 -136v-533q0 -350 309 -350q158 0 249 91t91 255v88q0 424 -28 525q-29 100 -177 100v14h431v-14q-146 0 -176 -100t-29 -525v-84q0 -182 -105 -277t-289 -95z" />
    <glyph glyph-name="Yacute.sc" horiz-adv-x="1150" 
d="M469 1167l-4 4q39 53 118 168t109 143q31 28 62 26t51 -23q49 -53 -12 -111q-33 -29 -152 -100q-119 -72 -172 -107zM322 0v14q108 0 146 40t38 136v259l-221 366q-59 98 -90 139t-82 74t-117 33v14h516v-14q-80 0 -112 -32t-24 -72t38 -87l227 -374h6l60 104
q168 297 167 375q0 86 -131 86v14h426v-14q-121 0 -205 -93t-245 -378l-62 -109v-291q0 -96 38 -136t147 -40v-14h-520z" />
    <glyph glyph-name="Ydieresis.sc" horiz-adv-x="1150" 
d="M780 1210q-42 0 -72 31t-30 74t30 74t72 31t74 -32q31 -30 31 -73t-31 -74t-74 -31zM445 1210q-43 0 -73 31t-30 74t30 74t72 31t74 -30q31 -30 31 -74t-31 -75t-73 -31zM322 0v14q108 0 146 40t38 136v259l-221 366q-59 98 -90 139t-82 74t-117 33v14h516v-14
q-80 0 -112 -32t-24 -72t38 -87l227 -374h6l60 104q168 297 167 375q0 86 -131 86v14h426v-14q-121 0 -205 -93t-245 -378l-62 -109v-291q0 -96 38 -136t147 -40v-14h-520z" />
    <glyph glyph-name="Zcaron.sc" horiz-adv-x="1103" 
d="M565 1157q-35 0 -59 31l-225 270l4 4l280 -157l281 157l4 -4l-225 -270q-25 -31 -60 -31zM502 1059q-144 0 -244 -86t-137 -234h-12l22 336h862l4 -4l-729 -1055h350q150 0 239 87t144 249h13l-37 -352h-897l-2 4l727 1055h-303z" />
    <glyph glyph-name="Thorn.sc" horiz-adv-x="1105" 
d="M72 0v14q108 0 146 40t38 136v695q0 96 -38 136t-146 40v14h520v-14q-109 0 -147 -40t-37 -136v-43h167q238 0 350 -81t111 -222q0 -303 -461 -303h-61v16h51q152 0 232 80t80 207t-80 207t-232 79h-157v-635q0 -96 38 -136t146 -40v-14h-520z" />
    <glyph glyph-name="zero.sc" horiz-adv-x="1040" 
d="M520 -8q127 0 192 156q64 156 64 388t-64 389q-65 157 -192 157q-128 0 -192 -158q-64 -156 -64 -387t64 -388t192 -157zM520 -20q-196 0 -304 158t-108 398q0 238 110 398q108 160 302 160t304 -160q108 -160 108 -398t-108 -398q-108 -158 -304 -158z" />
    <glyph glyph-name="one.sc" horiz-adv-x="649" 
d="M106 0v10q102 0 140 35q37 35 37 121v717q1 39 -15 59t-61 21h-129v12q217 16 336 98l6 -2v-907q0 -86 35 -120t137 -34v-10h-486z" />
    <glyph glyph-name="two.sc" horiz-adv-x="944" 
d="M653 846q0 94 -51 165t-164 70q-166 0 -235 -157q43 0 71 -29t27 -71q0 -42 -28 -70q-27 -28 -71 -27q-44 0 -71 33t-27 78q0 92 98 174t254 82q155 0 254 -76t99 -195q0 -152 -171 -256q-77 -47 -158 -90q-218 -116 -294 -217q-43 -57 -53 -125q37 117 172 117
q70 0 188 -53t183 -54q133 0 133 140q0 41 -8 73h16q12 -70 12 -146t-41 -150t-124 -72q-54 0 -106 37t-86 82t-86 81t-114 37q-62 0 -97 -44q-36 -44 -36 -99t8 -84h-16q-58 194 115 351q66 59 132 105t131 98q144 115 144 292z" />
    <glyph glyph-name="three.sc" horiz-adv-x="964" 
d="M477 555q159 0 269 -68q110 -69 110 -209t-118 -219t-274 -79q-157 0 -259 70t-103 159q0 47 29 78t69 31t68 -30t27 -71q0 -41 -26 -70t-64 -30q57 -125 227 -125q137 0 204 82q66 82 66 212t-76 196q-77 67 -200 67q-49 0 -86 -8t-39 -9q-33 0 -33 27q0 11 10 19t17 8
q8 0 45 -12t84 -11q114 0 178 76q64 75 64 189t-56 184t-166 69q-147 0 -213 -125q35 -6 59 -34t24 -67q0 -40 -30 -69q-28 -28 -67 -28t-67 28t-29 76q0 90 99 161q98 71 244 71t252 -69t105 -191q0 -122 -94 -196t-250 -77h-2v-6h2z" />
    <glyph glyph-name="four.sc" horiz-adv-x="931" 
d="M379 0v10q102 0 139 35t37 121v117h-500l-4 12l185 213q59 68 110 169t51 204q0 156 -116 206q139 2 218 -50q79 -53 79 -119t-39 -122t-143 -156t-136 -138l-184 -203h479v219l127 133h8v-352q62 2 100 12t39 11q31 0 31 -27t-31 -27q-2 0 -41 7t-98 8v-119
q0 -86 36 -120t138 -34v-10h-485z" />
    <glyph glyph-name="five.sc" horiz-adv-x="940" 
d="M805 1022q0 -111 -153 -111t-410 88l-47 -428q121 51 247 52q182 0 292 -89q110 -90 110 -230t-118 -232t-282 -92t-262 70t-98 159q0 47 30 78t70 31t67 -30q28 -30 28 -71t-27 -70t-68 -30q70 -125 230 -125q102 0 168 51t87 117q22 66 21 143q0 145 -79 223t-203 78
t-213 -47q-12 -61 -39 -61t-27 26t51 45l53 504l218 -8q177 0 238 18q60 18 87 45q29 -57 29 -104z" />
    <glyph glyph-name="six.sc" horiz-adv-x="1013" 
d="M758 324q0 140 -56 231q-56 90 -170 90t-190 -85t-73 -220q3 -136 67 -242t178 -106q112 0 178 96t66 236zM524 -20q-114 0 -198 50t-130 133q-90 162 -90 377q0 214 124 384t327 170q133 0 217 -69t84 -157q0 -49 -29 -82q-29 -32 -69 -32t-68 30t-28 72q0 41 27 70
q28 29 67 30q-37 125 -185 125q-106 1 -176 -65q-69 -66 -97 -174q-50 -196 -38 -408q20 106 104 174t219 68q134 0 229 -102t95 -246q0 -143 -107 -246q-108 -102 -278 -102z" />
    <glyph glyph-name="seven.sc" horiz-adv-x="827" 
d="M604 856q-55 0 -173 36t-177 36q-154 0 -154 -180h-16v325h12l4 -237h4q8 120 43 184t115 63q54 -1 106 -31t88 -67q95 -98 171 -98q75 0 109 46t34 103q0 16 -6 35h16l4 -37q0 -52 -19 -90t-35 -65t-21 -41q-125 -238 -181 -418t-69 -420h-170q13 136 75 282t125 248
t159 249t100 153h-3q-49 -76 -141 -76z" />
    <glyph glyph-name="eight.sc" horiz-adv-x="1019" 
d="M510 1081q-117 -1 -170 -75t-53 -180t53 -182q53 -77 170 -77t170 77t53 182t-53 180t-170 75zM510 -8q135 0 190 81q56 81 56 197t-56 201q-56 86 -190 86t-190 -86t-56 -202q0 -117 56 -197t190 -80zM510 -20q-182 0 -291 82t-109 206q0 125 90 203q89 78 246 90
q-141 14 -224 84q-83 69 -83 183q-1 114 103 190t268 76t267 -76t103 -190t-82 -183q-83 -70 -225 -84q158 -12 247 -90t89 -203t-108 -207q-109 -81 -291 -81z" />
    <glyph glyph-name="nine.sc" horiz-adv-x="1017" 
d="M748 727q0 135 -64 245t-178 109q-116 0 -180 -96q-64 -97 -64 -239t54 -229t167 -87t189 81t76 216zM446 -20q-139 0 -223 68t-84 155q0 51 28 83t70 32q41 0 69 -30t28 -72t-28 -70t-66 -29q51 -125 202 -125q106 0 176 66q153 145 136 581q-23 -106 -105 -174
t-217 -68q-135 -1 -228 101t-93 250t107 246q108 99 278 100q114 0 198 -50q144 -84 195 -301q20 -88 20 -182q0 -241 -123 -411t-340 -170z" />
    <glyph glyph-name="Amacron.sc" horiz-adv-x="1218" 
d="M344 1229v59h526v-59h-526zM324 385h442l-223 516zM-31 0v14q109 0 170 72t133 240l326 759h18l351 -798q68 -154 126 -213t146 -60v-14h-528v14q100 0 132 60t-16 168l-53 125h-459l-20 -48q-145 -305 100 -305v-14h-426z" />
    <glyph glyph-name="Abreve.sc" horiz-adv-x="1218" 
d="M608 1180q-86 0 -139 53t-67 115t-15 133h4q41 -176 217 -176t217 176h4q0 -72 -14 -133t-67 -115q-54 -53 -140 -53zM324 385h442l-223 516zM-31 0v14q109 0 170 72t133 240l326 759h18l351 -798q68 -154 126 -213t146 -60v-14h-528v14q100 0 132 60t-16 168l-53 125
h-459l-20 -48q-145 -305 100 -305v-14h-426z" />
    <glyph glyph-name="Aogonek.sc" horiz-adv-x="1218" 
d="M977 -416q-88 0 -142 38t-55 116q0 106 105 174q49 34 129 74l28 14h-331v14q100 0 132 60t-16 168l-53 125h-459l-20 -48q-145 -305 100 -305v-14h-426v14q109 0 170 72t133 240l326 759h18l351 -798q68 -154 126 -213t146 -60v-14h-164q-78 -40 -123 -92t-45 -137
q0 -147 154 -148q49 0 98 17l4 -13q-98 -43 -186 -43zM324 385h442l-223 516z" />
    <glyph glyph-name="Cacute.sc" horiz-adv-x="1241" 
d="M539 1167l-4 4q39 53 118 168t109 143q32 28 62 26t50 -23q49 -53 -12 -111q-35 -31 -152 -101q-118 -71 -171 -106zM727 1081q-213 1 -336 -155t-123 -393t120 -389t325 -150q158 0 261 91t177 253l10 -2l-61 -305q-172 -51 -381 -51q-268 0 -444 145q-175 145 -175 405
t184 413t449 153l250 -17q39 0 123 15l33 -338l-13 -2q-70 168 -160 248t-239 79z" />
    <glyph glyph-name="Ccircumflex.sc" horiz-adv-x="1241" 
d="M698 1473q34 0 60 -31l225 -271l-4 -4l-281 158l-280 -158l-4 4l225 271q25 31 59 31zM727 1081q-213 1 -336 -155t-123 -393t120 -389t325 -150q158 0 261 91t177 253l10 -2l-61 -305q-172 -51 -381 -51q-268 0 -444 145q-175 145 -175 405t184 413t449 153l250 -17
q39 0 123 15l33 -338l-13 -2q-70 168 -160 248t-239 79z" />
    <glyph glyph-name="Cdotaccent.sc" horiz-adv-x="1241" 
d="M713 1210q-47 0 -80 34t-33 81t33 80t79 33t80 -33t34 -80t-34 -81q-32 -34 -79 -34zM727 1081q-213 1 -336 -155t-123 -393t120 -389t325 -150q158 0 261 91t177 253l10 -2l-61 -305q-172 -51 -381 -51q-268 0 -444 145q-175 145 -175 405t184 413t449 153l250 -17
q39 0 123 15l33 -338l-13 -2q-70 168 -160 248t-239 79z" />
    <glyph glyph-name="Ccaron.sc" horiz-adv-x="1241" 
d="M711 1157q-35 0 -60 31l-225 270l4 4l281 -157l280 157l4 -4l-225 -270q-24 -31 -59 -31zM727 1081q-213 1 -336 -155t-123 -393t120 -389t325 -150q158 0 261 91t177 253l10 -2l-61 -305q-172 -51 -381 -51q-268 0 -444 145q-175 145 -175 405t184 413t449 153l250 -17
q39 0 123 15l33 -338l-13 -2q-70 168 -160 248t-239 79z" />
    <glyph glyph-name="Dcaron.sc" horiz-adv-x="1355" 
d="M690 1157q-35 0 -59 31l-225 270l4 4l280 -157l281 157l4 -4l-225 -270q-25 -31 -60 -31zM408 16h217q233 0 348 144t115 378t-115 377t-348 144h-217v-1043zM72 0v14q108 0 146 40t38 136v695q0 96 -38 136t-146 40v14h555q289 0 459 -145t169 -392q0 -246 -169 -392
t-459 -146h-555z" />
    <glyph glyph-name="Dcroat.sc" horiz-adv-x="1355" 
d="M408 16h217q233 0 348 144t115 378t-115 377t-348 144h-217v-508h354v-19h-354v-516zM72 0v14q108 0 146 40t38 136v342h-141v19h141v334q0 96 -38 136t-146 40v14h555q289 0 459 -145t169 -392q0 -246 -169 -392t-459 -146h-555z" />
    </font>
</defs>
</svg>
