<?xml version="1.0" standalone="no"?>
<!DOCTYPE svg PUBLIC "-//W3C//DTD SVG 1.1//EN" "http://www.w3.org/Graphics/SVG/1.1/DTD/svg11.dtd" >
<svg xmlns="http://www.w3.org/2000/svg">
<metadata>Generated by IcoMoon</metadata>
<defs>
<font id="icomoon" horiz-adv-x="1024">
<font-face units-per-em="1024" ascent="960" descent="-64" />
<missing-glyph horiz-adv-x="1024" />
<glyph unicode="&#x20;" horiz-adv-x="512" d="" />
<glyph unicode="&#x21;" glyph-name="slide-down-arrow" horiz-adv-x="1029" d="M1013.911 591.764l-464.079-464.079c-20.177-20.177-50.443-20.177-70.621 0l-464.079 464.079c-20.177 20.177-20.177 50.443 0 70.621s50.443 20.177 70.621 0l428.768-428.768 428.768 428.768c20.177 20.177 50.443 20.177 70.621 0s20.177-50.443 0-70.621z" />
<glyph unicode="&#x22;" glyph-name="close-light" d="M1023.959-35.942l-28.017-28.017-483.942 483.942-483.942-483.942-28.017 28.017 483.942 483.942-483.942 483.942 28.017 28.017 483.942-483.942 483.942 483.942 28.017-28.017-483.942-483.942 483.942-483.942z" />
<glyph unicode="&#x23;" glyph-name="light-arrow" horiz-adv-x="532" d="M532.439 440.422l-504.381-504.381-28.017 28.017 483.942 483.942-483.942 483.942 28.017 28.017 504.381-504.381-7.578-7.578 7.578-7.578z" />
<glyph unicode="&#x24;" glyph-name="search-icon" d="M1024 98.133l-153.6-153.6-196.267 204.8c-68.267-42.667-145.067-68.267-238.933-68.267-238.933 0-435.2 196.267-435.2 443.733s196.267 443.733 435.2 443.733c238.933 0 435.2-196.267 435.2-443.733 0-76.8-17.067-145.067-51.2-204.8l204.8-221.867zM435.2 849.067c-179.2 0-324.267-153.6-324.267-332.8 0-187.733 145.067-332.8 324.267-332.8s324.267 153.6 324.267 332.8c0 179.2-145.067 332.8-324.267 332.8z" />
<glyph unicode="&#x25;" glyph-name="flothemes-logo" horiz-adv-x="1022" d="M510.385 950.857c-281.431 0-510.385-230.389-510.385-513.607 0-286.193 224.206-510.393 510.385-510.393 287.133 0 511.971 224.2 511.971 510.393 0 283.218-229.615 513.607-511.971 513.607zM510.385 12.098c-234.404 0-425.181 190.71-425.181 425.152 0 236.178 190.777 428.356 425.181 428.356 235.348 0 426.768-192.18 426.768-428.356-0.002-234.442-191.422-425.152-426.768-425.152zM319.339 616.599c-4.892 5.714-6.571 13.866-1.65 19.612 0 0 58.909 81.031 122.785 81.031 35.16 0 59.76-18.008 82.606-33.571 16.396-10.621 36.851-26.166 59.742-26.166 27.831 0 49.946 26.166 60.599 42.527 6.524 8.218 16.367 8.218 23.697 1.654l34.367-36.014c5.796-4.906 6.571-13.898 1.679-19.653 0 0-57.321-80.182-120.341-80.182-39.276 0-64.606 18.831-89.981 35.192-15.563 10.647-31.946 22.906-53.206 22.906-27.831 0-49.917-25.377-60.599-41.728-5.668-8.2-16.338-9-22.858-1.647-13.108 13.107-22.94 22.94-36.839 36.040zM319.339 423.37c-4.892 5.714-6.571 13.898-1.65 19.644 0 0 58.909 81.014 122.785 81.014 35.16 0 59.76-18.008 82.606-33.553 16.396-10.644 36.851-26.184 59.742-26.184 27.831 0 49.946 26.184 60.599 42.545 6.524 8.2 16.367 8.2 23.697 1.647l34.367-36.008c5.796-4.924 6.571-13.914 1.679-19.629 0 0-57.321-80.214-120.341-80.214-39.276 0-64.606 18.825-89.981 35.182-15.563 10.641-31.946 22.924-53.206 22.924-27.831 0-49.917-25.393-60.599-41.745-5.668-8.183-16.338-8.997-22.858-1.621-13.108 13.084-22.94 22.898-36.839 36zM319.339 230.173c-4.892 5.738-6.571 13.912-1.65 19.626 0 0 58.909 81.007 122.785 81.007 35.16 0 59.76-18 82.606-33.538 16.396-10.647 36.851-26.197 59.742-26.197 27.831 0 49.946 26.197 60.599 42.559 6.524 8.175 16.367 8.175 23.697 1.639l34.367-35.982c5.796-4.948 6.571-13.938 1.679-19.67 0 0-57.321-80.188-120.341-80.188-39.276 0-64.606 18.83-89.981 35.174-15.563 10.637-31.946 22.928-53.206 22.928-27.831 0-49.917-25.385-60.599-41.742-5.668-8.178-16.338-8.995-22.858-1.617-13.108 13.068-22.94 22.88-36.839 36z" />
<glyph unicode="&#x26;" glyph-name="gallery-about" horiz-adv-x="1158" d="M0 960c387.339 0 770.226 0 1157.565 0 0-44.522 0-44.522 0-89.043-387.339 0-770.226 0-1157.565 0 0 44.522 0 44.522 0 89.043zM801.391 648.348c-267.13 0-534.261 0-801.391 0 0 44.522 0 44.522 0 89.043 267.13 0 534.261 0 801.391 0 0-44.522 0-44.522 0-89.043zM1157.565 425.739c-387.339 0-770.226 0-1157.565 0 0 44.522 0 44.522 0 89.043 387.339 0 770.226 0 1157.565 0 0-44.522 0-44.522 0-89.043zM1157.565 203.13c-387.339 0-770.226 0-1157.565 0 0 44.522 0 44.522 0 89.043 387.339 0 770.226 0 1157.565 0 0-44.522 0-44.522 0-89.043zM801.391-19.478c-267.13 0-534.261 0-801.391 0 0 44.522 0 44.522 0 89.043 267.13 0 534.261 0 801.391 0 0-44.522 0-44.522 0-89.043zM1068.522 114.087c48.974 0 89.043-40.070 89.043-89.043s-40.070-89.043-89.043-89.043c-48.974 0-89.043 40.070-89.043 89.043s40.070 89.043 89.043 89.043z" />
<glyph unicode="&#x27;" glyph-name="close-button" horiz-adv-x="1084" d="M1084.717 8.644l-85.474-72.584-457.427 435.26-464.896-435.802-76.86 80.776 460.86 432.008-461.402 439.055 85.474 72.584 457.427-435.26 464.896 435.802 76.86-80.776-460.86-432.008 461.402-439.055z" />
<glyph unicode="&#x28;" glyph-name="share" horiz-adv-x="1067" d="M878.933 644.267c-72.533 0-128 55.467-128 128s55.467 128 128 128 128-55.467 128-128-55.467-128-128-128zM878.933 814.933c-25.6 0-42.667-17.067-42.667-42.667s17.067-42.667 42.667-42.667 42.667 17.067 42.667 42.667-17.067 42.667-42.667 42.667zM878.933-8.533c-72.533 0-128 55.467-128 128s55.467 128 128 128 128-55.467 128-128-55.467-128-128-128zM878.933 162.133c-25.6 0-42.667-17.067-42.667-42.667s17.067-42.667 42.667-42.667 42.667 17.067 42.667 42.667-17.067 42.667-42.667 42.667zM187.733 332.8c-72.533 0-128 55.467-128 128s55.467 128 128 128 128-55.467 128-128c0-68.267-55.467-128-128-128zM187.733 507.733c-25.6 0-42.667-17.067-42.667-42.667s17.067-42.667 42.667-42.667 42.667 17.067 42.667 42.667c0 21.333-17.067 42.667-42.667 42.667zM375.467 541.867l-12.8 34.133 443.733 183.467 12.8-34.133-443.733-183.467zM358.4 358.4l17.067 29.867 443.733-260.267-17.067-29.867-443.733 260.267z" />
<glyph unicode="&#x29;" glyph-name="slider-arrow" horiz-adv-x="1027" d="M1026.537 409.211l-989.081-473.039-37.069 77.578 907.933 434.25-907.933 434.25 37.069 77.578 989.081-473.039-18.535-38.789 18.535-38.789z" />
<glyph unicode="&#x2a;" glyph-name="soc-facebook" d="M398.234 405.299v-361.984h172.237v360.294h117.402l28.518 150.118h-144.435v110.438c0 15.104 7.782 35.43 31.744 35.43h83.814v153.088h-156.518c-53.658 0-132.915-67.994-132.915-139.981v-154.522h-90.522v-152.166l90.675-0.717z" />
<glyph unicode="&#x2b;" glyph-name="soc-gplus" d="M533.402 202.547c0 6.81-0.717 13.312-2.406 19.661-1.485 6.4-2.816 12.032-4.403 17.408-1.587 5.427-4.608 11.008-8.704 16.896-3.891 5.888-7.219 10.854-10.086 14.746-2.918 4.045-7.322 8.858-12.902 14.387-5.939 5.581-10.291 9.574-13.414 12.39-3.482 2.918-8.704 6.912-15.77 12.646-7.475 5.325-12.339 9.114-15.053 10.803-2.918 2.099-8.397 5.939-16.589 11.469-7.578 5.325-12.39 8.909-14.592 9.984-5.171 0.819-13.568 1.126-24.32 1.126-17.715 0-35.123-1.229-51.866-3.43-16.742-2.355-34.662-6.246-52.531-12.237-18.278-5.632-34.099-13.21-48.333-22.17-13.363-9.216-24.474-21.402-33.229-36.352-9.114-15.565-13.005-32.922-13.005-52.429 0-21.965 5.12-41.523 17.101-58.829 11.725-17.459 26.624-30.925 45.312-40.909 18.688-9.728 38.195-17.306 58.982-22.067 20.224-4.813 41.216-7.373 62.106-7.373 18.79 0 37.325 1.997 54.374 5.939 17.664 4.352 34.202 10.496 49.306 19.098 15.718 8.602 27.597 20.531 36.71 35.84 8.806 15.104 13.312 32.819 13.312 53.402zM475.085 621.722c0 19.61-2.816 40.038-8.294 61.952-5.478 22.016-13.107 43.162-23.091 63.488-9.677 20.48-23.757 37.325-41.216 50.79-17.101 13.21-36.557 19.968-58.163 19.968-30.413 0-53.504-11.418-70.349-33.638-16.794-22.477-24.934-49.306-24.934-80.333 0-15.309 1.997-31.13 5.427-48.077 3.789-16.896 9.677-33.843 17.408-50.586 7.834-16.794 16.794-32.256 27.29-45.517 10.752-13.517 23.245-24.371 38.246-32.973 14.899-8.141 30.822-12.595 47.77-12.595 31.488 0 54.17 9.728 68.301 29.389 14.336 19.712 21.606 45.619 21.606 78.131zM410.624 852.685h213.709l-65.894-38.451h-66.253c23.296-14.643 41.216-34.714 53.811-61.030 12.493-26.368 18.944-53.658 18.944-82.33 0-23.91-3.789-45.363-11.059-63.898-7.424-18.534-16.486-33.792-27.29-44.8-10.547-11.674-21.606-21.914-32.154-31.488-11.059-9.574-20.019-19.456-27.238-29.85-7.936-10.189-11.469-20.992-11.469-32.768 0-8.448 2.509-16.589 7.834-24.678 5.478-8.346 12.698-16.077 21.197-23.45 8.806-7.373 18.125-15.206 28.826-23.45 10.086-7.987 20.531-17.101 31.027-26.982 10.445-9.83 20.122-20.429 28.262-31.949 8.96-11.674 16.128-25.498 21.146-41.267 5.274-16.179 7.987-33.382 7.987-52.122 0-51.61-22.579-97.382-68.454-137.062-49.050-42.342-117.811-63.744-205.056-63.744-18.79 0-38.605 1.741-58.47 5.018-19.712 3.174-39.629 8.704-59.341 16.333-19.917 7.475-37.581 16.947-53.299 28.16-14.899 11.008-27.546 25.549-37.222 43.162-9.984 17.971-14.694 37.53-14.694 59.187 0 19.661 5.888 41.574 18.022 65.638 10.138 20.992 26.266 38.605 46.95 53.76 20.89 15.053 44.237 26.573 70.554 34.662 26.317 7.834 51.763 13.67 75.981 17.408 24.218 3.635 48.333 5.888 73.267 6.554-21.146 27.136-31.539 51.149-31.539 72.55 0 3.686 0.307 7.731 1.28 11.315 0.717 3.789 1.331 6.707 2.611 9.318 1.024 2.611 1.997 6.349 3.686 10.65 1.792 4.301 2.918 7.885 3.277 10.394-13.056-1.741-24.064-2.406-34.048-2.406-48.282 0-90.317 15.923-124.723 47.77-34.509 31.795-51.814 71.526-51.814 119.347 0 45.619 15.411 86.323 46.336 122.214 30.515 35.686 68.608 58.522 114.074 68.506 30.618 6.707 61.235 9.779 91.238 9.779zM918.426 728.32v-62.208h-125.389v-124.672h-62.618v124.672h-124.467v62.208h124.467v124.365h62.618v-124.365h125.389z" />
<glyph unicode="&#x2c;" glyph-name="soc-instagram" d="M757.555 448.205c0-135.322-110.131-244.48-245.606-244.48-136.141 0-245.658 109.21-245.658 244.48 0 16.333 1.28 31.744 4.659 47.002h-165.376v-325.274c0-69.837 56.781-126.669 127.13-126.669h558.49c70.042 0 127.181 56.73 127.181 126.669v325.274h-165.478c3.072-15.258 4.659-30.669 4.659-47.002zM791.245 852.685h-558.49c-70.349 0-127.13-56.32-127.13-126.31v-136.858h205.414c44.902 62.464 118.016 103.424 200.909 103.424 82.637 0 156.365-40.909 200.704-103.475h205.773v136.909c0 69.99-57.19 126.31-127.181 126.31zM853.504 696.781c0-12.8-10.496-22.886-22.579-22.886h-68.301c-12.39 0-22.989 10.086-22.989 22.886v67.891c0 12.39 10.598 22.426 22.989 22.426h68.301c12.134 0 22.579-9.984 22.579-22.426v-67.891zM662.938 448.205c0 83.302-67.379 150.886-150.989 150.886-83.354 0-151.194-67.584-151.194-150.886 0-83.61 67.84-150.682 151.194-150.682 83.61 0 150.989 67.072 150.989 150.682z" />
<glyph unicode="&#x2d;" glyph-name="soc-linkedin" d="M289.638 764.672c0-48.384-35.174-87.398-93.44-87.398-55.501 0-90.624 39.014-90.624 87.398 0 49.664 36.403 87.45 92.723 87.45 56.166 0 90.214-37.837 91.341-87.45zM110.029 608.102h173.67v-564.122h-173.67v564.122zM387.942 427.878c0 70.605-2.406 129.382-4.813 180.224h150.989l8.294-78.848h3.174c22.938 37.171 79.104 91.187 172.749 91.187 113.818 0 200.090-77.363 200.090-243.354v-333.21h-173.978v312.525c0 72.858-24.934 122.214-87.91 122.214-47.872 0-76.902-33.126-89.088-65.382-4.864-11.878-5.888-28.058-5.888-44.032v-325.274h-173.619v383.949z" />
<glyph unicode="&#x2e;" glyph-name="soc-pinterest" d="M918.426 447.744c0-73.267-18.586-141.005-54.579-203.315-36.608-61.645-85.504-111.002-148.019-146.739-62.003-36.403-130.202-54.374-203.878-54.374-39.168 0-77.875 5.683-115.302 16.691 20.48 33.075 34.816 61.798 41.472 86.579 2.867 11.725 12.544 48.947 28.16 111.104 7.322-13.875 20.122-25.395 38.758-35.328 18.79-10.138 38.912-15.36 60.006-15.36 43.162 0 80.947 12.237 114.637 36.403 33.485 23.962 59.597 57.088 77.619 99.174 18.483 41.882 27.597 89.498 27.597 142.285 0 39.834-10.598 77.568-31.386 112.486-21.094 35.43-51.405 63.949-91.392 86.016-39.782 22.426-84.89 33.28-134.912 33.28-37.12 0-71.475-4.915-103.373-14.848-32.154-10.189-59.853-23.808-81.92-41.165-22.528-16.486-41.37-35.84-57.805-58.214-16.077-21.35-27.802-44.646-35.226-68.25-7.936-23.603-11.674-46.95-11.674-70.349 0-36.608 7.27-68.864 21.043-96.358 14.49-27.75 35.072-47.155 62.003-58.419 10.752-4.25 17.203-1.024 19.917 10.598 1.229 2.048 2.509 7.526 4.25 15.974 2.304 8.858 3.789 13.926 4.71 15.821 1.792 8.141 0 15.974-6.298 22.733-17.818 21.504-26.573 48.128-26.573 79.77 0 53.094 18.278 98.56 55.040 136.858 36.864 38.144 85.299 57.037 145.050 57.037 53.043 0 94.72-14.080 124.006-43.162 30.31-28.774 45.21-66.304 45.21-112.435 0-59.699-11.878-110.49-36.198-152.32-24.422-41.882-55.398-62.566-93.133-62.566-21.555 0-38.861 7.629-51.968 22.835-12.954 15.462-16.998 33.69-12.134 54.835 2.662 12.595 7.578 28.826 14.336 49.306 6.298 20.992 11.725 38.758 15.667 54.528s6.042 28.826 6.042 40.038c0 16.947-4.506 31.693-14.182 43.571-9.677 11.315-22.989 17.254-40.858 17.254-21.965 0-40.346-10.086-55.501-30.31-15.155-19.968-22.63-44.595-22.63-74.24 0-26.214 4.557-47.411 12.954-64.563l-51.866-220.058c-6.605-24.525-8.653-56.269-7.014-93.389-72.704 31.795-131.686 80.998-176.589 147.763-44.442 66.918-66.918 141.005-66.918 222.874 0 73.523 18.022 141.568 54.374 203.366 36.352 61.901 85.555 111.258 147.968 147.558 62.362 35.84 130.253 54.016 203.93 54.016s141.875-18.125 203.878-54.016c62.515-36.301 111.411-85.658 148.019-147.558 36.045-61.85 54.682-129.894 54.682-203.418z" />
<glyph unicode="&#x2f;" glyph-name="soc-tumblr" d="M493.517 498.125v-185.395c0-46.746-0.461-74.035 4.301-87.398 4.813-13.107 16.794-26.829 30.566-34.97 17.152-10.65 37.837-15.923 60.058-15.923 40.397 0 64.512 5.274 104.602 31.795v-121.702c-34.304-16.23-64.102-25.805-91.597-32.102-27.392-6.81-57.344-9.882-89.395-9.882-36.506 0-58.214 4.608-85.811 13.824-28.416 9.421-52.122 22.784-71.885 40.192-20.224 17.203-33.382 35.533-41.114 55.040-7.936 19.405-11.622 47.77-11.622 84.941v283.648h-107.008v114.688c31.488 10.445 66.406 25.19 88.883 44.442 21.76 19.507 40.192 42.496 53.299 69.734 13.722 26.726 22.989 61.286 28.211 102.912h128.512v-202.394h199.475v-151.45h-199.475z" />
<glyph unicode="&#x30;" glyph-name="soc-twitter" d="M928.307 704.614c-30.976-13.517-64-22.426-98.355-26.778 35.328 21.043 62.362 54.016 75.11 93.798-32.973-19.558-69.376-33.382-108.186-41.114-31.386 33.126-76.032 53.709-124.774 53.709-94.515 0-170.598-76.237-170.598-169.677 0-13.466 1.126-26.419 3.942-38.707-141.875 6.861-267.469 74.496-351.744 177.459-14.694-25.446-23.398-54.477-23.398-85.76 0-58.778 30.515-110.848 75.827-141.005-27.392 0.512-54.323 8.448-77.056 20.89v-1.843c0-82.483 59.085-150.886 136.704-166.707-13.875-3.84-29.082-5.632-44.8-5.632-10.906 0-21.914 0.666-32.307 2.97 22.17-67.226 84.89-116.582 159.488-118.323-58.112-45.107-131.789-72.294-211.661-72.294-13.978 0-27.392 0.614-40.858 2.304 75.622-48.384 165.274-76.083 261.888-76.083 314.061 0 485.786 258.611 485.786 482.816 0 7.526-0.307 14.746-0.717 21.914 33.997 23.91 62.464 53.76 85.709 88.064z" />
<glyph unicode="&#x31;" glyph-name="soc-vimeo" d="M103.936 606.31l32.973-42.394c0 0 68.403 52.634 91.085 26.522 23.040-26.522 110.285-343.859 139.213-402.483 25.139-51.507 95.078-119.296 171.52-70.912 77.158 48.64 331.725 260.813 377.293 511.795 45.517 250.624-306.893 198.093-343.808-20.275 92.877 54.426 143.002-22.323 95.386-109.056-47.821-87.142-91.597-143.974-114.278-143.974-22.272 0-39.885 58.47-66.048 159.898-26.778 105.062-26.726 294.554-138.752 272.998-105.882-20.378-244.582-182.118-244.582-182.118z" />
<glyph unicode="&#x32;" glyph-name="soc-youtube" d="M933.632 715.469c-24.986 46.49-52.122 54.989-107.418 58.317-55.142 3.84-193.843 5.478-314.061 5.478-120.474 0-259.277-1.587-314.419-5.478-55.091-3.277-82.227-11.776-107.52-58.317-25.702-46.541-38.963-126.464-38.963-267.315v-0.512c0-140.186 13.261-220.774 39.014-266.752 25.242-46.438 52.378-54.938 107.52-58.829 55.091-3.277 193.946-5.325 314.419-5.325 120.218 0 258.918 1.997 314.112 5.325 55.296 3.891 82.381 12.39 107.418 58.829 26.010 45.926 39.117 126.566 39.117 266.752v0.512c-0.102 140.851-13.21 220.774-39.219 267.315zM420.403 274.534v347.802l261.325-174.387-261.325-173.414z" />
<glyph unicode="&#x33;" glyph-name="play-button" horiz-adv-x="805" d="M790.857 421.143l-758.857-421.714q-13.143-7.429-22.571-1.714t-9.429 20.571v841.143q0 14.857 9.429 20.571t22.571-1.714l758.857-421.714q13.143-7.429 13.143-17.714t-13.143-17.714z" />
<glyph unicode="&#xe900;" glyph-name="soc-flickr" d="M800 544c-70.58 0-128-57.42-128-128s57.42-128 128-128c70.58 0 128 57.42 128 128s-57.42 128-128 128zM800 640v0c123.71 0 224-100.288 224-224 0-123.71-100.29-224-224-224s-224 100.29-224 224c0 123.712 100.29 224 224 224zM0 416c0 123.712 100.288 224 224 224s224-100.288 224-224c0-123.712-100.288-224-224-224s-224 100.288-224 224z" />
<glyph unicode="&#xe901;" glyph-name="soc-delicious" d="M0 960v-1024h1024v1024h-1024zM512 0v448h-448v448h448v-448h448v-448h-448z" />
<glyph unicode="&#xe902;" glyph-name="soc-dribbble" d="M512-64c-282.4 0-512 229.6-512 512s229.6 512 512 512c282.4 0 512-229.6 512-512s-229.6-512-512-512v0zM943.8 378c-15 4.8-135.4 40.6-272.4 18.6 57.2-157.2 80.4-285.2 85-311.8 98 66.4 168 171.4 187.4 293.2v0zM682.8 44.8c-6.6 38.4-31.8 172-93.2 331.6-1-0.4-2-0.6-2.8-1-246.8-86-335.4-257-343.2-273 74.2-57.8 167.4-92.4 268.4-92.4 60.6 0 118.4 12.4 170.8 34.8v0zM187 155c10 17 130 215.6 355.4 288.6 5.6 1.8 11.4 3.6 17.2 5.2-11 24.8-23 49.8-35.4 74.2-218.2-65.4-430.2-62.6-449.4-62.4-0.2-4.4-0.2-8.8-0.2-13.4 0-112.2 42.6-214.8 112.4-292.2v0zM84 537c19.6-0.2 199.8-1 404.4 53.2-72.4 128.8-150.6 237.2-162.2 253-122.4-57.8-214-170.6-242.2-306.2v0zM409.6 872.6c12-16.2 91.6-124.4 163.2-256 155.6 58.2 221.4 146.8 229.2 158-77.2 68.6-178.8 110.2-290 110.2-35.2-0.2-69.6-4.4-102.4-12.2v0zM850.6 723.8c-9.2-12.4-82.6-106.4-244.2-172.4 10.2-20.8 20-42 29-63.4 3.2-7.6 6.4-15 9.4-22.6 145.6 18.2 290.2-11 304.6-14-1 103.2-38 198-98.8 272.4v0z" />
<glyph unicode="&#xe903;" glyph-name="soc-yahoo" d="M568.2 371v0c112.6 197.6 298.6 520 349.6 589-22.4-15-56.8-22.6-88.4-29.8l-47.8 29.8c-38.4-71.6-180-303-270.2-451.2-91.4 151.4-199.6 326.2-270.2 451.2-56-12-79.2-12.6-135 0v0 0c0 0 0 0 0 0v0c110.8-166.8 288.2-484.6 348.6-589v0l-8.2-435 64.8 29.8v0.8l64.8-30.6-8 435z" />
</font>
</defs>
</svg>
