<?xml version="1.0" standalone="no"?>
<!DOCTYPE svg PUBLIC "-//W3C//DTD SVG 1.1//EN" "http://www.w3.org/Graphics/SVG/1.1/DTD/svg11.dtd" >
<svg xmlns="http://www.w3.org/2000/svg">
<metadata>
Created by FontPrep 20130207 at Mon Jan 18 16:15:08 2016
 By prBigBrother
Copyright (c) 2011 by Andy Mangold. All rights reserved.
</metadata>
<defs>
<font id="f5441e4413e68f3bd6d32b4d1dcff286" horiz-adv-x='1024' >
  <font-face 
    font-family="Pompadour-Black"
    font-weight="900"
    font-stretch="normal"
    units-per-em="2048"
    panose-1="2 0 9 6 0 0 0 2 0 4"
    ascent="1536"
    descent="-512"
    x-height="1237"
    cap-height="1237"
    bbox="0 -512 2036 1608"
    underline-thickness="102"
    underline-position="-102"
    unicode-range="U+0020-2212"
  />
<missing-glyph 
 />
    <glyph glyph-name=".notdef" 
 />
    <glyph glyph-name=".null" horiz-adv-x="0" 
 />
    <glyph glyph-name="nonmarkingreturn" 
 />
    <glyph glyph-name="space" unicode=" " horiz-adv-x="624" 
 />
    <glyph glyph-name="space" unicode="&#xa0;" horiz-adv-x="624" 
 />
    <glyph glyph-name="asterisk" unicode="*" horiz-adv-x="1705" 
d="M1262 578v403h71q13 0 13 15t-13 16h-86q-4 0 -4 -4h-2l-387 -308l-90 68l-8 -27l88 -71q8 -4 18 0l373 295v-387h-78q-14 0 -14 -14t14 -13h176q13 0 13 13t-13 14h-71zM1169 381q13 0 13 14t-13 15h-61l-100 340l-25 -21l45 -151h-350l176 589l100 -346l25 19l-107 362
h76q16 0 17 15q0 16 -17 16h-192q-16 0 -17 -16q0 -14 17 -15h75l-235 -792h-59q-15 0 -15 -14t15 -15h153q4 0 10.5 4t6.5 10t-6.5 10.5t-10.5 4.5h-63l43 141h368l39 -141h-63q-12 0 -12 -14t12 -15h155zM358 564q0 -13 17 -13h172q14 0 14 13t-14 14h-78v387l213 -166
l8 30l-227 179h-2v4h-86q-16 0 -17 -17q0 -14 17 -14h67v-403h-67q-17 -1 -17 -14zM853 1505q151 0 284 -57t231 -155.5t155.5 -231.5t57.5 -284t-57.5 -284t-155.5 -231t-231 -155.5t-284 -57.5t-284 57.5t-231 155.5t-155.5 232t-57.5 284t57.5 283t155.5 231.5t231 155.5
t284 57z" />
    <glyph glyph-name="comma" unicode="," horiz-adv-x="630" 
d="M102 197q0 43 17.5 81.5t46.5 67.5t67.5 46.5t103 17.5t128 -63.5t63.5 -149.5v-9q-8 -150 -110.5 -251t-249.5 -101v33q86 0 160.5 44t117.5 112q-115 -67 -203 -28t-114.5 98t-26.5 102z" />
    <glyph glyph-name="hyphen" unicode="-" horiz-adv-x="843" 
d="M741 483h-639v385h639v-385z" />
    <glyph glyph-name="period" unicode="." horiz-adv-x="630" 
d="M102 217q0 43 17.5 82t46.5 67.5t67.5 46t81.5 17.5t82 -17.5t68 -46t46 -67.5t17 -82t-17 -82t-46 -67.5t-68 -46t-82 -17.5t-81.5 17.5t-67.5 46t-46.5 67.5t-17.5 82z" />
    <glyph glyph-name="zero" unicode="0" 
d="M737 1196h-41v-1171h41v1171zM1195 1068q148 -169 148 -454q0 -133 -24.5 -247.5t-134 -248.5t-471.5 -134q-517 0 -570 248.5t-53 379.5t32 245t147 247t446 133q332 0 480 -169z" />
    <glyph glyph-name="one" unicode="1" 
d="M1036 1253v-1212h303v-41h-1245v41h303v852q-123 -25 -262 -25h-41v33h41q168 0 285 37t239 86q184 86 328 229h49z" />
    <glyph glyph-name="two" unicode="2" 
d="M1339 262q0 -111 -71 -194.5t-185 -83.5q-115 0 -219 32.5t-200.5 72.5t-188.5 74t-172 34t-124 -54.5t-44 -158.5h-41v409q0 86 47 128t119 63.5t154 34t153.5 39t118.5 79.5t47 133q0 137 -83.5 215t-174.5 78t-127 -8q168 0 211 -99.5t43 -161.5t-23.5 -109.5
t-60.5 -80t-82 -49t-113.5 -16.5t-148.5 72.5t-80 181.5q0 240 219 292t488 52t403.5 -82t134.5 -273t-138 -238.5t-256 -54.5t-287 -7t-280.5 -17.5t-163.5 -44t-61.5 -56.5t-9.5 -54q0 18 17.5 41.5t127 60.5t449.5 37t464 38.5t138 76.5v-402z" />
    <glyph glyph-name="three" unicode="3" 
d="M582 -16q-488 0 -488 344q0 108 79.5 181t175 73t174.5 -70.5t79 -187.5t-73 -187.5t-181 -70.5q36 -9 102 -9q117 0 200 79t83 192q0 185 -115.5 222.5t-171.5 47.5v41h295q355 0 442 44t97 73.5t10 54.5q0 -139 -540 -139h-304q-195 0 -270 -37.5t-82 -77.5v410
q0 110 71.5 190t185.5 80t218.5 -34t201.5 -73.5t190.5 -72.5t175.5 -33q161 0 161 213h41v-401q0 -98 -56 -150.5t-198 -71.5q117 -31 185.5 -94t68.5 -192q0 -180 -134.5 -262t-622.5 -82z" />
    <glyph glyph-name="four" unicode="4" 
d="M1319 918v-918h-942v41h303v197h-606v41q0 96 23.5 156.5t57 109.5t132 166.5t98.5 541.5h934q0 -296 -184.5 -473t-532.5 -258.5t-417.5 -132.5t-69.5 -110h565v237q91 13 191 55.5t161 83.5q181 108 246 263h41z" />
    <glyph glyph-name="five" unicode="5" 
d="M582 -16q-488 0 -488 344q0 108 79.5 181t175 73t174.5 -70.5t79 -187.5t-73 -187.5t-181 -70.5q36 -9 102 -9q117 0 200 79t83 198t-113 195.5t-272 76.5h-254v631h41q0 -104 44 -158.5t125 -54.5t174 33t188.5 72.5t199.5 73.5t190 34t133.5 -22.5t98.5 -79.5t51 -168
v-410q-38 76 -220.5 99.5t-378.5 23.5q-604 0 -605 131v-164h557q135 0 391 -17.5t256 -301.5q0 -180 -134.5 -262t-622.5 -82z" />
    <glyph glyph-name="six" unicode="6" 
d="M733 664h-41v-639h41v639zM868 737q218 0 344.5 -82.5t126.5 -253.5q0 -211 -137 -314t-482 -103t-485.5 147t-140.5 483q0 289 154.5 456t468.5 167q452 0 516.5 -112.5t64.5 -168.5q0 -97 -64.5 -158t-145.5 -61t-144 61.5t-63 139.5t43 134t129 75h-58
q-303 0 -303 -434q56 24 176 24z" />
    <glyph glyph-name="seven" unicode="7" 
d="M1343 1253v-376q0 -154 -51 -216.5t-139 -150.5t-88 -510h-795q0 296 155 449.5t450.5 193.5t356 82.5t62.5 101.5q0 -23 -18.5 -46t-123.5 -58t-452 -35q-487 0 -543.5 -51t-58.5 -64h-8v410q0 111 72 190.5t187 79.5q116 0 220.5 -33.5t201.5 -73.5t190.5 -73
t173.5 -33q159 0 159 213h49z" />
    <glyph glyph-name="eight" unicode="8" 
d="M737 1196h-41v-475h41v475zM737 623h-41v-598h41v598zM1343 364q0 -82 -54 -231t-573 -149t-572.5 149.5t-53.5 209.5q0 106 66.5 192t171.5 120q-80 31 -126 101.5t-46 142.5t28.5 133.5t94 107.5t174 71.5t340.5 25.5t362.5 -91.5t130.5 -244.5q0 -74 -46 -144.5
t-126 -101.5q104 -43 166.5 -126t62.5 -165z" />
    <glyph glyph-name="nine" unicode="9" 
d="M696 557h41v639h-41v-639zM558 483q-215 0 -341.5 82t-126.5 254q0 211 137.5 314.5t482.5 103.5t489 -146.5t144 -459.5q0 -312 -157.5 -479.5t-467.5 -167.5t-448.5 79.5t-138.5 215.5q0 82 62.5 143t150.5 61t150.5 -61t62.5 -139t-47 -134.5t-133 -74.5h57
q160 0 231.5 109.5t71.5 332.5q-65 -33 -179 -33z" />
    <glyph glyph-name="colon" unicode=":" horiz-adv-x="622" 
d="M102 775q0 89 60.5 148.5t148.5 59.5t148.5 -60.5t60.5 -148.5t-59.5 -148.5t-148.5 -60.5t-149.5 60.5t-60.5 149.5zM162.5 346q60.5 64 148.5 64t148.5 -64t60.5 -149.5t-60 -149t-149 -63.5t-149 63.5t-60 149t60.5 149.5z" />
    <glyph glyph-name="semicolon" unicode=";" horiz-adv-x="622" 
d="M102 176q0 87 61 150t148 63t148 -63t61 -150v-8q0 -148 -106 -250t-254 -102v32q92 0 163.5 44.5t114.5 111.5q-57 -41 -113 -41q-57 0 -96 17.5t-83 63t-44 132.5zM102 755q0 89 60.5 148.5t148.5 59.5t148.5 -61.5t60.5 -148.5t-59.5 -147.5t-148.5 -60.5t-149.5 60.5
t-60.5 149.5z" />
    <glyph glyph-name="equal" unicode="=" horiz-adv-x="843" 
d="M741 127h-639v385h639v-385zM741 700h-639v385h639v-385z" />
    <glyph glyph-name="A" unicode="A" 
d="M1195 1068q148 -169 148 -454q0 -133 -24.5 -247.5t-134 -248.5t-471.5 -134q-517 0 -570 248.5t-53 379.5t32 245t147 247t446 133q332 0 480 -169z" />
    <glyph glyph-name="B" unicode="B" 
d="M1195 1068q148 -169 148 -454q0 -133 -24.5 -247.5t-134 -248.5t-471.5 -134q-517 0 -570 248.5t-53 379.5t32 245t147 247t446 133q332 0 480 -169z" />
    <glyph glyph-name="C" unicode="C" 
d="M1195 1068q148 -169 148 -454q0 -133 -24.5 -247.5t-134 -248.5t-471.5 -134q-517 0 -570 248.5t-53 379.5t32 245t147 247t446 133q332 0 480 -169z" />
    <glyph glyph-name="D" unicode="D" 
d="M1195 1068q148 -169 148 -454q0 -133 -24.5 -247.5t-134 -248.5t-471.5 -134q-517 0 -570 248.5t-53 379.5t32 245t147 247t446 133q332 0 480 -169z" />
    <glyph glyph-name="E" unicode="E" 
d="M1195 1068q148 -169 148 -454q0 -133 -24.5 -247.5t-134 -248.5t-471.5 -134q-517 0 -570 248.5t-53 379.5t32 245t147 247t446 133q332 0 480 -169z" />
    <glyph glyph-name="F" unicode="F" 
d="M1195 1068q148 -169 148 -454q0 -133 -24.5 -247.5t-134 -248.5t-471.5 -134q-517 0 -570 248.5t-53 379.5t32 245t147 247t446 133q332 0 480 -169z" />
    <glyph glyph-name="G" unicode="G" 
d="M1195 1068q148 -169 148 -454q0 -133 -24.5 -247.5t-134 -248.5t-471.5 -134q-517 0 -570 248.5t-53 379.5t32 245t147 247t446 133q332 0 480 -169z" />
    <glyph glyph-name="H" unicode="H" 
d="M1195 1068q148 -169 148 -454q0 -133 -24.5 -247.5t-134 -248.5t-471.5 -134q-517 0 -570 248.5t-53 379.5t32 245t147 247t446 133q332 0 480 -169z" />
    <glyph glyph-name="I" unicode="I" 
d="M1195 1068q148 -169 148 -454q0 -133 -24.5 -247.5t-134 -248.5t-471.5 -134q-517 0 -570 248.5t-53 379.5t32 245t147 247t446 133q332 0 480 -169z" />
    <glyph glyph-name="J" unicode="J" 
d="M1195 1068q148 -169 148 -454q0 -133 -24.5 -247.5t-134 -248.5t-471.5 -134q-517 0 -570 248.5t-53 379.5t32 245t147 247t446 133q332 0 480 -169z" />
    <glyph glyph-name="K" unicode="K" 
d="M1195 1068q148 -169 148 -454q0 -133 -24.5 -247.5t-134 -248.5t-471.5 -134q-517 0 -570 248.5t-53 379.5t32 245t147 247t446 133q332 0 480 -169z" />
    <glyph glyph-name="L" unicode="L" 
d="M1195 1068q148 -169 148 -454q0 -133 -24.5 -247.5t-134 -248.5t-471.5 -134q-517 0 -570 248.5t-53 379.5t32 245t147 247t446 133q332 0 480 -169z" />
    <glyph glyph-name="M" unicode="M" 
d="M1195 1068q148 -169 148 -454q0 -133 -24.5 -247.5t-134 -248.5t-471.5 -134q-517 0 -570 248.5t-53 379.5t32 245t147 247t446 133q332 0 480 -169z" />
    <glyph glyph-name="N" unicode="N" 
d="M1195 1068q148 -169 148 -454q0 -133 -24.5 -247.5t-134 -248.5t-471.5 -134q-517 0 -570 248.5t-53 379.5t32 245t147 247t446 133q332 0 480 -169z" />
    <glyph glyph-name="O" unicode="O" 
d="M1195 1068q148 -169 148 -454q0 -133 -24.5 -247.5t-134 -248.5t-471.5 -134q-517 0 -570 248.5t-53 379.5t32 245t147 247t446 133q332 0 480 -169z" />
    <glyph glyph-name="P" unicode="P" 
d="M1195 1068q148 -169 148 -454q0 -133 -24.5 -247.5t-134 -248.5t-471.5 -134q-517 0 -570 248.5t-53 379.5t32 245t147 247t446 133q332 0 480 -169z" />
    <glyph glyph-name="Q" unicode="Q" 
d="M1195 1068q148 -169 148 -454q0 -133 -24.5 -247.5t-134 -248.5t-471.5 -134q-517 0 -570 248.5t-53 379.5t32 245t147 247t446 133q332 0 480 -169z" />
    <glyph glyph-name="R" unicode="R" 
d="M1195 1068q148 -169 148 -454q0 -133 -24.5 -247.5t-134 -248.5t-471.5 -134q-517 0 -570 248.5t-53 379.5t32 245t147 247t446 133q332 0 480 -169z" />
    <glyph glyph-name="S" unicode="S" 
d="M1195 1068q148 -169 148 -454q0 -133 -24.5 -247.5t-134 -248.5t-471.5 -134q-517 0 -570 248.5t-53 379.5t32 245t147 247t446 133q332 0 480 -169z" />
    <glyph glyph-name="T" unicode="T" 
d="M1195 1068q148 -169 148 -454q0 -133 -24.5 -247.5t-134 -248.5t-471.5 -134q-517 0 -570 248.5t-53 379.5t32 245t147 247t446 133q332 0 480 -169z" />
    <glyph glyph-name="U" unicode="U" 
d="M1195 1068q148 -169 148 -454q0 -133 -24.5 -247.5t-134 -248.5t-471.5 -134q-517 0 -570 248.5t-53 379.5t32 245t147 247t446 133q332 0 480 -169z" />
    <glyph glyph-name="V" unicode="V" 
d="M1195 1068q148 -169 148 -454q0 -133 -24.5 -247.5t-134 -248.5t-471.5 -134q-517 0 -570 248.5t-53 379.5t32 245t147 247t446 133q332 0 480 -169z" />
    <glyph glyph-name="W" unicode="W" 
d="M1195 1068q148 -169 148 -454q0 -133 -24.5 -247.5t-134 -248.5t-471.5 -134q-517 0 -570 248.5t-53 379.5t32 245t147 247t446 133q332 0 480 -169z" />
    <glyph glyph-name="X" unicode="X" 
d="M1195 1068q148 -169 148 -454q0 -133 -24.5 -247.5t-134 -248.5t-471.5 -134q-517 0 -570 248.5t-53 379.5t32 245t147 247t446 133q332 0 480 -169z" />
    <glyph glyph-name="Y" unicode="Y" 
d="M1195 1068q148 -169 148 -454q0 -133 -24.5 -247.5t-134 -248.5t-471.5 -134q-517 0 -570 248.5t-53 379.5t32 245t147 247t446 133q332 0 480 -169z" />
    <glyph glyph-name="Z" unicode="Z" 
d="M1195 1068q148 -169 148 -454q0 -133 -24.5 -247.5t-134 -248.5t-471.5 -134q-517 0 -570 248.5t-53 379.5t32 245t147 247t446 133q332 0 480 -169z" />
    <glyph glyph-name="underscore" unicode="_" horiz-adv-x="1931" 
d="M1933 -512h-1933v365h1933v-365z" />
    <glyph glyph-name="a" unicode="a" 
d="M1195 1068q148 -169 148 -454q0 -133 -24.5 -247.5t-134 -248.5t-471.5 -134q-517 0 -570 248.5t-53 379.5t32 245t147 247t446 133q332 0 480 -169z" />
    <glyph glyph-name="b" unicode="b" 
d="M1195 1068q148 -169 148 -454q0 -133 -24.5 -247.5t-134 -248.5t-471.5 -134q-517 0 -570 248.5t-53 379.5t32 245t147 247t446 133q332 0 480 -169z" />
    <glyph glyph-name="c" unicode="c" 
d="M1195 1068q148 -169 148 -454q0 -133 -24.5 -247.5t-134 -248.5t-471.5 -134q-517 0 -570 248.5t-53 379.5t32 245t147 247t446 133q332 0 480 -169z" />
    <glyph glyph-name="d" unicode="d" 
d="M1195 1068q148 -169 148 -454q0 -133 -24.5 -247.5t-134 -248.5t-471.5 -134q-517 0 -570 248.5t-53 379.5t32 245t147 247t446 133q332 0 480 -169z" />
    <glyph glyph-name="e" unicode="e" 
d="M1195 1068q148 -169 148 -454q0 -133 -24.5 -247.5t-134 -248.5t-471.5 -134q-517 0 -570 248.5t-53 379.5t32 245t147 247t446 133q332 0 480 -169z" />
    <glyph glyph-name="f" unicode="f" 
d="M1195 1068q148 -169 148 -454q0 -133 -24.5 -247.5t-134 -248.5t-471.5 -134q-517 0 -570 248.5t-53 379.5t32 245t147 247t446 133q332 0 480 -169z" />
    <glyph glyph-name="g" unicode="g" 
d="M1195 1068q148 -169 148 -454q0 -133 -24.5 -247.5t-134 -248.5t-471.5 -134q-517 0 -570 248.5t-53 379.5t32 245t147 247t446 133q332 0 480 -169z" />
    <glyph glyph-name="h" unicode="h" 
d="M1195 1068q148 -169 148 -454q0 -133 -24.5 -247.5t-134 -248.5t-471.5 -134q-517 0 -570 248.5t-53 379.5t32 245t147 247t446 133q332 0 480 -169z" />
    <glyph glyph-name="i" unicode="i" 
d="M1195 1068q148 -169 148 -454q0 -133 -24.5 -247.5t-134 -248.5t-471.5 -134q-517 0 -570 248.5t-53 379.5t32 245t147 247t446 133q332 0 480 -169z" />
    <glyph glyph-name="j" unicode="j" 
d="M1195 1068q148 -169 148 -454q0 -133 -24.5 -247.5t-134 -248.5t-471.5 -134q-517 0 -570 248.5t-53 379.5t32 245t147 247t446 133q332 0 480 -169z" />
    <glyph glyph-name="k" unicode="k" 
d="M1195 1068q148 -169 148 -454q0 -133 -24.5 -247.5t-134 -248.5t-471.5 -134q-517 0 -570 248.5t-53 379.5t32 245t147 247t446 133q332 0 480 -169z" />
    <glyph glyph-name="l" unicode="l" 
d="M1195 1068q148 -169 148 -454q0 -133 -24.5 -247.5t-134 -248.5t-471.5 -134q-517 0 -570 248.5t-53 379.5t32 245t147 247t446 133q332 0 480 -169z" />
    <glyph glyph-name="m" unicode="m" 
d="M1195 1068q148 -169 148 -454q0 -133 -24.5 -247.5t-134 -248.5t-471.5 -134q-517 0 -570 248.5t-53 379.5t32 245t147 247t446 133q332 0 480 -169z" />
    <glyph glyph-name="n" unicode="n" 
d="M1195 1068q148 -169 148 -454q0 -133 -24.5 -247.5t-134 -248.5t-471.5 -134q-517 0 -570 248.5t-53 379.5t32 245t147 247t446 133q332 0 480 -169z" />
    <glyph glyph-name="o" unicode="o" 
d="M1195 1068q148 -169 148 -454q0 -133 -24.5 -247.5t-134 -248.5t-471.5 -134q-517 0 -570 248.5t-53 379.5t32 245t147 247t446 133q332 0 480 -169z" />
    <glyph glyph-name="p" unicode="p" 
d="M1195 1068q148 -169 148 -454q0 -133 -24.5 -247.5t-134 -248.5t-471.5 -134q-517 0 -570 248.5t-53 379.5t32 245t147 247t446 133q332 0 480 -169z" />
    <glyph glyph-name="q" unicode="q" 
d="M1195 1068q148 -169 148 -454q0 -133 -24.5 -247.5t-134 -248.5t-471.5 -134q-517 0 -570 248.5t-53 379.5t32 245t147 247t446 133q332 0 480 -169z" />
    <glyph glyph-name="r" unicode="r" 
d="M1195 1068q148 -169 148 -454q0 -133 -24.5 -247.5t-134 -248.5t-471.5 -134q-517 0 -570 248.5t-53 379.5t32 245t147 247t446 133q332 0 480 -169z" />
    <glyph glyph-name="s" unicode="s" 
d="M1195 1068q148 -169 148 -454q0 -133 -24.5 -247.5t-134 -248.5t-471.5 -134q-517 0 -570 248.5t-53 379.5t32 245t147 247t446 133q332 0 480 -169z" />
    <glyph glyph-name="t" unicode="t" 
d="M1195 1068q148 -169 148 -454q0 -133 -24.5 -247.5t-134 -248.5t-471.5 -134q-517 0 -570 248.5t-53 379.5t32 245t147 247t446 133q332 0 480 -169z" />
    <glyph glyph-name="u" unicode="u" 
d="M1195 1068q148 -169 148 -454q0 -133 -24.5 -247.5t-134 -248.5t-471.5 -134q-517 0 -570 248.5t-53 379.5t32 245t147 247t446 133q332 0 480 -169z" />
    <glyph glyph-name="v" unicode="v" 
d="M1195 1068q148 -169 148 -454q0 -133 -24.5 -247.5t-134 -248.5t-471.5 -134q-517 0 -570 248.5t-53 379.5t32 245t147 247t446 133q332 0 480 -169z" />
    <glyph glyph-name="w" unicode="w" 
d="M1195 1068q148 -169 148 -454q0 -133 -24.5 -247.5t-134 -248.5t-471.5 -134q-517 0 -570 248.5t-53 379.5t32 245t147 247t446 133q332 0 480 -169z" />
    <glyph glyph-name="x" unicode="x" 
d="M1195 1068q148 -169 148 -454q0 -133 -24.5 -247.5t-134 -248.5t-471.5 -134q-517 0 -570 248.5t-53 379.5t32 245t147 247t446 133q332 0 480 -169z" />
    <glyph glyph-name="y" unicode="y" 
d="M1195 1068q148 -169 148 -454q0 -133 -24.5 -247.5t-134 -248.5t-471.5 -134q-517 0 -570 248.5t-53 379.5t32 245t147 247t446 133q332 0 480 -169z" />
    <glyph glyph-name="z" unicode="z" 
d="M1195 1068q148 -169 148 -454q0 -133 -24.5 -247.5t-134 -248.5t-471.5 -134q-517 0 -570 248.5t-53 379.5t32 245t147 247t446 133q332 0 480 -169z" />
    <glyph glyph-name="bar" unicode="|" horiz-adv-x="548" 
d="M446 1538v-1604h-344v1604h344z" />
    <glyph glyph-name="brokenbar" unicode="&#xa6;" horiz-adv-x="548" 
d="M446 678v-744h-344v744h344zM446 1538v-743h-344v743h344z" />
    <glyph glyph-name="periodcentered" unicode="&#xb7;" horiz-adv-x="630" 
d="M102 688q0 43 17.5 82t46.5 67.5t67.5 46t81.5 17.5t82 -17.5t68 -46t46 -67.5t17 -82t-17 -82t-46 -67.5t-68 -46t-82 -17.5t-81.5 17.5t-67.5 46t-46.5 67.5t-17.5 82z" />
    <glyph glyph-name="endash" unicode="&#x2013;" horiz-adv-x="1335" 
d="M1233 483h-1131v385h1131v-385z" />
    <glyph glyph-name="emdash" unicode="&#x2014;" horiz-adv-x="2138" 
d="M2036 483h-1934v385h1934v-385z" />
    <glyph glyph-name="quoteleft" unicode="&#x2018;" horiz-adv-x="630" 
d="M306 1460q52 0 91 -17.5t68 -46t46 -67.5t17 -82t-17 -82t-46 -67.5t-68 -46t-102.5 -17.5t-128 63t-64.5 150v8q4 146 109.5 249.5t251.5 103.5v-33q-86 0 -161 -44t-118 -112q70 41 122 41z" />
    <glyph glyph-name="quoteright" unicode="&#x2019;" horiz-adv-x="630" 
d="M324 1182q-52 0 -90.5 17.5t-67.5 46t-46.5 67.5t-17.5 82t17.5 82t46.5 67.5t67.5 46t102.5 17.5t128 -62.5t64 -150.5v-9q-8 -150 -111 -251t-249 -101v33q86 0 160.5 44t117.5 112q-70 -41 -122 -41z" />
    <glyph glyph-name="bullet" unicode="&#x2022;" horiz-adv-x="843" 
d="M198 912q96 96 224 96t223.5 -95.5t95.5 -224.5t-95 -224t-224 -95t-224.5 95.5t-95.5 223.5t96 224z" />
    <glyph glyph-name="ellipsis" unicode="&#x2026;" horiz-adv-x="2064" 
d="M1536 197q0 43 17.5 81.5t46 67.5t67.5 46.5t82 17.5t82 -17.5t67.5 -46.5t46 -67.5t17.5 -81.5t-17.5 -82t-46 -68t-67.5 -46t-82 -17t-82 17t-67.5 46t-46 68t-17.5 82zM819 197q0 43 17.5 81.5t46 67.5t67.5 46.5t82 17.5t82 -17.5t67.5 -46.5t46 -67.5t17.5 -81.5
t-17.5 -82t-46 -68t-67.5 -46t-82 -17t-82 17t-67.5 46t-46 68t-17.5 82zM102 197q0 43 17.5 81.5t46.5 67.5t67.5 46.5t81.5 17.5t82 -17.5t68 -46.5t46 -67.5t17 -81.5t-17 -82t-46 -68t-68 -46t-82 -17t-81.5 17t-67.5 46t-46.5 68t-17.5 82z" />
    <glyph glyph-name="minus" unicode="&#x2212;" horiz-adv-x="843" 
d="M741 483h-639v385h639v-385z" />
  </font>
</defs>
</svg>
