<?xml version="1.0" encoding="utf-8"?>
<!-- Generator: Adobe Illustrator 19.1.0, SVG Export Plug-In . SVG Version: 6.00 Build 0)  -->
<svg version="1.1" id="Layer_1" xmlns="http://www.w3.org/2000/svg" xmlns:xlink="http://www.w3.org/1999/xlink" x="0px" y="0px"
	 viewBox="-241 242.2 16 16.8" style="enable-background:new -241 242.2 16 16.8;" xml:space="preserve">
<style type="text/css">
	.st0{fill:#231F20;}
</style>
<path class="st0" d="M-228.6,249.4c-2,0-3.6-1.6-3.6-3.6c0-2,1.6-3.6,3.6-3.6c2,0,3.6,1.6,3.6,3.6
	C-225,247.8-226.6,249.4-228.6,249.4z M-228.6,244.2c-0.9,0-1.6,0.7-1.6,1.6s0.7,1.6,1.6,1.6s1.6-0.7,1.6-1.6
	S-227.7,244.2-228.6,244.2z"/>
<path class="st0" d="M-237.4,254.2c-2,0-3.6-1.6-3.6-3.6s1.6-3.6,3.6-3.6s3.6,1.6,3.6,3.6S-235.4,254.2-237.4,254.2z M-237.4,249
	c-0.9,0-1.6,0.7-1.6,1.6s0.7,1.6,1.6,1.6s1.6-0.7,1.6-1.6S-236.5,249-237.4,249z"/>
<path class="st0" d="M-228.6,259c-2,0-3.6-1.6-3.6-3.6c0-2,1.6-3.6,3.6-3.6s3.6,1.6,3.6,3.6C-225,257.4-226.6,259-228.6,259z
	 M-228.6,253.8c-0.9,0-1.6,0.7-1.6,1.6c0,0.9,0.7,1.6,1.6,1.6s1.6-0.7,1.6-1.6C-227,254.5-227.7,253.8-228.6,253.8z"/>
<path class="st0" d="M-237,248.2l0.5,0.8l5.5-3.2l-0.5-0.8L-237,248.2z"/>
<path class="st0" d="M-236,252l0.5-0.8l5.5,3.2l-0.5,0.8L-236,252z"/>
</svg>
